{
	"nodes":[{
		"children":[1,
		2,
		3,
		4,
		5,
		6,
		7,
		8,
		9,
		10],
		"name":"pe78n",
		"translation":[0.0,
		-33.72776794433594,
		0.0],
		"rotation":[0.0,
		0.0,
		0.0,
		-1.0],
		"scale":[1.0,
		1.0,
		1.0]
	},
	{
		"name":"pe78n-Styrofoam2",
		"mesh":0
	},
	{
		"name":"pe78n-Glas",
		"mesh":1
	},
	{
		"name":"pe78n-hardware",
		"mesh":2
	},
	{
		"name":"pe78n-WarmeKante",
		"mesh":3
	},
	{
		"name":"pe78n-GlasKante",
		"mesh":4
	},
	{
		"name":"pe78n-Top Gasket",
		"mesh":5
	},
	{
		"name":"pe78n-alu dark",
		"mesh":6
	},
	{
		"name":"pe78n-Bottom Gastet rough",
		"mesh":7
	},
	{
		"name":"pe78n-Rubber - Black",
		"mesh":8
	},
	{
		"name":"pe78n-Aluminium",
		"mesh":9
	}],
	"asset":{
		"version":"2.0",
		"generator":"Created using the official Cinema 4D glTF Exporter 1.000x284978"
	},
	"scenes":[{
		"nodes":[0]
	}],
	"meshes":[{
		"name":"pe78n-Styrofoam2",
		"primitives":[{
			"attributes":{
				"POSITION":1,
				"TEXCOORD_0":2
			},
			"indices":0,
			"material":0
		}]
	},
	{
		"name":"pe78n-Glas",
		"primitives":[{
			"attributes":{
				"POSITION":4,
				"TEXCOORD_0":5
			},
			"indices":3,
			"material":1
		}]
	},
	{
		"name":"pe78n-hardware",
		"primitives":[{
			"attributes":{
				"POSITION":7,
				"TEXCOORD_0":8
			},
			"indices":6,
			"material":2
		}]
	},
	{
		"name":"pe78n-WarmeKante",
		"primitives":[{
			"attributes":{
				"POSITION":10,
				"TEXCOORD_0":11
			},
			"indices":9,
			"material":3
		}]
	},
	{
		"name":"pe78n-GlasKante",
		"primitives":[{
			"attributes":{
				"POSITION":13,
				"TEXCOORD_0":14
			},
			"indices":12,
			"material":4
		}]
	},
	{
		"name":"pe78n-Top Gasket",
		"primitives":[{
			"attributes":{
				"POSITION":16,
				"TEXCOORD_0":17
			},
			"indices":15,
			"material":5
		}]
	},
	{
		"name":"pe78n-alu dark",
		"primitives":[{
			"attributes":{
				"POSITION":19,
				"TEXCOORD_0":20
			},
			"indices":18,
			"material":6
		}]
	},
	{
		"name":"pe78n-Bottom Gastet rough",
		"primitives":[{
			"attributes":{
				"POSITION":22,
				"TEXCOORD_0":23
			},
			"indices":21,
			"material":7
		}]
	},
	{
		"name":"pe78n-Rubber - Black",
		"primitives":[{
			"attributes":{
				"POSITION":25,
				"TEXCOORD_0":26
			},
			"indices":24,
			"material":8
		}]
	},
	{
		"name":"pe78n-Aluminium",
		"primitives":[{
			"attributes":{
				"POSITION":28,
				"TEXCOORD_0":29
			},
			"indices":27,
			"material":9
		}]
	}],
	"accessors":[{
		"bufferView":0,
		"type":"SCALAR",
		"componentType":5123,
		"count":1776,
		"byteOffset":0,
		"min":[0],
		"max":[603]
	},
	{
		"bufferView":1,
		"type":"VEC3",
		"componentType":5126,
		"count":604,
		"byteOffset":0,
		"min":[3.6065940856933595,
		55.32595443725586,
		-350.27130126953127],
		"max":[76.878662109375,
		193.56687927246095,
		-0.2713070213794708]
	},
	{
		"bufferView":1,
		"type":"VEC2",
		"componentType":5126,
		"count":604,
		"byteOffset":12,
		"min":[0.0024045491591095926,
		0.0024045491591095926],
		"max":[0.9950248599052429,
		0.9909230470657349]
	},
	{
		"bufferView":2,
		"type":"SCALAR",
		"componentType":5123,
		"count":204,
		"byteOffset":0,
		"min":[0],
		"max":[73]
	},
	{
		"bufferView":3,
		"type":"VEC3",
		"componentType":5126,
		"count":74,
		"byteOffset":0,
		"min":[-4.526589393615723,
		231.2249755859375,
		-240.07034301757813],
		"max":[82.6080093383789,
		380.8293151855469,
		0.006511352490633726]
	},
	{
		"bufferView":3,
		"type":"VEC2",
		"componentType":5126,
		"count":74,
		"byteOffset":12,
		"min":[0.1302143782377243,
		0.5063604116439819],
		"max":[0.3584917187690735,
		0.9043525457382202]
	},
	{
		"bufferView":4,
		"type":"SCALAR",
		"componentType":5123,
		"count":72,
		"byteOffset":0,
		"min":[0],
		"max":[27]
	},
	{
		"bufferView":5,
		"type":"VEC3",
		"componentType":5126,
		"count":28,
		"byteOffset":0,
		"min":[-42.74707794189453,
		151.2510986328125,
		-325.264404296875],
		"max":[-14.637453079223633,
		158.8323211669922,
		-0.26441192626953127]
	},
	{
		"bufferView":5,
		"type":"VEC2",
		"componentType":5126,
		"count":28,
		"byteOffset":12,
		"min":[0.7035440802574158,
		0.18346962332725526],
		"max":[0.882107675075531,
		0.8333110809326172]
	},
	{
		"bufferView":6,
		"type":"SCALAR",
		"componentType":5123,
		"count":1680,
		"byteOffset":0,
		"min":[0],
		"max":[551]
	},
	{
		"bufferView":7,
		"type":"VEC3",
		"componentType":5126,
		"count":552,
		"byteOffset":0,
		"min":[3.633599281311035,
		237.33416748046876,
		-205.26441955566407],
		"max":[74.10774993896485,
		250.85699462890626,
		-0.2615678608417511]
	},
	{
		"bufferView":7,
		"type":"VEC2",
		"componentType":5126,
		"count":552,
		"byteOffset":12,
		"min":[0.58173668384552,
		0.18346962332725526],
		"max":[0.9308419227600098,
		0.9494349956512451]
	},
	{
		"bufferView":8,
		"type":"SCALAR",
		"componentType":5123,
		"count":168,
		"byteOffset":0,
		"min":[0],
		"max":[59]
	},
	{
		"bufferView":9,
		"type":"VEC3",
		"componentType":5126,
		"count":60,
		"byteOffset":0,
		"min":[3.736572504043579,
		231.4430389404297,
		-220.26441955566407],
		"max":[74.08975219726563,
		241.8185577392578,
		-0.2615678608417511]
	},
	{
		"bufferView":9,
		"type":"VEC2",
		"componentType":5126,
		"count":60,
		"byteOffset":12,
		"min":[0.0024045491591095926,
		0.0024045491591095926],
		"max":[0.7646477222442627,
		0.7649885416030884]
	},
	{
		"bufferView":10,
		"type":"SCALAR",
		"componentType":5123,
		"count":4524,
		"byteOffset":0,
		"min":[0],
		"max":[1513]
	},
	{
		"bufferView":11,
		"type":"VEC3",
		"componentType":5126,
		"count":1514,
		"byteOffset":0,
		"min":[6.37974739074707,
		213.87301635742188,
		-270.27130126953127],
		"max":[94.66822814941406,
		230.5018310546875,
		-0.2713070213794708]
	},
	{
		"bufferView":11,
		"type":"VEC2",
		"componentType":5126,
		"count":1514,
		"byteOffset":12,
		"min":[0.3729189932346344,
		0.591937780380249],
		"max":[0.7050333619117737,
		0.8324792385101318]
	},
	{
		"bufferView":12,
		"type":"SCALAR",
		"componentType":5123,
		"count":43200,
		"byteOffset":0,
		"min":[0],
		"max":[14393]
	},
	{
		"bufferView":13,
		"type":"VEC3",
		"componentType":5126,
		"count":14394,
		"byteOffset":0,
		"min":[-0.3907727301120758,
		34.196128845214847,
		-350.27130126953127],
		"max":[78.45879364013672,
		213.67845153808595,
		-0.2713070213794708]
	},
	{
		"bufferView":13,
		"type":"VEC2",
		"componentType":5126,
		"count":14394,
		"byteOffset":12,
		"min":[0.0024045491591095926,
		0.0024045491591095926],
		"max":[0.9515523314476013,
		0.9751825332641602]
	},
	{
		"bufferView":14,
		"type":"SCALAR",
		"componentType":5123,
		"count":9336,
		"byteOffset":0,
		"min":[0],
		"max":[3121]
	},
	{
		"bufferView":15,
		"type":"VEC3",
		"componentType":5126,
		"count":3122,
		"byteOffset":0,
		"min":[-9.643675804138184,
		120.72636413574219,
		-340.27130126953127],
		"max":[51.369171142578128,
		148.4999237060547,
		-0.2713070213794708]
	},
	{
		"bufferView":15,
		"type":"VEC2",
		"componentType":5126,
		"count":3122,
		"byteOffset":12,
		"min":[0.0024045491591095926,
		0.3264327645301819],
		"max":[0.8879459500312805,
		0.9882947206497192]
	},
	{
		"bufferView":16,
		"type":"SCALAR",
		"componentType":5123,
		"count":29988,
		"byteOffset":0,
		"min":[0],
		"max":[10003]
	},
	{
		"bufferView":17,
		"type":"VEC3",
		"componentType":5126,
		"count":10004,
		"byteOffset":0,
		"min":[-56.634281158447269,
		117.559326171875,
		-350.3273010253906],
		"max":[94.60279083251953,
		257.425537109375,
		-0.2218209207057953]
	},
	{
		"bufferView":17,
		"type":"VEC2",
		"componentType":5126,
		"count":10004,
		"byteOffset":12,
		"min":[0.0024045491591095926,
		0.0024045491591095926],
		"max":[0.9947246313095093,
		0.9883017539978027]
	},
	{
		"bufferView":18,
		"type":"SCALAR",
		"componentType":5123,
		"count":72240,
		"byteOffset":0,
		"min":[0],
		"max":[24107]
	},
	{
		"bufferView":19,
		"type":"VEC3",
		"componentType":5126,
		"count":24108,
		"byteOffset":0,
		"min":[-60.0620231628418,
		33.129268646240237,
		-350.27130126953127],
		"max":[97.21965026855469,
		254.74659729003907,
		-0.2713070213794708]
	},
	{
		"bufferView":19,
		"type":"VEC2",
		"componentType":5126,
		"count":24108,
		"byteOffset":12,
		"min":[0.0024045491591095926,
		0.0024045491591095926],
		"max":[0.9890826940536499,
		0.993380069732666]
	}],
	"bufferViews":[{
		"buffer":0,
		"byteOffset":0,
		"byteLength":3552,
		"target":34963
	},
	{
		"buffer":0,
		"byteOffset":3552,
		"byteLength":12080,
		"target":34962,
		"byteStride":20
	},
	{
		"buffer":1,
		"byteOffset":0,
		"byteLength":408,
		"target":34963
	},
	{
		"buffer":1,
		"byteOffset":408,
		"byteLength":1480,
		"target":34962,
		"byteStride":20
	},
	{
		"buffer":2,
		"byteOffset":0,
		"byteLength":144,
		"target":34963
	},
	{
		"buffer":2,
		"byteOffset":144,
		"byteLength":560,
		"target":34962,
		"byteStride":20
	},
	{
		"buffer":3,
		"byteOffset":0,
		"byteLength":3360,
		"target":34963
	},
	{
		"buffer":3,
		"byteOffset":3360,
		"byteLength":11040,
		"target":34962,
		"byteStride":20
	},
	{
		"buffer":4,
		"byteOffset":0,
		"byteLength":336,
		"target":34963
	},
	{
		"buffer":4,
		"byteOffset":336,
		"byteLength":1200,
		"target":34962,
		"byteStride":20
	},
	{
		"buffer":5,
		"byteOffset":0,
		"byteLength":9048,
		"target":34963
	},
	{
		"buffer":5,
		"byteOffset":9048,
		"byteLength":30280,
		"target":34962,
		"byteStride":20
	},
	{
		"buffer":6,
		"byteOffset":0,
		"byteLength":86400,
		"target":34963
	},
	{
		"buffer":6,
		"byteOffset":86400,
		"byteLength":287880,
		"target":34962,
		"byteStride":20
	},
	{
		"buffer":7,
		"byteOffset":0,
		"byteLength":18672,
		"target":34963
	},
	{
		"buffer":7,
		"byteOffset":18672,
		"byteLength":62440,
		"target":34962,
		"byteStride":20
	},
	{
		"buffer":8,
		"byteOffset":0,
		"byteLength":59976,
		"target":34963
	},
	{
		"buffer":8,
		"byteOffset":59976,
		"byteLength":200080,
		"target":34962,
		"byteStride":20
	},
	{
		"buffer":9,
		"byteOffset":0,
		"byteLength":144480,
		"target":34963
	},
	{
		"buffer":9,
		"byteOffset":144480,
		"byteLength":482160,
		"target":34962,
		"byteStride":20
	}],
	"buffers":[{
		"uri":"data:application/octet-stream;base64,",
		"byteLength":15632
	},
	{
		"uri":"data:application/octet-stream;base64,",
		"byteLength":1888
	},
	{
		"uri":"data:application/octet-stream;base64,",
		"byteLength":704
	},
	{
		"uri":"data:application/octet-stream;base64,",
		"byteLength":14400
	},
	{
		"uri":"data:application/octet-stream;base64,",
		"byteLength":1536
	},
	{
		"uri":"data:application/octet-stream;base64,",
		"byteLength":39328
	},
	{
		"uri":"data:application/octet-stream;base64,",
		"byteLength":374280
	},
	{
		"uri":"data:application/octet-stream;base64,",
		"byteLength":81112
	},
	{
		"uri":"data:application/octet-stream;base64,",
		"byteLength":260056
	},
	{
		"uri":"data:application/octet-stream;base64,",
		"byteLength":626640
	}],
	"materials":[{
		"pbrMetallicRoughness":{
			"baseColorFactor":[1.0,
			1.0,
			1.0,
			1.0],
			"metallicFactor":1.0,
			"roughnessFactor":1.0
		},
		"emissiveFactor":[0.0,
		0.0,
		0.0],
		"alphaMode":"OPAQUE",
		"doubleSided":false,
		"name":""
	},
	{
		"pbrMetallicRoughness":{
			"baseColorFactor":[1.0,
			1.0,
			1.0,
			1.0],
			"metallicFactor":1.0,
			"roughnessFactor":1.0
		},
		"emissiveFactor":[0.0,
		0.0,
		0.0],
		"alphaMode":"OPAQUE",
		"doubleSided":false,
		"name":""
	},
	{
		"pbrMetallicRoughness":{
			"baseColorFactor":[1.0,
			1.0,
			1.0,
			1.0],
			"metallicFactor":1.0,
			"roughnessFactor":1.0
		},
		"emissiveFactor":[0.0,
		0.0,
		0.0],
		"alphaMode":"OPAQUE",
		"doubleSided":false,
		"name":""
	},
	{
		"pbrMetallicRoughness":{
			"baseColorFactor":[1.0,
			1.0,
			1.0,
			1.0],
			"metallicFactor":1.0,
			"roughnessFactor":1.0
		},
		"emissiveFactor":[0.0,
		0.0,
		0.0],
		"alphaMode":"OPAQUE",
		"doubleSided":false,
		"name":""
	},
	{
		"pbrMetallicRoughness":{
			"baseColorFactor":[1.0,
			1.0,
			1.0,
			1.0],
			"metallicFactor":1.0,
			"roughnessFactor":1.0
		},
		"emissiveFactor":[0.0,
		0.0,
		0.0],
		"alphaMode":"OPAQUE",
		"doubleSided":false,
		"name":""
	},
	{
		"pbrMetallicRoughness":{
			"baseColorFactor":[1.0,
			1.0,
			1.0,
			1.0],
			"metallicFactor":1.0,
			"roughnessFactor":1.0
		},
		"emissiveFactor":[0.0,
		0.0,
		0.0],
		"alphaMode":"OPAQUE",
		"doubleSided":false,
		"name":""
	},
	{
		"pbrMetallicRoughness":{
			"baseColorFactor":[1.0,
			1.0,
			1.0,
			1.0],
			"metallicFactor":1.0,
			"roughnessFactor":1.0
		},
		"emissiveFactor":[0.0,
		0.0,
		0.0],
		"alphaMode":"OPAQUE",
		"doubleSided":false,
		"name":""
	},
	{
		"pbrMetallicRoughness":{
			"baseColorFactor":[1.0,
			1.0,
			1.0,
			1.0],
			"metallicFactor":1.0,
			"roughnessFactor":1.0
		},
		"emissiveFactor":[0.0,
		0.0,
		0.0],
		"alphaMode":"OPAQUE",
		"doubleSided":false,
		"name":""
	},
	{
		"pbrMetallicRoughness":{
			"baseColorFactor":[0.8,
			0.8,
			0.8,
			1.0],
			"metallicFactor":0.36,
			"roughnessFactor":0.61
		},
		"emissiveFactor":[0.0,
		0.0,
		0.0],
		"alphaMode":"OPAQUE",
		"doubleSided":false,
		"name":"Rubber - Black"
	},
	{
		"pbrMetallicRoughness":{
			"baseColorFactor":[0.9999999999999999,
			0.9999999999999999,
			0.9999999999999999,
			1.0],
			"metallicFactor":1.0,
			"roughnessFactor":0.25
		},
		"emissiveFactor":[0.0,
		0.0,
		0.0],
		"alphaMode":"OPAQUE",
		"doubleSided":false,
		"name":"Aluminium"
	}]
}