{
	"nodes":[{
		"children":[1,
		2,
		3,
		4,
		5,
		6,
		7,
		8,
		9,
		10],
		"name":"pe78n",
		"translation":[0.0,
		-33.72776794433594,
		0.0],
		"rotation":[0.0,
		0.0,
		0.0,
		-1.0],
		"scale":[1.0,
		1.0,
		1.0]
	},
	{
		"name":"pe78n-Styrofoam2",
		"mesh":0
	},
	{
		"name":"pe78n-Glas",
		"mesh":1
	},
	{
		"name":"pe78n-hardware",
		"mesh":2
	},
	{
		"name":"pe78n-WarmeKante",
		"mesh":3
	},
	{
		"name":"pe78n-GlasKante",
		"mesh":4
	},
	{
		"name":"pe78n-Top Gasket",
		"mesh":5
	},
	{
		"name":"pe78n-alu dark",
		"mesh":6
	},
	{
		"name":"pe78n-Bottom Gastet rough",
		"mesh":7
	},
	{
		"name":"pe78n-Rubber - Black",
		"mesh":8
	},
	{
		"name":"pe78n-Aluminium",
		"mesh":9
	}],
	"asset":{
		"version":"2.0",
		"generator":"Created using the official Cinema 4D glTF Exporter 1.000x284978"
	},
	"scenes":[{
		"nodes":[0]
	}],
	"meshes":[{
		"name":"pe78n-Styrofoam2",
		"primitives":[{
			"attributes":{
				"POSITION":1,
				"NORMAL":2,
				"TEXCOORD_0":3
			},
			"indices":0,
			"material":0
		}]
	},
	{
		"name":"pe78n-Glas",
		"primitives":[{
			"attributes":{
				"POSITION":5,
				"NORMAL":6,
				"TEXCOORD_0":7
			},
			"indices":4,
			"material":1
		}]
	},
	{
		"name":"pe78n-hardware",
		"primitives":[{
			"attributes":{
				"POSITION":9,
				"NORMAL":10,
				"TEXCOORD_0":11
			},
			"indices":8,
			"material":2
		}]
	},
	{
		"name":"pe78n-WarmeKante",
		"primitives":[{
			"attributes":{
				"POSITION":13,
				"NORMAL":14,
				"TEXCOORD_0":15
			},
			"indices":12,
			"material":3
		}]
	},
	{
		"name":"pe78n-GlasKante",
		"primitives":[{
			"attributes":{
				"POSITION":17,
				"NORMAL":18,
				"TEXCOORD_0":19
			},
			"indices":16,
			"material":4
		}]
	},
	{
		"name":"pe78n-Top Gasket",
		"primitives":[{
			"attributes":{
				"POSITION":21,
				"NORMAL":22,
				"TEXCOORD_0":23
			},
			"indices":20,
			"material":5
		}]
	},
	{
		"name":"pe78n-alu dark",
		"primitives":[{
			"attributes":{
				"POSITION":25,
				"NORMAL":26,
				"TEXCOORD_0":27
			},
			"indices":24,
			"material":6
		}]
	},
	{
		"name":"pe78n-Bottom Gastet rough",
		"primitives":[{
			"attributes":{
				"POSITION":29,
				"NORMAL":30,
				"TEXCOORD_0":31
			},
			"indices":28,
			"material":7
		}]
	},
	{
		"name":"pe78n-Rubber - Black",
		"primitives":[{
			"attributes":{
				"POSITION":33,
				"NORMAL":34,
				"TEXCOORD_0":35
			},
			"indices":32,
			"material":8
		}]
	},
	{
		"name":"pe78n-Aluminium",
		"primitives":[{
			"attributes":{
				"POSITION":37,
				"NORMAL":38,
				"TEXCOORD_0":39
			},
			"indices":36,
			"material":9
		}]
	}],
	"accessors":[{
		"bufferView":0,
		"type":"SCALAR",
		"componentType":5123,
		"count":1776,
		"byteOffset":0,
		"min":[0],
		"max":[603]
	},
	{
		"bufferView":1,
		"type":"VEC3",
		"componentType":5126,
		"count":604,
		"byteOffset":0,
		"min":[3.6065940856933595,
		55.32595443725586,
		-350.27130126953127],
		"max":[76.878662109375,
		193.56687927246095,
		-0.2713070213794708]
	},
	{
		"bufferView":1,
		"type":"VEC3",
		"componentType":5126,
		"count":604,
		"byteOffset":12,
		"min":[-0.9999688267707825,
		-0.9999688267707825,
		-1.0],
		"max":[0.9999688267707825,
		0.9999688267707825,
		1.0]
	},
	{
		"bufferView":1,
		"type":"VEC2",
		"componentType":5126,
		"count":604,
		"byteOffset":24,
		"min":[0.0,
		0.0],
		"max":[1.0,
		1.0]
	},
	{
		"bufferView":2,
		"type":"SCALAR",
		"componentType":5123,
		"count":204,
		"byteOffset":0,
		"min":[0],
		"max":[113]
	},
	{
		"bufferView":3,
		"type":"VEC3",
		"componentType":5126,
		"count":114,
		"byteOffset":0,
		"min":[-4.526589393615723,
		231.2249755859375,
		-240.07034301757813],
		"max":[82.6080093383789,
		380.8293151855469,
		0.006511352490633726]
	},
	{
		"bufferView":3,
		"type":"VEC3",
		"componentType":5126,
		"count":114,
		"byteOffset":12,
		"min":[-0.9999688267707825,
		-0.9999688267707825,
		-1.0],
		"max":[0.9999688267707825,
		0.9998750686645508,
		1.0]
	},
	{
		"bufferView":3,
		"type":"VEC2",
		"componentType":5126,
		"count":114,
		"byteOffset":24,
		"min":[0.0,
		0.0],
		"max":[1.0,
		1.0]
	},
	{
		"bufferView":4,
		"type":"SCALAR",
		"componentType":5123,
		"count":72,
		"byteOffset":0,
		"min":[0],
		"max":[47]
	},
	{
		"bufferView":5,
		"type":"VEC3",
		"componentType":5126,
		"count":48,
		"byteOffset":0,
		"min":[-42.74707794189453,
		151.2510986328125,
		-325.264404296875],
		"max":[-14.637453079223633,
		158.8323211669922,
		-0.26441192626953127]
	},
	{
		"bufferView":5,
		"type":"VEC3",
		"componentType":5126,
		"count":48,
		"byteOffset":12,
		"min":[-0.9996563196182251,
		-0.9999688267707825,
		-1.0],
		"max":[0.9991875290870667,
		0.9999688267707825,
		1.0]
	},
	{
		"bufferView":5,
		"type":"VEC2",
		"componentType":5126,
		"count":48,
		"byteOffset":24,
		"min":[0.0,
		0.0],
		"max":[1.0,
		1.0]
	},
	{
		"bufferView":6,
		"type":"SCALAR",
		"componentType":5123,
		"count":1680,
		"byteOffset":0,
		"min":[0],
		"max":[663]
	},
	{
		"bufferView":7,
		"type":"VEC3",
		"componentType":5126,
		"count":664,
		"byteOffset":0,
		"min":[3.633599281311035,
		237.33416748046876,
		-205.26441955566407],
		"max":[74.10774993896485,
		250.85699462890626,
		-0.2615678608417511]
	},
	{
		"bufferView":7,
		"type":"VEC3",
		"componentType":5126,
		"count":664,
		"byteOffset":12,
		"min":[-0.9999688267707825,
		-0.9999688267707825,
		-1.0],
		"max":[0.9999688267707825,
		0.9999688267707825,
		1.0]
	},
	{
		"bufferView":7,
		"type":"VEC2",
		"componentType":5126,
		"count":664,
		"byteOffset":24,
		"min":[0.0,
		0.0],
		"max":[1.0,
		1.0]
	},
	{
		"bufferView":8,
		"type":"SCALAR",
		"componentType":5123,
		"count":168,
		"byteOffset":0,
		"min":[0],
		"max":[95]
	},
	{
		"bufferView":9,
		"type":"VEC3",
		"componentType":5126,
		"count":96,
		"byteOffset":0,
		"min":[3.736572504043579,
		231.4430389404297,
		-220.26441955566407],
		"max":[74.08975219726563,
		241.8185577392578,
		-0.2615678608417511]
	},
	{
		"bufferView":9,
		"type":"VEC3",
		"componentType":5126,
		"count":96,
		"byteOffset":12,
		"min":[-0.9998750686645508,
		-0.9999688267707825,
		-1.0],
		"max":[0.9997813105583191,
		0.9999688267707825,
		1.0]
	},
	{
		"bufferView":9,
		"type":"VEC2",
		"componentType":5126,
		"count":96,
		"byteOffset":24,
		"min":[0.0,
		0.0],
		"max":[1.0,
		1.0]
	},
	{
		"bufferView":10,
		"type":"SCALAR",
		"componentType":5123,
		"count":4524,
		"byteOffset":0,
		"min":[0],
		"max":[1513]
	},
	{
		"bufferView":11,
		"type":"VEC3",
		"componentType":5126,
		"count":1514,
		"byteOffset":0,
		"min":[6.37974739074707,
		213.87301635742188,
		-270.27130126953127],
		"max":[94.66822814941406,
		230.5018310546875,
		-0.2713070213794708]
	},
	{
		"bufferView":11,
		"type":"VEC3",
		"componentType":5126,
		"count":1514,
		"byteOffset":12,
		"min":[-0.9998750686645508,
		-0.9999688267707825,
		-1.0],
		"max":[0.9999688267707825,
		0.9999688267707825,
		1.0]
	},
	{
		"bufferView":11,
		"type":"VEC2",
		"componentType":5126,
		"count":1514,
		"byteOffset":24,
		"min":[0.0,
		0.0],
		"max":[1.0,
		1.0]
	},
	{
		"bufferView":12,
		"type":"SCALAR",
		"componentType":5123,
		"count":43200,
		"byteOffset":0,
		"min":[0],
		"max":[14393]
	},
	{
		"bufferView":13,
		"type":"VEC3",
		"componentType":5126,
		"count":14394,
		"byteOffset":0,
		"min":[-0.3907727301120758,
		34.196128845214847,
		-350.27130126953127],
		"max":[78.45879364013672,
		213.67845153808595,
		-0.2713070213794708]
	},
	{
		"bufferView":13,
		"type":"VEC3",
		"componentType":5126,
		"count":14394,
		"byteOffset":12,
		"min":[-1.0,
		-1.0,
		-1.0],
		"max":[1.0,
		1.0,
		1.0]
	},
	{
		"bufferView":13,
		"type":"VEC2",
		"componentType":5126,
		"count":14394,
		"byteOffset":24,
		"min":[0.0,
		0.0],
		"max":[1.0,
		1.0]
	},
	{
		"bufferView":14,
		"type":"SCALAR",
		"componentType":5123,
		"count":9336,
		"byteOffset":0,
		"min":[0],
		"max":[3121]
	},
	{
		"bufferView":15,
		"type":"VEC3",
		"componentType":5126,
		"count":3122,
		"byteOffset":0,
		"min":[-9.643675804138184,
		120.72636413574219,
		-340.27130126953127],
		"max":[51.369171142578128,
		148.4999237060547,
		-0.2713070213794708]
	},
	{
		"bufferView":15,
		"type":"VEC3",
		"componentType":5126,
		"count":3122,
		"byteOffset":12,
		"min":[-0.9999688267707825,
		-0.9999688267707825,
		-1.0],
		"max":[1.0,
		1.0,
		1.0]
	},
	{
		"bufferView":15,
		"type":"VEC2",
		"componentType":5126,
		"count":3122,
		"byteOffset":24,
		"min":[0.0,
		0.0],
		"max":[1.0,
		1.0]
	},
	{
		"bufferView":16,
		"type":"SCALAR",
		"componentType":5123,
		"count":29988,
		"byteOffset":0,
		"min":[0],
		"max":[10027]
	},
	{
		"bufferView":17,
		"type":"VEC3",
		"componentType":5126,
		"count":10028,
		"byteOffset":0,
		"min":[-56.634281158447269,
		117.559326171875,
		-350.3273010253906],
		"max":[94.60279083251953,
		257.425537109375,
		-0.2218209207057953]
	},
	{
		"bufferView":17,
		"type":"VEC3",
		"componentType":5126,
		"count":10028,
		"byteOffset":12,
		"min":[-0.9999688267707825,
		-1.0,
		-1.0],
		"max":[1.0,
		0.9999688267707825,
		1.0]
	},
	{
		"bufferView":17,
		"type":"VEC2",
		"componentType":5126,
		"count":10028,
		"byteOffset":24,
		"min":[0.0,
		0.0],
		"max":[1.0,
		1.0]
	},
	{
		"bufferView":18,
		"type":"SCALAR",
		"componentType":5123,
		"count":72240,
		"byteOffset":0,
		"min":[0],
		"max":[24117]
	},
	{
		"bufferView":19,
		"type":"VEC3",
		"componentType":5126,
		"count":24118,
		"byteOffset":0,
		"min":[-60.0620231628418,
		33.129268646240237,
		-350.27130126953127],
		"max":[97.21965026855469,
		254.74659729003907,
		-0.2713070213794708]
	},
	{
		"bufferView":19,
		"type":"VEC3",
		"componentType":5126,
		"count":24118,
		"byteOffset":12,
		"min":[-1.0,
		-1.0,
		-1.0],
		"max":[1.0,
		1.0,
		1.0]
	},
	{
		"bufferView":19,
		"type":"VEC2",
		"componentType":5126,
		"count":24118,
		"byteOffset":24,
		"min":[0.0,
		0.0],
		"max":[1.0,
		1.0]
	}],
	"bufferViews":[{
		"buffer":0,
		"byteOffset":0,
		"byteLength":3552,
		"target":34963
	},
	{
		"buffer":0,
		"byteOffset":3552,
		"byteLength":19328,
		"target":34962,
		"byteStride":32
	},
	{
		"buffer":1,
		"byteOffset":0,
		"byteLength":408,
		"target":34963
	},
	{
		"buffer":1,
		"byteOffset":408,
		"byteLength":3648,
		"target":34962,
		"byteStride":32
	},
	{
		"buffer":2,
		"byteOffset":0,
		"byteLength":144,
		"target":34963
	},
	{
		"buffer":2,
		"byteOffset":144,
		"byteLength":1536,
		"target":34962,
		"byteStride":32
	},
	{
		"buffer":3,
		"byteOffset":0,
		"byteLength":3360,
		"target":34963
	},
	{
		"buffer":3,
		"byteOffset":3360,
		"byteLength":21248,
		"target":34962,
		"byteStride":32
	},
	{
		"buffer":4,
		"byteOffset":0,
		"byteLength":336,
		"target":34963
	},
	{
		"buffer":4,
		"byteOffset":336,
		"byteLength":3072,
		"target":34962,
		"byteStride":32
	},
	{
		"buffer":5,
		"byteOffset":0,
		"byteLength":9048,
		"target":34963
	},
	{
		"buffer":5,
		"byteOffset":9048,
		"byteLength":48448,
		"target":34962,
		"byteStride":32
	},
	{
		"buffer":6,
		"byteOffset":0,
		"byteLength":86400,
		"target":34963
	},
	{
		"buffer":6,
		"byteOffset":86400,
		"byteLength":460608,
		"target":34962,
		"byteStride":32
	},
	{
		"buffer":7,
		"byteOffset":0,
		"byteLength":18672,
		"target":34963
	},
	{
		"buffer":7,
		"byteOffset":18672,
		"byteLength":99904,
		"target":34962,
		"byteStride":32
	},
	{
		"buffer":8,
		"byteOffset":0,
		"byteLength":59976,
		"target":34963
	},
	{
		"buffer":8,
		"byteOffset":59976,
		"byteLength":320896,
		"target":34962,
		"byteStride":32
	},
	{
		"buffer":9,
		"byteOffset":0,
		"byteLength":144480,
		"target":34963
	},
	{
		"buffer":9,
		"byteOffset":144480,
		"byteLength":771776,
		"target":34962,
		"byteStride":32
	}],
	"buffers":[{
		"uri":"data:application/octet-stream;base64,",
		"byteLength":22880
	},
	{
		"uri":"data:application/octet-stream;base64,",
		"byteLength":4056
	},
	{
		"uri":"data:application/octet-stream;base64,",
		"byteLength":1680
	},
	{
		"uri":"data:application/octet-stream;base64,",
		"byteLength":24608
	},
	{
		"uri":"data:application/octet-stream;base64,",
		"byteLength":3408
	},
	{
		"uri":"data:application/octet-stream;base64,",
		"byteLength":57496
	},
	{
		"uri":"data:application/octet-stream;base64,",
		"byteLength":547008
	},
	{
		"uri":"data:application/octet-stream;base64,",
		"byteLength":118576
	},
	{
		"uri":"data:application/octet-stream;base64,",
		"byteLength":380872
	},
	{
		"uri":"data:application/octet-stream;base64,",
		"byteLength":916256
	}],
	"materials":[{
		"pbrMetallicRoughness":{
			"baseColorFactor":[1.0,
			1.0,
			1.0,
			1.0],
			"metallicFactor":1.0,
			"roughnessFactor":1.0
		},
		"emissiveFactor":[0.0,
		0.0,
		0.0],
		"alphaMode":"OPAQUE",
		"doubleSided":false,
		"name":""
	},
	{
		"pbrMetallicRoughness":{
			"baseColorFactor":[1.0,
			1.0,
			1.0,
			1.0],
			"metallicFactor":1.0,
			"roughnessFactor":1.0
		},
		"emissiveFactor":[0.0,
		0.0,
		0.0],
		"alphaMode":"OPAQUE",
		"doubleSided":false,
		"name":""
	},
	{
		"pbrMetallicRoughness":{
			"baseColorFactor":[1.0,
			1.0,
			1.0,
			1.0],
			"metallicFactor":1.0,
			"roughnessFactor":1.0
		},
		"emissiveFactor":[0.0,
		0.0,
		0.0],
		"alphaMode":"OPAQUE",
		"doubleSided":false,
		"name":""
	},
	{
		"pbrMetallicRoughness":{
			"baseColorFactor":[1.0,
			1.0,
			1.0,
			1.0],
			"metallicFactor":1.0,
			"roughnessFactor":1.0
		},
		"emissiveFactor":[0.0,
		0.0,
		0.0],
		"alphaMode":"OPAQUE",
		"doubleSided":false,
		"name":""
	},
	{
		"pbrMetallicRoughness":{
			"baseColorFactor":[1.0,
			1.0,
			1.0,
			1.0],
			"metallicFactor":1.0,
			"roughnessFactor":1.0
		},
		"emissiveFactor":[0.0,
		0.0,
		0.0],
		"alphaMode":"OPAQUE",
		"doubleSided":false,
		"name":""
	},
	{
		"pbrMetallicRoughness":{
			"baseColorFactor":[1.0,
			1.0,
			1.0,
			1.0],
			"metallicFactor":1.0,
			"roughnessFactor":1.0
		},
		"emissiveFactor":[0.0,
		0.0,
		0.0],
		"alphaMode":"OPAQUE",
		"doubleSided":false,
		"name":""
	},
	{
		"pbrMetallicRoughness":{
			"baseColorFactor":[1.0,
			1.0,
			1.0,
			1.0],
			"metallicFactor":1.0,
			"roughnessFactor":1.0
		},
		"emissiveFactor":[0.0,
		0.0,
		0.0],
		"alphaMode":"OPAQUE",
		"doubleSided":false,
		"name":""
	},
	{
		"pbrMetallicRoughness":{
			"baseColorFactor":[1.0,
			1.0,
			1.0,
			1.0],
			"metallicFactor":1.0,
			"roughnessFactor":1.0
		},
		"emissiveFactor":[0.0,
		0.0,
		0.0],
		"alphaMode":"OPAQUE",
		"doubleSided":false,
		"name":""
	},
	{
		"pbrMetallicRoughness":{
			"baseColorFactor":[0.8,
			0.8,
			0.8,
			1.0],
			"metallicFactor":0.36,
			"roughnessFactor":0.61
		},
		"emissiveFactor":[0.0,
		0.0,
		0.0],
		"alphaMode":"OPAQUE",
		"doubleSided":false,
		"name":"Rubber - Black"
	},
	{
		"pbrMetallicRoughness":{
			"baseColorFactor":[0.9999999999999999,
			0.9999999999999999,
			0.9999999999999999,
			1.0],
			"metallicFactor":1.0,
			"roughnessFactor":0.25
		},
		"emissiveFactor":[0.0,
		0.0,
		0.0],
		"alphaMode":"OPAQUE",
		"doubleSided":false,
		"name":"Aluminium"
	}]
}