<?xml version="1.0" encoding="utf-8"?>
<!-- Generator: Adobe Illustrator 26.0.1, SVG Export Plug-In . SVG Version: 6.00 Build 0)  -->
<svg version="1.1" id="Capa_1" xmlns="http://www.w3.org/2000/svg" xmlns:xlink="http://www.w3.org/1999/xlink" x="0px" y="0px"
	 viewBox="0 0 612 612" style="enable-background:new 0 0 612 612;" xml:space="preserve">
<style type="text/css">
	.st0{fill:#FF0000;}
</style>
<g>
	<path class="st0" d="M34.9,436.2c0,25.2,20.5,45.8,45.8,45.8c8.8,0,17.1-2.5,24.1-6.9l155.6,89.8c0,0.4,0,0.9,0,1.3
		c0,25.2,20.5,45.8,45.8,45.8s45.8-20.5,45.8-45.8c0-0.5,0-0.9,0-1.4l155.5-89.8c7,4.4,15.3,6.9,24.1,6.9
		c25.2,0,45.8-20.5,45.8-45.8c0-17.4-9.8-32.6-24.1-40.3l0-179.6c14.3-7.7,24.1-22.9,24.1-40.3c0,0,0,0,0,0s0,0,0,0
		c0-25.2-20.5-45.8-45.8-45.8c-8.8,0-17.1,2.5-24.1,6.9L351.8,47.2c0-0.2,0-1.3,0-1.4C351.8,20.5,331.3,0,306,0
		s-45.8,20.5-45.8,45.8c0,0.1,0,1.1,0,1.4l-155.6,89.8c-7-4.3-15.2-6.9-24.1-6.9c-25.2,0-45.8,20.5-45.8,45.8c0,0,0,0,0,0s0,0,0,0
		c0,17.4,9.8,32.6,24.1,40.3l0,179.6C44.6,403.6,34.9,418.8,34.9,436.2z M507.3,214.8c0.8,0.5,1.6,1,2.4,1.4l0,179.6
		c-14.3,7.7-24.1,22.9-24.1,40.3c0,0.5,0,0.9,0,1.3L330,527.3c-0.8-0.5-1.5-0.9-2.3-1.4V346.3c14.3-7.7,24.1-22.9,24.1-40.3
		c0-0.5,0-0.9,0-1.4L507.3,214.8z M281.4,85c7.1,4.6,15.6,7.2,24.6,7.2c9,0,17.5-2.7,24.6-7.2l155,89.5c0,0.4,0,0.9,0,1.3
		c0,0,0,0,0,0s0,0,0,0c0,0.5,0,0.9,0,1.3L330,267.1c-7-4.3-15.2-6.8-24-6.8c-8.8,0-17.1,2.5-24.1,6.9l-155.6-89.8c0-0.4,0-0.9,0-1.3
		c0,0,0,0,0,0s0,0,0,0c0-0.5,0-0.9,0-1.4L281.4,85z M102.3,216.2c0.8-0.4,1.6-0.9,2.4-1.4l155.6,89.8c0,0.4,0,0.9,0,1.3
		c0,17.4,9.8,32.6,24.1,40.3v179.6c-0.8,0.4-1.6,0.9-2.4,1.4l-155.6-89.8c0-0.4,0-0.9,0-1.3c0-17.4-9.8-32.6-24.1-40.3L102.3,216.2z
		"/>
</g>
</svg>
