<?xml version="1.0" encoding="iso-8859-1"?>
<!-- Generator: Adobe Illustrator 16.0.0, SVG Export Plug-In . SVG Version: 6.00 Build 0)  -->
<!DOCTYPE svg PUBLIC "-//W3C//DTD SVG 1.1//EN" "http://www.w3.org/Graphics/SVG/1.1/DTD/svg11.dtd">
<svg version="1.1" id="Capa_1" xmlns="http://www.w3.org/2000/svg" xmlns:xlink="http://www.w3.org/1999/xlink" x="0px" y="0px"
	 width="429.736px" height="429.736px" viewBox="0 0 429.736 429.736" style="enable-background:new 0 0 429.736 429.736;"
	 xml:space="preserve">
<g>
	<path d="M0,0v429.736h102.895V145.263h-6.052c-26.699,0-48.421-21.723-48.421-48.421s21.722-48.421,48.421-48.421
		c26.699,0,48.421,21.722,48.421,48.421v6.053h284.473V0H0z M417.631,90.79H368.2V39.531h-12.105V90.79h-18.158v-24.53h-12.105
		v24.53h-20.173v-24.53h-12.105v24.53h-19.169V39.531h-12.104V90.79h-18.543v-24.53h-12.104v24.53H211.46v-24.53h-12.105v24.53
		h-42.289c-3.047-30.541-28.892-54.474-60.225-54.474c-33.375,0-60.526,27.151-60.526,60.526c0,31.333,23.933,57.181,54.474,60.225
		v42.67h-47.41v12.105h47.41V230H70.108v12.105H90.79v20.173H70.108v12.105H90.79v19.169h-47.41v12.105h47.41v18.536H70.108v12.105
		H90.79v20.179H70.108v12.105H90.79v49.048H12.105V12.105h405.526V90.79z"/>
</g>
<g>
</g>
<g>
</g>
<g>
</g>
<g>
</g>
<g>
</g>
<g>
</g>
<g>
</g>
<g>
</g>
<g>
</g>
<g>
</g>
<g>
</g>
<g>
</g>
<g>
</g>
<g>
</g>
<g>
</g>
</svg>
