<?xml version="1.0" encoding="utf-8"?>
<!-- Generator: Adobe Illustrator 26.0.1, SVG Export Plug-In . SVG Version: 6.00 Build 0)  -->
<svg version="1.1" id="Outline" xmlns="http://www.w3.org/2000/svg" xmlns:xlink="http://www.w3.org/1999/xlink" x="0px" y="0px"
	 viewBox="0 0 512 512" style="enable-background:new 0 0 512 512;" xml:space="preserve">
<style type="text/css">
	.st0{fill:#646464;}
</style>
<path class="st0" d="M223.6,405.3c-5.6,0-11-2.2-14.9-6.2l-97.9-97.9c-25-25-25-65.5,0-90.5l97.9-97.9c8.3-8.3,21.8-8.3,30.1,0
	c8.4,8.3,8.4,21.8,0.1,30.2c0,0-0.1,0.1-0.1,0.1l-97.9,97.7c-8.4,8.3-8.4,21.8-0.1,30.2c0,0,0.1,0.1,0.1,0.1l97.9,97.7
	c8.4,8.3,8.4,21.8,0.1,30.2c0,0-0.1,0.1-0.1,0.1C234.7,403.1,229.2,405.4,223.6,405.3z"/>
<path class="st0" d="M372.9,405.3c-5.6,0-11-2.2-14.9-6.2l-128-128c-8.4-8.3-8.4-21.8-0.1-30.2c0,0,0.1-0.1,0.1-0.1l128-128
	c8.3-8.3,21.8-8.3,30.1,0c8.4,8.3,8.4,21.8,0.1,30.2c0,0-0.1,0.1-0.1,0.1L275.2,256l112.9,112.9c8.4,8.3,8.4,21.8,0.1,30.2
	c0,0-0.1,0.1-0.1,0.1C384,403.1,378.6,405.4,372.9,405.3z"/>
</svg>
