<svg id="Layer_1" data-name="Layer 1" xmlns="http://www.w3.org/2000/svg" viewBox="0 0 497.87 464.54"><defs><style>.cls-1{fill:none;stroke:#231f20;stroke-linecap:round;stroke-linejoin:round;stroke-width:25px;}</style></defs><path class="cls-1" d="M169.66,60.11l142.33,79L456.7,58.21" transform="translate(-1.06 -17.73)"/><line class="cls-1" x1="170.73" y1="217.09" x2="284.03" y2="156.63"/><line class="cls-1" x1="451.46" y1="217.09" x2="338.16" y2="156.63"/><path class="cls-1" d="M141.79,261.67c-6.62-8.6-12.13-16.69-16.68-23.88,5.55-5.49,11.13-11,16.68-16.5l25.69-25.39-25.69-26.52V30.23H486.44V268.71" transform="translate(-1.06 -17.73)"/><path class="cls-1" d="M141.79,261.67c10,12.23,27.7,32.3,42.35,45.14a319.06,319.06,0,0,0,78.07,50.47q23.07-24.75,46.17-49.52l99.49,82.36-43,56a74.78,74.78,0,0,1-64.58,23.06,524.27,524.27,0,0,1-167.08-95.2A522.73,522.73,0,0,1,28.48,253c-5-8.05-16.36-28.8-14.76-56.65a95.1,95.1,0,0,1,10-37.14l55.21-54.73q31.44,32.43,62.86,64.87l25.69,26.52-25.69,25.39c-5.55,5.51-11.13,11-16.68,16.5,4.55,7.19,10.06,15.28,16.68,23.88" transform="translate(-1.06 -17.73)"/><line class="cls-1" x1="485.3" y1="250.87" x2="147.88" y2="250.87"/></svg>