<?xml version="1.0" encoding="iso-8859-1"?>
<!-- Generator: Adobe Illustrator 19.0.0, SVG Export Plug-In . SVG Version: 6.00 Build 0)  -->
<svg version="1.1" id="Layer_1" xmlns="http://www.w3.org/2000/svg" xmlns:xlink="http://www.w3.org/1999/xlink" x="0px" y="0px"
	 viewBox="0 0 488 488" style="enable-background:new 0 0 488 488;" xml:space="preserve">
<g transform="translate(0 -540.36)">
	<g>
		<g>
			<path d="M284.98,746.318c-7.696-15.097-18.491-23.395-30.685-23.395c-12.194,0-23.089,8.298-30.685,23.395
				c-6.497,12.897-10.095,29.794-10.095,47.59c0,40.492,17.591,71.085,40.78,71.085c23.189,0,40.78-30.494,40.78-71.085
				C295.075,776.212,291.477,759.215,284.98,746.318z M254.295,845.097c-8.496,0-20.79-19.896-20.79-51.09
				c0-30.694,12.494-51.09,20.79-51.09s20.79,20.296,20.79,51.09C275.085,825.201,262.791,845.097,254.295,845.097z"/>
			<path d="M192.725,844.997L192.725,844.997l-20.79,0V732.82c0-3.999-2.399-7.598-5.997-9.198c-3.698-1.6-7.896-0.8-10.795,1.9
				l-30.785,28.994c-3.998,3.799-4.198,10.098-0.4,14.097s10.095,4.199,14.093,0.4l13.893-13.097v88.982h-20.79
				c-5.497,0-9.995,4.499-9.995,9.998c0,5.499,4.498,9.998,9.995,9.998h61.47c5.497,0,9.995-4.499,9.995-9.998
				C202.62,849.397,198.322,844.997,192.725,844.997z"/>
			<path d="M448.8,631.341c0-5.499-4.498-9.998-9.995-9.998H408.02v-41.192c0-5.499-4.498-9.998-9.995-9.998H325.76v-19.796
				c0-5.499-4.498-9.998-9.995-9.998s-9.995,4.499-9.995,9.998v19.796H141.25v-19.796c0-5.499-4.498-9.998-9.995-9.998
				s-9.995,4.499-9.995,9.998v19.796H48.995c-5.497,0-9.995,4.499-9.995,9.998v387.021c0,5.499,4.498,9.998,9.995,9.998H80.48
				v38.892c0,5.499,4.498,9.998,9.995,9.998c82.76,0,251.078,2.3,252.777,2.3h0.1c0.3,0,0.6,0,1,0c0.2,0,0.3,0,0.5-0.1
				c0.2,0,0.3,0,0.5-0.1c0.2,0,0.4-0.1,0.5-0.1c0.1,0,0.3-0.1,0.4-0.1c0.2-0.1,0.4-0.1,0.6-0.2c0.1,0,0.2-0.1,0.4-0.1
				c0.2-0.1,0.3-0.1,0.5-0.2c0.1-0.1,0.2-0.1,0.4-0.2c0.2-0.1,0.3-0.2,0.5-0.3c0.1-0.1,0.3-0.1,0.4-0.2c0.1-0.1,0.3-0.2,0.4-0.3
				c0.1-0.1,0.3-0.2,0.4-0.3c0.1-0.1,0.2-0.2,0.4-0.3c0.1-0.1,0.2-0.1,0.2-0.2l95.353-89.282l0.1-0.1c0.1-0.1,0.3-0.3,0.4-0.4
				c0.1-0.1,0.2-0.2,0.3-0.3c0.1-0.2,0.3-0.3,0.4-0.5c0.1-0.1,0.1-0.2,0.2-0.3c0.1-0.2,0.3-0.4,0.4-0.6c0-0.1,0.1-0.1,0.1-0.2
				c0.1-0.3,0.3-0.5,0.4-0.8c0,0,0,0,0-0.1c0.4-0.9,0.7-1.9,0.8-2.899c0-0.3,0.1-0.7,0.1-1V631.341L448.8,631.341z M58.99,590.25
				h62.27v41.192c0,5.499,4.498,9.998,9.995,9.998c5.497,0,9.995-4.499,9.995-9.998V590.25h164.52v41.192
				c0,5.499,4.498,9.998,9.995,9.998s9.995-4.499,9.995-9.998V590.25h62.27v71.585H58.99V590.25z M58.99,957.274V681.831H388.03
				v186.162l-85.358,0.2c-5.497,0-9.995,4.499-9.995,9.998v79.084H58.99z M333.556,1008.164c-36.082-0.5-159.922-2-232.986-2.1
				V977.17l-0.1,0h202.201c0.3,0,0.7,0,1,0c0.2,0,0.3,0,0.5-0.1c0.2,0,0.3,0,0.5-0.1c0.2,0,0.4-0.1,0.5-0.1c0.1,0,0.3-0.1,0.4-0.1
				c0.2-0.1,0.4-0.1,0.5-0.2c0.1,0,0.2-0.1,0.4-0.1c0.2-0.1,0.3-0.1,0.5-0.2c0.1-0.1,0.2-0.1,0.4-0.2s0.3-0.2,0.5-0.3
				c0.1-0.1,0.3-0.1,0.4-0.2c0.1-0.1,0.3-0.2,0.4-0.3c0.1-0.1,0.3-0.2,0.4-0.3c0.1-0.1,0.2-0.2,0.4-0.3c0.1-0.1,0.2-0.1,0.2-0.2
				l24.088-22.595L333.556,1008.164z M312.666,944.177v-56.088l59.971-0.1L312.666,944.177z M353.447,995.367l0.2-56.488l59.871,0.2
				L353.447,995.367z M368.939,918.782l35.982-33.693l0.1-0.1c0.1-0.1,0.3-0.3,0.4-0.4s0.2-0.2,0.3-0.3c0.1-0.1,0.2-0.3,0.4-0.5
				c0.1-0.1,0.2-0.2,0.2-0.3c0.1-0.2,0.2-0.4,0.3-0.5s0.1-0.2,0.2-0.3c0.1-0.2,0.2-0.4,0.3-0.7c0-0.1,0.1-0.1,0.1-0.2
				c0.1-0.3,0.2-0.5,0.3-0.8v-0.1c0.1-0.3,0.2-0.6,0.2-0.9v-0.1c0.1-0.3,0.1-0.6,0.1-0.8c0-0.1,0-0.1,0-0.2c0-0.2,0-0.5,0-0.7
				c0-0.1,0-0.2,0-0.3V641.339h20.99v277.643L368.939,918.782z"/>
		</g>
	</g>
</g>
<g>
</g>
<g>
</g>
<g>
</g>
<g>
</g>
<g>
</g>
<g>
</g>
<g>
</g>
<g>
</g>
<g>
</g>
<g>
</g>
<g>
</g>
<g>
</g>
<g>
</g>
<g>
</g>
<g>
</g>
</svg>
