<?xml version="1.0" encoding="iso-8859-1"?>
<!-- Generator: Adobe Illustrator 16.0.0, SVG Export Plug-In . SVG Version: 6.00 Build 0)  -->
<!DOCTYPE svg PUBLIC "-//W3C//DTD SVG 1.1//EN" "http://www.w3.org/Graphics/SVG/1.1/DTD/svg11.dtd">
<svg version="1.1" id="Capa_1" xmlns="http://www.w3.org/2000/svg" xmlns:xlink="http://www.w3.org/1999/xlink" x="0px" y="0px"
	 width="374.426px" height="374.425px" viewBox="0 0 374.426 374.425" style="enable-background:new 0 0 374.426 374.425;"
	 xml:space="preserve">
<g>
	<g>
		<path d="M276.27,0c-54.108,0-98.13,44.018-98.13,98.13c0,10.878,1.852,21.313,5.131,31.096L7.385,305.093
			c-1.272,1.271-1.969,2.957-2.125,4.721c-9.101,16.819-6.171,38.07,7.55,51.78c8.265,8.279,19.266,12.831,30.954,12.831
			c7.301,0,14.398-1.799,20.75-5.213c1.804-0.169,3.522-0.95,4.845-2.269l5.093-5.081c0.165-0.164,0.337-0.325,0.503-0.501
			l170.222-170.224c9.79,3.282,20.214,5.13,31.094,5.13c54.116,0,98.13-44.022,98.13-98.13C374.399,44.025,330.386,0,276.27,0z
			 M63.726,350.377c-0.006,0.016-0.022,0.032-0.038,0.036c-0.064,0.063-0.118,0.124-0.172,0.172l-2.725,2.722
			c-0.549,0.192-1.092,0.48-1.595,0.805c-10.776,7.113-26.068,5.595-35.286-3.618c-9.351-9.338-10.888-24.148-3.653-35.205
			c0.323-0.485,0.561-1.014,0.733-1.571l167.448-167.45c4.256,7.363,9.409,14.09,15.412,20.097
			c7.507,7.514,16.062,13.651,25.548,18.346L63.726,350.377z M276.27,180.559c-10.647,0-20.814-2.104-30.168-5.795
			c-0.108-0.046-0.2-0.12-0.305-0.158c-1.146-0.399-2.196-0.924-3.306-1.373c-28.642-12.928-48.65-41.701-48.65-75.103
			c0-45.455,36.973-82.429,82.429-82.429c45.452,0,82.429,36.974,82.429,82.429C358.698,143.584,321.722,180.559,276.27,180.559z"/>
		<path d="M314.74,65.203c-0.737-2.707-2.845-4.825-5.554-5.55l-42.194-11.305c-2.745-0.728-5.603,0.058-7.582,2.036l-30.89,30.889
			c-1.983,1.982-2.757,4.875-2.031,7.584l11.301,42.205c0.737,2.711,2.846,4.827,5.551,5.55l42.197,11.297
			c0.674,0.18,1.363,0.268,2.04,0.268c2.052,0,4.056-0.809,5.551-2.3l30.885-30.883c1.987-1.982,2.761-4.877,2.032-7.586
			L314.74,65.203z M285.229,131.572l-33.438-8.958l-8.965-33.448l24.474-24.479l33.438,8.958l8.973,33.448L285.229,131.572z"/>
		<path d="M45.419,309.337c-10.818,0-19.626,8.804-19.626,19.628s8.809,19.625,19.626,19.625c10.816,0,19.625-8.801,19.625-19.625
			S56.235,309.337,45.419,309.337z M45.419,332.889c-2.166,0-3.925-1.764-3.925-3.924c0-2.155,1.759-3.927,3.925-3.927
			s3.925,1.771,3.925,3.927C49.345,331.125,47.585,332.889,45.419,332.889z"/>
	</g>
</g>
<g>
</g>
<g>
</g>
<g>
</g>
<g>
</g>
<g>
</g>
<g>
</g>
<g>
</g>
<g>
</g>
<g>
</g>
<g>
</g>
<g>
</g>
<g>
</g>
<g>
</g>
<g>
</g>
<g>
</g>
</svg>
