<?xml version="1.0" encoding="iso-8859-1"?>
<!-- Generator: Adobe Illustrator 16.0.0, SVG Export Plug-In . SVG Version: 6.00 Build 0)  -->
<!DOCTYPE svg PUBLIC "-//W3C//DTD SVG 1.1//EN" "http://www.w3.org/Graphics/SVG/1.1/DTD/svg11.dtd">
<svg version="1.1" id="Capa_1" xmlns="http://www.w3.org/2000/svg" xmlns:xlink="http://www.w3.org/1999/xlink" x="0px" y="0px"
	 width="215.815px" height="215.816px" viewBox="0 0 215.815 215.816" style="enable-background:new 0 0 215.815 215.816;"
	 xml:space="preserve">
<g>
	<g>
		<path d="M177.261,197.303c-8.969,0-14.435-2.07-16.714-6.321c-2.327-4.342-0.089-8.812,0.719-10.174
			c9.767-25.07,0.247-35.029,0.151-35.121c-0.969-0.921-1.335-2.304-0.945-3.576c6.447-20.902-4.973-29.287-7.59-30.893
			l-37.761-2.494c-0.731-0.048-1.434-0.329-2.002-0.796L87.398,86.625c-0.33,1.538-1.671,2.708-3.306,2.765
			c0,0-8.039,0.275-9.016,0.275c-10.938,0-19.835-8.514-19.835-18.983c0-9.243,6.925-17.097,16.457-18.666
			c0.165-0.029,0.329-0.046,0.493-0.05l11.705-0.267c0.767-0.081,1.85,0.337,2.529,0.999c0.291,0.284,0.527,0.618,0.702,0.974
			c16.909-7.316,34.324-11.024,51.797-11.024c24.489,0,41.241,7.258,45.016,9.06c17.651,0.385,31.874,13.025,31.874,28.503
			c0,9.199-4.936,17.598-13.34,22.959l0.314,0.965c11.287,34.696,13.073,58.189,5.482,71.823c-0.444,0.79-0.869,1.632-1.307,2.494
			c-1.574,3.107-3.361,6.633-6.506,9.771c-7.457,7.443-22.22,8.997-22.85,9.059C177.497,197.296,177.378,197.303,177.261,197.303z
			 M167.706,142.35c3.148,4.394,9.459,17.214-0.027,41.309c-0.092,0.229-0.208,0.452-0.342,0.661
			c-0.267,0.41-1.198,2.282-0.605,3.367c0.684,1.245,3.764,2.58,10.349,2.607c3.72-0.41,13.787-2.398,18.428-7.029
			c2.354-2.351,3.806-5.208,5.205-7.98c0.482-0.947,0.948-1.865,1.427-2.73c6.506-11.677,4.483-33.962-6.016-66.243l-1.197-3.658
			c-0.534-1.625,0.191-3.401,1.707-4.193c7.614-3.975,12.162-10.794,12.162-18.244c0-11.858-11.529-21.507-25.696-21.507
			c-0.562,0-1.116-0.135-1.615-0.392c-0.168-0.084-17.022-8.655-42.565-8.655c-16.398,0-32.767,3.465-48.687,10.306
			c-0.041,1.366-0.873,2.589-2.137,3.126c-1.3,0.549-2.796,0.265-3.805-0.712c-0.585-0.568-1.293-1.109-2.173-1.658
			c-0.725-0.452-1.247-1.146-1.492-1.938l-8.015,0.183c-6.02,1.097-10.362,5.989-10.362,11.714c0,6.603,5.754,11.974,12.826,11.974
			c0.539,0,3.294-0.087,5.578-0.164c0.256-0.756,0.768-1.412,1.464-1.85c0.88-0.548,1.588-1.09,2.173-1.658
			c1.009-0.98,2.505-1.268,3.805-0.712c0.418,0.176,0.789,0.428,1.097,0.732l27.524,22.8l37.415,2.467
			c0.455,0.031,0.899,0.147,1.308,0.349C155.644,104.718,175.276,114.671,167.706,142.35z"/>
	</g>
	<g>
		<path d="M137.544,81.771H119.44c-1.938,0-3.505-1.565-3.505-3.504c0-1.937,1.567-3.504,3.505-3.504h18.104
			c1.937,0,3.504,1.567,3.504,3.504C141.048,80.206,139.48,81.771,137.544,81.771z"/>
	</g>
	<g>
		<path d="M137.544,92.284H119.44c-1.938,0-3.505-1.565-3.505-3.504c0-1.937,1.567-3.504,3.505-3.504h18.104
			c1.937,0,3.504,1.567,3.504,3.504C141.048,90.718,139.48,92.284,137.544,92.284z"/>
	</g>
	<g>
		<path d="M137.544,102.797H119.44c-1.938,0-3.505-1.566-3.505-3.504c0-1.937,1.567-3.504,3.505-3.504h18.104
			c1.937,0,3.504,1.567,3.504,3.504C141.048,101.231,139.48,102.797,137.544,102.797z"/>
	</g>
	<g>
		<path d="M58.747,74.184H3.504C1.567,74.184,0,72.619,0,70.68c0-1.937,1.567-3.504,3.504-3.504h55.242
			c1.938,0,3.504,1.567,3.504,3.504C62.251,72.619,60.685,74.184,58.747,74.184z"/>
	</g>
	<g>
		<path d="M164.764,143.178c-0.315,0-0.63-0.041-0.948-0.13l-11.734-3.292c-1.787-0.5-2.868-2.3-2.478-4.117
			c3.347-15.444-7.095-25.857-7.2-25.957c-1.39-1.355-1.414-3.576-0.065-4.957c1.358-1.388,3.576-1.406,4.955-0.063
			c0.517,0.505,11.879,11.834,9.716,29.198l8.695,2.439c1.862,0.521,2.953,2.458,2.427,4.319
			C167.703,142.166,166.293,143.178,164.764,143.178z"/>
	</g>
	<g>
		<path d="M36.213,198.874H14.898c-1.938,0-3.504-1.563-3.504-3.504V20.446c0-1.937,1.566-3.504,3.504-3.504h21.315
			c1.938,0,3.504,1.567,3.504,3.504V195.37C39.719,197.31,38.152,198.874,36.213,198.874z M18.403,191.866h14.308V23.95H18.403
			V191.866z"/>
	</g>
</g>
<g>
</g>
<g>
</g>
<g>
</g>
<g>
</g>
<g>
</g>
<g>
</g>
<g>
</g>
<g>
</g>
<g>
</g>
<g>
</g>
<g>
</g>
<g>
</g>
<g>
</g>
<g>
</g>
<g>
</g>
</svg>
