<svg id="Layer_1" data-name="Layer 1" xmlns="http://www.w3.org/2000/svg" xmlns:xlink="http://www.w3.org/1999/xlink" viewBox="0 0 1030.6 1368.28"><defs><style>.cls-1,.cls-3{fill:none;}.cls-2{clip-path:url(#clip-path);}.cls-3{stroke:#000;stroke-linecap:round;stroke-linejoin:round;stroke-width:60px;}</style><clipPath id="clip-path" transform="translate(-18.7 -35.86)"><rect class="cls-1" width="1068" height="1440"/></clipPath></defs><g class="cls-2"><line class="cls-3" x1="433.76" y1="569.93" x2="433.27" y2="413.93"/><line class="cls-3" x1="487.49" y1="412.64" x2="487.72" y2="569.49"/><line class="cls-3" x1="828.75" y1="404" x2="497.2" y2="403.33"/><line class="cls-3" x1="837.24" y1="472.98" x2="837.64" y2="414.36"/><line class="cls-3" x1="853.82" y1="472.66" x2="837.24" y2="472.98"/><line class="cls-3" x1="854" y1="410.54" x2="853.82" y2="472.66"/><line class="cls-3" x1="433.27" y1="413.93" x2="450.48" y2="413.95"/><line class="cls-3" x1="364.72" y1="367.88" x2="280.47" y2="368.11"/><line class="cls-3" x1="378.48" y1="173.35" x2="378.64" y2="254.71"/><line class="cls-3" x1="360.4" y1="170.7" x2="375.97" y2="170.71"/><line class="cls-3" x1="335.83" y1="98.59" x2="335.47" y2="141.93"/><line class="cls-3" x1="417.07" y1="396.1" x2="416.81" y2="600"/><line class="cls-3" x1="402.4" y1="395.12" x2="324.22" y2="596.99"/><line class="cls-3" x1="453.44" y1="618.83" x2="504.72" y2="618.57"/><line class="cls-3" x1="454.16" y1="631.89" x2="451.26" y2="624.52"/><line class="cls-3" x1="505.47" y1="693.88" x2="460.07" y2="694.3"/><line class="cls-3" x1="507.94" y1="622.01" x2="507.94" y2="691.78"/><line class="cls-3" x1="938.32" y1="853.31" x2="966.14" y2="853.06"/><line class="cls-3" x1="966.21" y1="880.76" x2="938.06" y2="880.61"/><line class="cls-3" x1="912.38" y1="880.51" x2="911.23" y2="880.56"/><line class="cls-3" x1="911.11" y1="854.28" x2="912.55" y2="854.31"/><line class="cls-3" x1="911.31" y1="825.08" x2="911.11" y2="854.28"/><line class="cls-3" x1="965.11" y1="813.17" x2="870.12" y2="813.2"/><line class="cls-3" x1="871.96" y1="707.18" x2="912.36" y2="707.14"/><line class="cls-3" x1="913.88" y1="491.53" x2="913.99" y2="704.97"/><line class="cls-3" x1="968.42" y1="704.4" x2="968.93" y2="493.46"/><line class="cls-3" x1="924.64" y1="493.35" x2="924.95" y2="702.89"/><line class="cls-3" x1="968.42" y1="475.07" x2="968.57" y2="399.52"/><line class="cls-3" x1="914.28" y1="400.18" x2="913.9" y2="475.63"/><line class="cls-3" x1="428.21" y1="602.49" x2="428.11" y2="400.48"/><line class="cls-3" x1="505.69" y1="607.88" x2="438.36" y2="608.21"/><line class="cls-3" x1="509.18" y1="597.41" x2="509.18" y2="604.69"/><line class="cls-3" x1="632.16" y1="545.58" x2="620.45" y2="545.5"/><line class="cls-3" x1="634.21" y1="562" x2="634.08" y2="547.72"/><line class="cls-3" x1="653.37" y1="564.52" x2="636.82" y2="564.39"/><line class="cls-3" x1="762.74" y1="543.06" x2="762.57" y2="568.15"/><line class="cls-3" x1="821.16" y1="489.96" x2="857.17" y2="489.85"/><line class="cls-3" x1="859.47" y1="377.98" x2="859.39" y2="475.65"/><line class="cls-3" x1="518.57" y1="375.35" x2="566.51" y2="375.27"/><line class="cls-3" x1="486.77" y1="384.47" x2="518.57" y2="375.35"/><line class="cls-3" x1="432.71" y1="396.34" x2="443.73" y2="395.79"/><line class="cls-3" x1="1000.49" y1="910.79" x2="1000.6" y2="313.05"/><line class="cls-3" x1="843.46" y1="939.71" x2="968.38" y2="939.39"/><line class="cls-3" x1="838.98" y1="895.94" x2="838.56" y2="934.49"/><line class="cls-3" x1="854.78" y1="907.9" x2="854.83" y2="892.64"/><line class="cls-3" x1="883.55" y1="911.26" x2="857.77" y2="911.29"/><line class="cls-3" x1="887.6" y1="841.09" x2="887.51" y2="907.5"/><line class="cls-3" x1="840.97" y1="854.84" x2="855.41" y2="854.84"/><line class="cls-3" x1="838.57" y1="727.34" x2="839.28" y2="850.67"/><line class="cls-3" x1="711.68" y1="679.64" x2="711.1" y2="695.75"/><line class="cls-3" x1="749.66" y1="680.76" x2="717.37" y2="675.87"/><line class="cls-3" x1="538.78" y1="594.53" x2="750.64" y2="594.31"/><line class="cls-3" x1="378.64" y1="254.71" x2="361.9" y2="299.04"/><line class="cls-3" x1="545.49" y1="680.18" x2="538.47" y2="680.69"/><line class="cls-3" x1="572.32" y1="675.68" x2="545.49" y2="680.18"/><line class="cls-3" x1="578.23" y1="696.25" x2="578.01" y2="680.35"/><line class="cls-3" x1="559.91" y1="699.19" x2="575.4" y2="699.15"/><line class="cls-3" x1="912.78" y1="905.93" x2="965.63" y2="905.94"/><line class="cls-3" x1="556.97" y1="721.27" x2="556.86" y2="702.17"/><line class="cls-3" x1="424.67" y1="671.2" x2="433.48" y2="717.33"/><line class="cls-3" x1="278.48" y1="114.86" x2="278.42" y2="365.29"/><line class="cls-3" x1="424.54" y1="636.9" x2="424.67" y2="671.2"/><line class="cls-3" x1="362" y1="631.56" x2="420.86" y2="631.38"/><line class="cls-3" x1="856" y1="478.5" x2="821.28" y2="478.35"/><line class="cls-3" x1="277.92" y1="632.15" x2="338.43" y2="631.5"/><line class="cls-3" x1="250.34" y1="690.8" x2="268.7" y2="690.8"/><line class="cls-3" x1="407.66" y1="87.26" x2="408.05" y2="49.04"/><line class="cls-3" x1="870.37" y1="722.99" x2="965.36" y2="722.85"/><line class="cls-3" x1="859.7" y1="492.79" x2="859.94" y2="697.31"/><line class="cls-3" x1="383.84" y1="71.1" x2="387.93" y2="71.07"/><line class="cls-3" x1="872.6" y1="489.78" x2="912.21" y2="489.86"/><line class="cls-3" x1="360.83" y1="78.5" x2="383.84" y2="71.1"/><line class="cls-3" x1="677.28" y1="564.52" x2="672.52" y2="549.83"/><line class="cls-3" x1="392.19" y1="128.62" x2="392.19" y2="141.38"/><line class="cls-3" x1="235.52" y1="1315.6" x2="204.18" y2="1315.61"/><line class="cls-3" x1="404.09" y1="128.8" x2="392.19" y2="128.62"/><line class="cls-3" x1="927.65" y1="396.99" x2="966.2" y2="396.57"/><line class="cls-3" x1="515.93" y1="345.49" x2="441.79" y2="366.21"/><line class="cls-3" x1="515.93" y1="345.49" x2="854.88" y2="346.24"/><line class="cls-3" x1="611.12" y1="564.47" x2="539.57" y2="564.82"/><line class="cls-3" x1="854.45" y1="295.72" x2="850.28" y2="313.45"/><line class="cls-3" x1="460.07" y1="694.3" x2="453.96" y2="670.29"/><line class="cls-3" x1="951.4" y1="292.84" x2="992.03" y2="292.89"/><line class="cls-3" x1="952.32" y1="313.16" x2="966.53" y2="313.16"/><line class="cls-3" x1="537.83" y1="679.83" x2="537.82" y2="596.32"/><line class="cls-3" x1="1000.49" y1="301.4" x2="1000.6" y2="313.05"/><line class="cls-3" x1="295.24" y1="957.99" x2="294.98" y2="1046.58"/><line class="cls-3" x1="850.28" y1="313.45" x2="865.53" y2="313.24"/><line class="cls-3" x1="911.71" y1="478.3" x2="872.74" y2="478.11"/><line class="cls-3" x1="650.79" y1="1200.57" x2="651.52" y2="960.63"/><line class="cls-3" x1="927.9" y1="707.11" x2="965.99" y2="707.08"/><line class="cls-3" x1="878.42" y1="272.48" x2="890.44" y2="272.88"/><line class="cls-3" x1="315.29" y1="1218.97" x2="631.05" y2="1218.85"/><line class="cls-3" x1="494.14" y1="387.09" x2="829.75" y2="387.25"/><line class="cls-3" x1="913.92" y1="855.73" x2="913.86" y2="879.1"/><line class="cls-3" x1="438.11" y1="723.44" x2="554.56" y2="723.31"/><line class="cls-3" x1="295.18" y1="1111.4" x2="294.79" y2="1200.13"/><line class="cls-3" x1="516.04" y1="914.81" x2="515.81" y2="929.01"/><line class="cls-3" x1="965.76" y1="367.73" x2="895.36" y2="367.84"/><line class="cls-3" x1="311.34" y1="1111.13" x2="295.18" y2="1111.4"/><line class="cls-3" x1="781.66" y1="689.1" x2="781.76" y2="591.49"/><line class="cls-3" x1="629.27" y1="1202.19" x2="316.38" y2="1202.9"/><line class="cls-3" x1="281.21" y1="378.8" x2="381.14" y2="378.45"/><line class="cls-3" x1="783.98" y1="375.06" x2="856.74" y2="375.23"/><line class="cls-3" x1="66.3" y1="670.36" x2="114.62" y2="657.08"/><line class="cls-3" x1="612.01" y1="1315.85" x2="580.19" y2="1315.6"/><line class="cls-3" x1="66.9" y1="928.83" x2="149.66" y2="928.24"/><line class="cls-3" x1="277.98" y1="381.96" x2="277.92" y2="600.03"/><line class="cls-3" x1="392.2" y1="89.36" x2="405.66" y2="89.66"/><line class="cls-3" x1="364.7" y1="913.58" x2="364.84" y2="927.76"/><line class="cls-3" x1="63.18" y1="676.19" x2="62.76" y2="923.94"/><line class="cls-3" x1="103.21" y1="1078.82" x2="65.58" y2="1078.62"/><line class="cls-3" x1="748.42" y1="150.14" x2="754.27" y2="154.92"/><line class="cls-3" x1="119.79" y1="1233.2" x2="201.66" y2="1233.42"/><line class="cls-3" x1="870.26" y1="491.9" x2="869.93" y2="704.64"/><line class="cls-3" x1="205.35" y1="1082.86" x2="205.22" y2="1228.61"/><line class="cls-3" x1="62.81" y1="1081.27" x2="63.13" y2="1229.34"/><line class="cls-3" x1="106.21" y1="1082.87" x2="106.01" y2="1228.76"/><line class="cls-3" x1="376.21" y1="914.96" x2="376.17" y2="927.48"/><line class="cls-3" x1="121.7" y1="1078.51" x2="201.03" y2="1078.39"/><line class="cls-3" x1="754.27" y1="154.92" x2="762.22" y2="160.62"/><line class="cls-3" x1="116.59" y1="1083.28" x2="115.79" y2="1227.87"/><line class="cls-3" x1="645.26" y1="918.85" x2="645.23" y2="926.27"/><line class="cls-3" x1="166.24" y1="938.79" x2="173.71" y2="945.14"/><line class="cls-3" x1="66.14" y1="938.96" x2="166.24" y2="938.79"/><line class="cls-3" x1="63.88" y1="940.83" x2="63.28" y2="1064.57"/><line class="cls-3" x1="358.87" y1="142.07" x2="358.77" y2="82.42"/><line class="cls-3" x1="199.09" y1="955.6" x2="203.08" y2="956.38"/><line class="cls-3" x1="450.48" y1="413.95" x2="449.99" y2="570.55"/><line class="cls-3" x1="618.06" y1="547.28" x2="613.91" y2="562.14"/><line class="cls-3" x1="311" y1="1197.44" x2="311.34" y2="1111.13"/><line class="cls-3" x1="739.2" y1="140.83" x2="744.57" y2="146.56"/><line class="cls-3" x1="189.43" y1="952.39" x2="192.1" y2="953.47"/><line class="cls-3" x1="667.68" y1="545.24" x2="657.66" y2="545.24"/><line class="cls-3" x1="185.04" y1="954.22" x2="121.28" y2="1063.13"/><line class="cls-3" x1="215.81" y1="960.19" x2="215.61" y2="1228.67"/><line class="cls-3" x1="640.16" y1="859.31" x2="650.69" y2="878.89"/><line class="cls-3" x1="679.58" y1="1025.16" x2="749.68" y2="1024.78"/><line class="cls-3" x1="752.73" y1="1230.27" x2="752.97" y2="1028.45"/><line class="cls-3" x1="676" y1="1028.5" x2="675.58" y2="1229.31"/><line class="cls-3" x1="750" y1="957.19" x2="725.85" y2="957.16"/><line class="cls-3" x1="285.64" y1="949.13" x2="283.14" y2="949.09"/><line class="cls-3" x1="752.3" y1="1011.71" x2="752.57" y2="959.38"/><line class="cls-3" x1="664.78" y1="1014.57" x2="660.91" y2="1014.46"/><line class="cls-3" x1="715.34" y1="968.88" x2="715.3" y2="956.96"/><line class="cls-3" x1="675.22" y1="959.64" x2="675.72" y2="1011.06"/><line class="cls-3" x1="195.54" y1="954.52" x2="199.09" y2="955.6"/><line class="cls-3" x1="283.03" y1="921.91" x2="293.42" y2="914.1"/><line class="cls-3" x1="342.92" y1="636.47" x2="343.09" y2="653.08"/><line class="cls-3" x1="282.49" y1="960.03" x2="285.71" y2="960.07"/><line class="cls-3" x1="678.95" y1="1014.36" x2="749.64" y2="1014.27"/><line class="cls-3" x1="924.41" y1="399.67" x2="924.42" y2="475.2"/><line class="cls-3" x1="192.1" y1="953.47" x2="195.54" y2="954.52"/><line class="cls-3" x1="293.42" y1="914.1" x2="364.7" y2="913.58"/><line class="cls-3" x1="284.98" y1="1164.93" x2="282.45" y2="1165.03"/><line class="cls-3" x1="65.82" y1="1233.41" x2="102.65" y2="1233.59"/><line class="cls-3" x1="784.79" y1="187.22" x2="821.47" y2="186.14"/><line class="cls-3" x1="282.86" y1="1175.52" x2="285.39" y2="1175.16"/><line class="cls-3" x1="205.38" y1="1064.7" x2="205.51" y2="959.33"/><line class="cls-3" x1="283.11" y1="1231.55" x2="282.86" y2="1175.52"/><line class="cls-3" x1="968.29" y1="725.92" x2="968.09" y2="810.51"/><line class="cls-3" x1="735.14" y1="723.53" x2="832.78" y2="723.07"/><line class="cls-3" x1="391.1" y1="304.73" x2="407.44" y2="260.51"/><line class="cls-3" x1="734.53" y1="874.31" x2="750.26" y2="874.11"/><line class="cls-3" x1="596.18" y1="1230.17" x2="596.1" y2="1233.72"/><line class="cls-3" x1="607.47" y1="1233.61" x2="607.55" y2="1230.45"/><line class="cls-3" x1="661.27" y1="1233.63" x2="607.47" y2="1233.61"/><line class="cls-3" x1="280.07" y1="111.4" x2="331.01" y2="96.53"/><line class="cls-3" x1="393.05" y1="390.9" x2="311.36" y2="601.35"/><line class="cls-3" x1="665.04" y1="1175.93" x2="665.13" y2="1230.46"/><line class="cls-3" x1="660.98" y1="1175.84" x2="665.04" y2="1175.93"/><line class="cls-3" x1="947.52" y1="296.09" x2="952.32" y2="313.16"/><line class="cls-3" x1="968.72" y1="849.96" x2="968.62" y2="825.83"/><line class="cls-3" x1="665.12" y1="1165.69" x2="661.11" y2="1165.64"/><line class="cls-3" x1="665.1" y1="1025.4" x2="665.12" y2="1165.69"/><line class="cls-3" x1="854.83" y1="892.64" x2="842.22" y2="892.83"/><line class="cls-3" x1="311.43" y1="1046.34" x2="311.76" y2="959.5"/><line class="cls-3" x1="661.59" y1="1025.4" x2="665.1" y2="1025.4"/><line class="cls-3" x1="664.21" y1="954.24" x2="664.78" y2="1014.57"/><line class="cls-3" x1="526.51" y1="914.66" x2="641.46" y2="914.38"/><line class="cls-3" x1="687.46" y1="1331.33" x2="684.46" y2="1316.44"/><line class="cls-3" x1="629.71" y1="939.76" x2="318.42" y2="938.08"/><line class="cls-3" x1="526.73" y1="929.19" x2="526.51" y2="914.66"/><line class="cls-3" x1="191.97" y1="607.05" x2="191.84" y2="646.85"/><line class="cls-3" x1="934.95" y1="877.41" x2="934.95" y2="856.38"/><line class="cls-3" x1="364.54" y1="1233.37" x2="285.58" y2="1233.98"/><line class="cls-3" x1="181.81" y1="606.1" x2="184.89" y2="605.09"/><line class="cls-3" x1="280.45" y1="602.57" x2="309.56" y2="602.48"/><line class="cls-3" x1="634.3" y1="959.57" x2="634.12" y2="1197.86"/><line class="cls-3" x1="176.03" y1="649.54" x2="189.75" y2="649.54"/><line class="cls-3" x1="146.75" y1="637.69" x2="170.06" y2="631.59"/><line class="cls-3" x1="247.13" y1="104.65" x2="245.93" y2="685.42"/><line class="cls-3" x1="144.15" y1="702.17" x2="144.23" y2="641.46"/><line class="cls-3" x1="926.87" y1="313.57" x2="909.55" y2="340.67"/><line class="cls-3" x1="272.45" y1="1229.29" x2="272.46" y2="938.42"/><line class="cls-3" x1="713.92" y1="699.52" x2="729.05" y2="699.4"/><line class="cls-3" x1="356.44" y1="653.06" x2="356.49" y2="636.44"/><line class="cls-3" x1="928.01" y1="302.01" x2="926.87" y2="313.57"/><line class="cls-3" x1="171.66" y1="874" x2="192.88" y2="819.4"/><line class="cls-3" x1="401.05" y1="44.44" x2="265.38" y2="80.9"/><line class="cls-3" x1="970.89" y1="318.35" x2="970.89" y2="362.6"/><line class="cls-3" x1="123.19" y1="1068.18" x2="201.45" y2="1068.15"/><line class="cls-3" x1="376.21" y1="914.96" x2="516.04" y2="914.81"/><line class="cls-3" x1="673.53" y1="908.11" x2="687.2" y2="860.88"/><line class="cls-3" x1="751.45" y1="928.58" x2="679.49" y2="928.84"/><line class="cls-3" x1="966.44" y1="823.73" x2="912.81" y2="823.71"/><line class="cls-3" x1="732.37" y1="702.29" x2="732.06" y2="720.16"/><line class="cls-3" x1="730.6" y1="856.89" x2="734.53" y2="874.31"/><line class="cls-3" x1="453.96" y1="670.29" x2="454.16" y2="631.89"/><line class="cls-3" x1="924.3" y1="293.98" x2="928.01" y2="302.01"/><line class="cls-3" x1="282.45" y1="1165.03" x2="282.49" y2="960.03"/><line class="cls-3" x1="927.92" y1="478.61" x2="966.38" y2="478.13"/><line class="cls-3" x1="443.73" y1="395.79" x2="457.56" y2="391.64"/><line class="cls-3" x1="181.81" y1="606.1" x2="51.44" y2="640.64"/><line class="cls-3" x1="785.54" y1="1272.85" x2="784.62" y2="865.06"/><line class="cls-3" x1="756.02" y1="1268.17" x2="756.13" y2="1310.11"/><line class="cls-3" x1="692.63" y1="956.87" x2="676.88" y2="956.85"/><line class="cls-3" x1="174.12" y1="950.26" x2="106.29" y2="1068.15"/><line class="cls-3" x1="596.1" y1="1233.72" x2="376.29" y2="1233.66"/><line class="cls-3" x1="684.46" y1="1316.44" x2="657.97" y2="1315.63"/><line class="cls-3" x1="376.29" y1="1233.66" x2="376.24" y2="1229.8"/><line class="cls-3" x1="188.52" y1="689.81" x2="176.22" y2="689.86"/><line class="cls-3" x1="621" y1="1271.87" x2="620.98" y2="1307.04"/><line class="cls-3" x1="867.9" y1="316.82" x2="861.26" y2="341.86"/><line class="cls-3" x1="80.55" y1="1315.75" x2="64.24" y2="1315.45"/><line class="cls-3" x1="203.18" y1="1261.58" x2="610.8" y2="1261.67"/><line class="cls-3" x1="989.63" y1="291.65" x2="989.89" y2="280.58"/><line class="cls-3" x1="158.31" y1="1316.28" x2="131.63" y2="1316.04"/><line class="cls-3" x1="194.48" y1="1306.99" x2="194.73" y2="1270.67"/><line class="cls-3" x1="220.06" y1="1233.43" x2="268.69" y2="1233.28"/><line class="cls-3" x1="176.22" y1="689.86" x2="176.22" y2="703.06"/><line class="cls-3" x1="874.61" y1="241.26" x2="878.18" y2="245.12"/><line class="cls-3" x1="731.37" y1="132.24" x2="734.99" y2="136.65"/><line class="cls-3" x1="325.53" y1="602.48" x2="414.73" y2="602.07"/><line class="cls-3" x1="31.08" y1="665.99" x2="30.52" y2="671.6"/><line class="cls-3" x1="279.83" y1="887.97" x2="241.53" y2="916.95"/><line class="cls-3" x1="655.65" y1="547.31" x2="655.4" y2="561.71"/><line class="cls-3" x1="133.11" y1="1337.71" x2="229.79" y2="1337.66"/><line class="cls-3" x1="131.63" y1="1316.04" x2="128.43" y2="1329.5"/><line class="cls-3" x1="405.73" y1="393.07" x2="417.07" y2="396.1"/><line class="cls-3" x1="755.72" y1="879.37" x2="756.17" y2="922.62"/><line class="cls-3" x1="162.85" y1="816.65" x2="163.41" y2="734.7"/><line class="cls-3" x1="752.31" y1="596.1" x2="752.28" y2="678.36"/><line class="cls-3" x1="692.76" y1="967.2" x2="692.63" y2="956.87"/><line class="cls-3" x1="878.18" y1="245.12" x2="874.02" y2="248.39"/><line class="cls-3" x1="656.99" y1="1262.68" x2="751.22" y2="1262.37"/><line class="cls-3" x1="167.25" y1="1270.48" x2="167.42" y2="1307.34"/><line class="cls-3" x1="64.35" y1="1261.81" x2="158.22" y2="1261.78"/><line class="cls-3" x1="176.03" y1="635.09" x2="176.03" y2="649.54"/><line class="cls-3" x1="59.64" y1="1310.45" x2="59.76" y2="1266.15"/><line class="cls-3" x1="838.74" y1="694.15" x2="786.4" y2="694.15"/><line class="cls-3" x1="106.29" y1="1068.15" x2="66.1" y2="1067.86"/><line class="cls-3" x1="580.19" y1="1315.6" x2="585.92" y2="1338.28"/><line class="cls-3" x1="457.56" y1="391.64" x2="486.77" y2="384.47"/><line class="cls-3" x1="120.4" y1="659.31" x2="120.09" y2="702.76"/><line class="cls-3" x1="785.2" y1="68.42" x2="800.42" y2="72.67"/><line class="cls-3" x1="744.57" y1="146.56" x2="748.42" y2="150.14"/><line class="cls-3" x1="724.94" y1="47.96" x2="736.22" y2="57.78"/><line class="cls-3" x1="84.61" y1="1332.99" x2="80.55" y2="1315.75"/><line class="cls-3" x1="725.85" y1="957.16" x2="725.83" y2="968.78"/><line class="cls-3" x1="283.14" y1="949.09" x2="283.03" y2="921.91"/><line class="cls-3" x1="775.28" y1="852.59" x2="733.85" y2="853.08"/><line class="cls-3" x1="867.48" y1="725.77" x2="867.54" y2="810.01"/><line class="cls-3" x1="648.11" y1="1306.39" x2="647.57" y2="1271.92"/><line class="cls-3" x1="34.79" y1="1338.13" x2="78.97" y2="1337.97"/><line class="cls-3" x1="683.33" y1="852.59" x2="643.96" y2="852.85"/><line class="cls-3" x1="770.83" y1="207.61" x2="825.92" y2="206.15"/><line class="cls-3" x1="735.48" y1="1315.9" x2="731.42" y2="1329.79"/><line class="cls-3" x1="729.24" y1="30.14" x2="758.02" y2="40.85"/><line class="cls-3" x1="734.99" y1="136.65" x2="739.2" y2="140.83"/><line class="cls-3" x1="315.57" y1="955.44" x2="629.73" y2="954.52"/><line class="cls-3" x1="911.23" y1="880.56" x2="911.21" y2="904.48"/><line class="cls-3" x1="736.22" y1="57.78" x2="748.74" y2="67.59"/><line class="cls-3" x1="909.55" y1="340.67" x2="902.64" y2="340.45"/><line class="cls-3" x1="229.79" y1="1337.66" x2="235.52" y2="1315.6"/><line class="cls-3" x1="585.92" y1="1338.28" x2="681.85" y2="1337.77"/><line class="cls-3" x1="928.19" y1="489.61" x2="965.07" y2="489.69"/><line class="cls-3" x1="172.33" y1="707.04" x2="148.17" y2="706.95"/><line class="cls-3" x1="764.3" y1="43.89" x2="764.26" y2="52.14"/><line class="cls-3" x1="954.01" y1="286.44" x2="964.5" y2="286.46"/><line class="cls-3" x1="918.35" y1="362.57" x2="951" y2="313.82"/><line class="cls-3" x1="859.03" y1="837.04" x2="883.05" y2="836.83"/><line class="cls-3" x1="895.56" y1="267.43" x2="975.65" y2="267.04"/><line class="cls-3" x1="951" y1="313.82" x2="945.1" y2="294.03"/><line class="cls-3" x1="291.39" y1="885.07" x2="279.83" y2="887.97"/><line class="cls-3" x1="853.83" y1="236.38" x2="854.54" y2="284.59"/><line class="cls-3" x1="30.52" y1="671.6" x2="30" y2="1331.61"/><line class="cls-3" x1="471.43" y1="570.07" x2="471.03" y2="412.99"/><line class="cls-3" x1="364.67" y1="1229.98" x2="364.54" y2="1233.37"/><line class="cls-3" x1="392.23" y1="75.8" x2="392.2" y2="89.36"/><line class="cls-3" x1="727.75" y1="127.59" x2="731.37" y2="132.24"/><line class="cls-3" x1="947.03" y1="287.79" x2="954.01" y2="286.44"/><line class="cls-3" x1="861.15" y1="292.46" x2="897.88" y2="292.16"/><line class="cls-3" x1="750.9" y1="564.5" x2="677.28" y2="564.52"/><line class="cls-3" x1="579.08" y1="374.99" x2="770.85" y2="374.95"/><line class="cls-3" x1="677.83" y1="1233.42" x2="749.66" y2="1233.54"/><line class="cls-3" x1="648.14" y1="884.89" x2="291.39" y2="885.07"/><line class="cls-3" x1="855.41" y1="854.84" x2="855.28" y2="840.66"/><line class="cls-3" x1="715.3" y1="956.96" x2="704.47" y2="957"/><line class="cls-3" x1="897.88" y1="292.16" x2="903.52" y2="286.9"/><line class="cls-3" x1="964.5" y1="286.46" x2="966.86" y2="291.45"/><line class="cls-3" x1="966.86" y1="291.45" x2="989.63" y2="291.65"/><line class="cls-3" x1="381.14" y1="378.45" x2="391.92" y2="386.21"/><line class="cls-3" x1="945.1" y1="294.03" x2="947.03" y2="287.79"/><line class="cls-3" x1="870.11" y1="475.66" x2="870.51" y2="392.9"/><line class="cls-3" x1="856.67" y1="293.31" x2="899.43" y2="292.8"/><line class="cls-3" x1="704.47" y1="957" x2="704.5" y2="967.56"/><line class="cls-3" x1="773.33" y1="575.84" x2="773.81" y2="542.81"/><line class="cls-3" x1="736.24" y1="1338.26" x2="779.46" y2="1337.56"/><line class="cls-3" x1="192.88" y1="819.4" x2="192.37" y2="693.65"/><line class="cls-3" x1="273.4" y1="686.53" x2="273.14" y2="636.93"/><line class="cls-3" x1="159.27" y1="730.78" x2="143.88" y2="730.9"/><line class="cls-3" x1="896.07" y1="362.31" x2="918.35" y2="362.57"/><line class="cls-3" x1="538.47" y1="680.69" x2="537.83" y2="679.83"/><line class="cls-3" x1="762.59" y1="42.85" x2="762.22" y2="160.62"/><line class="cls-3" x1="968.36" y1="902.91" x2="968.25" y2="882.62"/><line class="cls-3" x1="407.44" y1="260.51" x2="407.45" y2="134.42"/><line class="cls-3" x1="781.03" y1="75.27" x2="780.38" y2="179.27"/><line class="cls-3" x1="764.3" y1="43.89" x2="763.59" y2="199.02"/><line class="cls-3" x1="674.05" y1="924.47" x2="673.53" y2="908.11"/><line class="cls-3" x1="751.43" y1="1315.91" x2="735.48" y2="1315.9"/><line class="cls-3" x1="387.91" y1="146.69" x2="363.39" y2="146.92"/><line class="cls-3" x1="1000.35" y1="273.85" x2="999.77" y2="217.76"/><line class="cls-3" x1="724.61" y1="123.06" x2="727.75" y2="127.59"/><line class="cls-3" x1="874.02" y1="248.39" x2="874.32" y2="267.25"/><line class="cls-3" x1="890.44" y1="272.88" x2="895.56" y2="267.43"/><line class="cls-3" x1="981.9" y1="219.78" x2="981.71" y2="258.71"/><line class="cls-3" x1="785.57" y1="1330.92" x2="785.54" y2="1272.85"/><line class="cls-3" x1="903.52" y1="286.9" x2="917.67" y2="287.13"/><line class="cls-3" x1="800.42" y1="72.67" x2="854.25" y2="86.99"/><line class="cls-3" x1="438.36" y1="608.21" x2="428.21" y2="602.49"/><line class="cls-3" x1="722.46" y1="119.15" x2="724.61" y2="123.06"/><path class="cls-3" d="M452.46,605.79a27,27,0,0,0,54-.44" transform="translate(-18.7 -35.86)"/><path class="cls-3" d="M856.34,450.23a10.42,10.42,0,0,0-8.89-10.37" transform="translate(-18.7 -35.86)"/><path class="cls-3" d="M872.7,446.41a24.28,24.28,0,0,0-24.25-23.3" transform="translate(-18.7 -35.86)"/><path class="cls-3" d="M512.84,423a26,26,0,0,0-23.11,25.9" transform="translate(-18.7 -35.86)"/><path class="cls-3" d="M380.6,334.9a74.17,74.17,0,0,0,5.09,63.16" transform="translate(-18.7 -35.86)"/><path class="cls-3" d="M354.17,177.79a28.79,28.79,0,0,0,24.93,28.77" transform="translate(-18.7 -35.86)"/><path class="cls-3" d="M354.53,134.45a4.12,4.12,0,0,0-4.81-2.06" transform="translate(-18.7 -35.86)"/><path class="cls-3" d="M298.77,147.26a4.56,4.56,0,0,0-1.59,3.46" transform="translate(-18.7 -35.86)"/><path class="cls-3" d="M328.26,638.34a2,2,0,0,0,1.8-1.13" transform="translate(-18.7 -35.86)"/><path class="cls-3" d="M296.62,635.89a2.54,2.54,0,0,0,2.53,2.54" transform="translate(-18.7 -35.86)"/><path class="cls-3" d="M397.19,209.21a2.52,2.52,0,0,0-2.39-2.64h-.12" transform="translate(-18.7 -35.86)"/><path class="cls-3" d="M411.76,426.76a3.71,3.71,0,0,0-1.14-4.69" transform="translate(-18.7 -35.86)"/><path class="cls-3" d="M299.91,414.66a3.16,3.16,0,0,0-3.23,3.1v.06" transform="translate(-18.7 -35.86)"/><path class="cls-3" d="M424.43,428.93a3.23,3.23,0,0,0-3.32,2.05" transform="translate(-18.7 -35.86)"/><path class="cls-3" d="M433.43,637.93a2.09,2.09,0,0,0,2.08-2.07" transform="translate(-18.7 -35.86)"/><path class="cls-3" d="M472.15,654.69a4.52,4.52,0,0,0-2.19,5.7" transform="translate(-18.7 -35.86)"/><path class="cls-3" d="M524.17,729.74a2.12,2.12,0,0,0,2.44-1.75,2,2,0,0,0,0-.35" transform="translate(-18.7 -35.86)"/><path class="cls-3" d="M987.32,861.7a2.11,2.11,0,0,0-2.12-2.11h-.05" transform="translate(-18.7 -35.86)"/><path class="cls-3" d="M468.69,606.41a10.73,10.73,0,0,0,21.45.06c0-.18,0-.36,0-.54" transform="translate(-18.7 -35.86)"/><path class="cls-3" d="M984.84,888.92a2.64,2.64,0,0,0,2.62-2.66,3.27,3.27,0,0,0,0-.44" transform="translate(-18.7 -35.86)"/><path class="cls-3" d="M953.65,913.27a3.13,3.13,0,0,0,3.05,3.2h.06" transform="translate(-18.7 -35.86)"/><path class="cls-3" d="M987,918.48a1.88,1.88,0,0,0-1.88-1.87h-.16" transform="translate(-18.7 -35.86)"/><path class="cls-3" d="M929.92,940.35a1.44,1.44,0,0,0,1.44,1.45h.12" transform="translate(-18.7 -35.86)"/><path class="cls-3" d="M886.24,845.87a3.26,3.26,0,0,0,2.58,3.19" transform="translate(-18.7 -35.86)"/><path class="cls-3" d="M987,761.78a2.94,2.94,0,0,0-2.78-3.07h-.15" transform="translate(-18.7 -35.86)"/><path class="cls-3" d="M889.07,758.85a2.79,2.79,0,0,0-2.89,2.68v.11" transform="translate(-18.7 -35.86)"/><path class="cls-3" d="M932.58,527.39a1.67,1.67,0,0,0-1.67-1.67" transform="translate(-18.7 -35.86)"/><path class="cls-3" d="M987.63,529.32a3.76,3.76,0,0,0-3.76-3.77h-.1" transform="translate(-18.7 -35.86)"/><path class="cls-3" d="M946.89,525.47a3.74,3.74,0,0,0-3.55,3.74" transform="translate(-18.7 -35.86)"/><path class="cls-3" d="M526.64,657.87a3.2,3.2,0,0,0-3-3.43h-.25" transform="translate(-18.7 -35.86)"/><path class="cls-3" d="M946.35,432.85a2.75,2.75,0,0,0-3.24,2.68" transform="translate(-18.7 -35.86)"/><path class="cls-3" d="M984.33,941.8a2.74,2.74,0,0,0,2.74-2.74,2.81,2.81,0,0,0,0-.29" transform="translate(-18.7 -35.86)"/><path class="cls-3" d="M1000.6,255.64A177.62,177.62,0,0,0,873,122.85" transform="translate(-18.7 -35.86)"/><path class="cls-3" d="M238.35,992.55a73.06,73.06,0,0,0,46.09-21.06" transform="translate(-18.7 -35.86)"/><path class="cls-3" d="M985.09,514a2.22,2.22,0,0,0,2.19-2.25,2.25,2.25,0,0,0-.16-.81" transform="translate(-18.7 -35.86)"/><path class="cls-3" d="M943.12,511.06a3.4,3.4,0,0,0,3.41,3.41h.1" transform="translate(-18.7 -35.86)"/><path class="cls-3" d="M893,303.11a5.49,5.49,0,0,0,4.1,5.23" transform="translate(-18.7 -35.86)"/><path class="cls-3" d="M893.08,427.05a2.32,2.32,0,0,0-3.87,1.71" transform="translate(-18.7 -35.86)"/><path class="cls-3" d="M888.81,511.52a2.65,2.65,0,0,0,2.63,2.45" transform="translate(-18.7 -35.86)"/><path class="cls-3" d="M930.41,514.16a2.73,2.73,0,0,0,2.19-2.67" transform="translate(-18.7 -35.86)"/><path class="cls-3" d="M929.72,433.24a52.52,52.52,0,0,0-13.19-.64" transform="translate(-18.7 -35.86)"/><path class="cls-3" d="M675.69,1298.54a9.11,9.11,0,0,0-9.41,8.79c0,.15,0,.3,0,.45" transform="translate(-18.7 -35.86)"/><path class="cls-3" d="M893.08,427.05a39.48,39.48,0,0,0,23.45,5.55" transform="translate(-18.7 -35.86)"/><path class="cls-3" d="M451.41,432.2a4.17,4.17,0,0,0-4.58,3.72c0,.14,0,.28,0,.42" transform="translate(-18.7 -35.86)"/><path class="cls-3" d="M639.15,581.36a2.47,2.47,0,0,0-2.39,1.78" transform="translate(-18.7 -35.86)"/><path class="cls-3" d="M626.25,1266.31a5.69,5.69,0,0,0-11.37-.28" transform="translate(-18.7 -35.86)"/><path class="cls-3" d="M672.07,600.39a3.05,3.05,0,0,0,2-2.82" transform="translate(-18.7 -35.86)"/><path class="cls-3" d="M147.13,1365.36a6.92,6.92,0,0,0,4.68,8.21" transform="translate(-18.7 -35.86)"/><path class="cls-3" d="M330.13,1082.2q-8.22-.06-16.45.25" transform="translate(-18.7 -35.86)"/><path class="cls-3" d="M781.27,604a14.82,14.82,0,0,0-11.67-3.65" transform="translate(-18.7 -35.86)"/><path class="cls-3" d="M933,436a4.22,4.22,0,0,0-3.26-2.8" transform="translate(-18.7 -35.86)"/><path class="cls-3" d="M875.17,738.07a5.19,5.19,0,0,0,3.47-4.9" transform="translate(-18.7 -35.86)"/><path class="cls-3" d="M648,1238.05a4.36,4.36,0,0,0,4.82-3.84,3.91,3.91,0,0,0,0-.49" transform="translate(-18.7 -35.86)"/><path class="cls-3" d="M190.37,909.86a44,44,0,0,0,69.87,43" transform="translate(-18.7 -35.86)"/><path class="cls-3" d="M874.7,514.36a2.89,2.89,0,0,0,3.35-2.35,4,4,0,0,0,0-.49" transform="translate(-18.7 -35.86)"/><path class="cls-3" d="M664,954.71a3.85,3.85,0,0,0-3.17-4.42,3.39,3.39,0,0,0-.64,0" transform="translate(-18.7 -35.86)"/><path class="cls-3" d="M287.4,726.66a4.71,4.71,0,0,0,4.7-4.26" transform="translate(-18.7 -35.86)"/><path class="cls-3" d="M878.17,413.84a2.74,2.74,0,0,0-2.72-2.75h0" transform="translate(-18.7 -35.86)"/><path class="cls-3" d="M211.07,729.51a3.85,3.85,0,0,0-3.85-3.83" transform="translate(-18.7 -35.86)"/><path class="cls-3" d="M789.55,410.81a6.57,6.57,0,0,0,13.13.11" transform="translate(-18.7 -35.86)"/><path class="cls-3" d="M558.28,600.68a30.6,30.6,0,0,0-30.46,30.76q0,.91.06,1.83" transform="translate(-18.7 -35.86)"/><path class="cls-3" d="M224.21,995.2a3,3,0,0,0-2.43-3" transform="translate(-18.7 -35.86)"/><path class="cls-3" d="M857.26,970.35a5.17,5.17,0,0,0,4.9,5.22" transform="translate(-18.7 -35.86)"/><path class="cls-3" d="M860.93,928.7a3.3,3.3,0,0,0-3.25,3.1" transform="translate(-18.7 -35.86)"/><path class="cls-3" d="M792.52,578.67a5.54,5.54,0,0,0-11.07.25" transform="translate(-18.7 -35.86)"/><path class="cls-3" d="M906.31,877a4.53,4.53,0,0,0-4.56-4.26" transform="translate(-18.7 -35.86)"/><path class="cls-3" d="M857.27,763.2a6,6,0,0,0-5.78-4.26" transform="translate(-18.7 -35.86)"/><path class="cls-3" d="M751.07,738.15a3.31,3.31,0,0,0-3.32-2.88" transform="translate(-18.7 -35.86)"/><path class="cls-3" d="M729.8,731.61a3.75,3.75,0,0,0,2.82,3.77" transform="translate(-18.7 -35.86)"/><path class="cls-3" d="M676.37,581.11a2,2,0,0,0-2,2v0" transform="translate(-18.7 -35.86)"/><path class="cls-3" d="M383.54,963.62a5.67,5.67,0,0,0,11.34-.1,1.09,1.09,0,0,1,0-.18" transform="translate(-18.7 -35.86)"/><path class="cls-3" d="M736.07,711.73a5.08,5.08,0,0,0-5.69,3.77" transform="translate(-18.7 -35.86)"/><path class="cls-3" d="M768.36,716.62a2.4,2.4,0,0,0,2.61-2.2,1.27,1.27,0,0,0,0-.2" transform="translate(-18.7 -35.86)"/><path class="cls-3" d="M304.41,995.93a5.67,5.67,0,0,0-.07-10.94" transform="translate(-18.7 -35.86)"/><path class="cls-3" d="M594.1,735a2.84,2.84,0,0,0,2.83-2.84v-.07" transform="translate(-18.7 -35.86)"/><path class="cls-3" d="M578.62,735.06a3,3,0,0,0-3.06,2.86V738" transform="translate(-18.7 -35.86)"/><path class="cls-3" d="M452.18,753.19a8.62,8.62,0,0,0,4.63,6.11" transform="translate(-18.7 -35.86)"/><path class="cls-3" d="M753.91,141a9,9,0,0,0-11.37,0" transform="translate(-18.7 -35.86)"/><path class="cls-3" d="M443.24,672.76a4,4,0,0,0-3.68-5.52" transform="translate(-18.7 -35.86)"/><path class="cls-3" d="M872.4,736.79a38.93,38.93,0,0,0-15-6.78" transform="translate(-18.7 -35.86)"/><path class="cls-3" d="M380.7,667.43a4.91,4.91,0,0,0-5.47,4.3,5.44,5.44,0,0,0,0,.57" transform="translate(-18.7 -35.86)"/><path class="cls-3" d="M361.79,688.94a6.68,6.68,0,0,0,13.35,0" transform="translate(-18.7 -35.86)"/><path class="cls-3" d="M361.62,672.33a4.47,4.47,0,0,0-3.94-4.94,4.93,4.93,0,0,0-.55,0" transform="translate(-18.7 -35.86)"/><path class="cls-3" d="M296.62,668a4.76,4.76,0,0,0-4.78,4.73v0" transform="translate(-18.7 -35.86)"/><path class="cls-3" d="M426.75,84.9a5,5,0,0,0-4.92-5,4.9,4.9,0,0,0-2.07.43" transform="translate(-18.7 -35.86)"/><path class="cls-3" d="M873.58,382.1a5.93,5.93,0,0,0,6.38-4.38" transform="translate(-18.7 -35.86)"/><path class="cls-3" d="M875.38,329.17a2.26,2.26,0,0,0-2.23,2.28v.13" transform="translate(-18.7 -35.86)"/><path class="cls-3" d="M406.61,182.55a4.75,4.75,0,0,0,4.3-5.16s0-.1,0-.15" transform="translate(-18.7 -35.86)"/><path class="cls-3" d="M800.37,725a4.73,4.73,0,0,0,4.42,5h.31" transform="translate(-18.7 -35.86)"/><path class="cls-3" d="M186,1306.34a9,9,0,0,0-9-8.7" transform="translate(-18.7 -35.86)"/><path class="cls-3" d="M921.86,335.78a4.51,4.51,0,0,0-3.73-7.12" transform="translate(-18.7 -35.86)"/><path class="cls-3" d="M410.93,111.66a4.3,4.3,0,0,0-3.84-4.71l-.46,0" transform="translate(-18.7 -35.86)"/><path class="cls-3" d="M162.85,738a4.1,4.1,0,0,0,3.35,4.73,5.19,5.19,0,0,0,.68,0" transform="translate(-18.7 -35.86)"/><path class="cls-3" d="M907.1,395.76a7,7,0,0,0,6,7.88,7.42,7.42,0,0,0,.94.06" transform="translate(-18.7 -35.86)"/><path class="cls-3" d="M989.59,354.21a4.42,4.42,0,0,0-3.6-5.12,3.91,3.91,0,0,0-.76-.07" transform="translate(-18.7 -35.86)"/><path class="cls-3" d="M970.1,328.7a2.8,2.8,0,0,0-3.71,1.37,2.83,2.83,0,0,0-.17,1.88" transform="translate(-18.7 -35.86)"/><path class="cls-3" d="M238.35,992.55a3.52,3.52,0,0,0-3.83,3.18c0,.1,0,.21,0,.32" transform="translate(-18.7 -35.86)"/><path class="cls-3" d="M1019.19,337.26a8.47,8.47,0,0,0-8.43-8.51h0" transform="translate(-18.7 -35.86)"/><path class="cls-3" d="M313.49,1236a18.81,18.81,0,0,0,18.74,18.91c.59,0,1.18,0,1.76-.07" transform="translate(-18.7 -35.86)"/><path class="cls-3" d="M329.7,1233.3a5.37,5.37,0,0,0,5.28,5.46h.1" transform="translate(-18.7 -35.86)"/><path class="cls-3" d="M891.3,525.64a2.12,2.12,0,0,0-2.33,1.9,1.7,1.7,0,0,0,0,.22" transform="translate(-18.7 -35.86)"/><path class="cls-3" d="M208.45,685.4a2.78,2.78,0,0,0,2.09-2.69" transform="translate(-18.7 -35.86)"/><path class="cls-3" d="M653,995.43a4.58,4.58,0,0,0-4.09-5,3.85,3.85,0,0,0-.48,0" transform="translate(-18.7 -35.86)"/><path class="cls-3" d="M81.46,959.8a5,5,0,0,0,4.14,4.89" transform="translate(-18.7 -35.86)"/><path class="cls-3" d="M334.28,991.3a4.1,4.1,0,0,0-3.82,4.07" transform="translate(-18.7 -35.86)"/><path class="cls-3" d="M409.8,340.59a40.15,40.15,0,0,0,.6,42.07" transform="translate(-18.7 -35.86)"/><path class="cls-3" d="M139.1,695.18a5.2,5.2,0,0,0-5.78-2.24" transform="translate(-18.7 -35.86)"/><path class="cls-3" d="M984.46,403.59a5.13,5.13,0,0,0,5.13-5.13h0" transform="translate(-18.7 -35.86)"/><path class="cls-3" d="M85,706.22a8.73,8.73,0,0,0-3.11,5.83" transform="translate(-18.7 -35.86)"/><path class="cls-3" d="M168.36,964.1a3.34,3.34,0,0,0,3.32-3.37,3.3,3.3,0,0,0-.75-2.08" transform="translate(-18.7 -35.86)"/><path class="cls-3" d="M771.67,1064.31a3.28,3.28,0,0,0-2.89-3.64,2.6,2.6,0,0,0-.4,0" transform="translate(-18.7 -35.86)"/><path class="cls-3" d="M121.35,1269.45a5.17,5.17,0,0,0,3.36-4.83" transform="translate(-18.7 -35.86)"/><path class="cls-3" d="M987.09,975.25a32.41,32.41,0,0,0,32.1-28.6" transform="translate(-18.7 -35.86)"/><path class="cls-3" d="M573.26,759.18a2.47,2.47,0,0,0,2.42-2" transform="translate(-18.7 -35.86)"/><path class="cls-3" d="M515.9,439.19a9.7,9.7,0,0,0-9.71,9.31" transform="translate(-18.7 -35.86)"/><path class="cls-3" d="M81.83,1265.2a4.45,4.45,0,0,0,2.69,4.07" transform="translate(-18.7 -35.86)"/><path class="cls-3" d="M670.22,996.49a20.83,20.83,0,0,0-20.77-20.89l-1,0" transform="translate(-18.7 -35.86)"/><path class="cls-3" d="M297.12,401.15a3,3,0,0,0,2.05,2.82" transform="translate(-18.7 -35.86)"/><path class="cls-3" d="M780.6,135a52.89,52.89,0,0,0-1-11.71" transform="translate(-18.7 -35.86)"/><path class="cls-3" d="M803.91,104.28a7.75,7.75,0,0,0-4.18,6.85" transform="translate(-18.7 -35.86)"/><path class="cls-3" d="M124.91,1118.74a3.14,3.14,0,0,0-2.11-3.92,3,3,0,0,0-.89-.13" transform="translate(-18.7 -35.86)"/><path class="cls-3" d="M872.4,736.79a2.63,2.63,0,0,0,2.77,1.28" transform="translate(-18.7 -35.86)"/><path class="cls-3" d="M84.28,1114.49a2.76,2.76,0,0,0-2.77,2.64" transform="translate(-18.7 -35.86)"/><path class="cls-3" d="M220.36,1269.28a5,5,0,0,0,3.56-4.81" transform="translate(-18.7 -35.86)"/><path class="cls-3" d="M779.63,123.31a33.46,33.46,0,0,0-12.19-19.86" transform="translate(-18.7 -35.86)"/><path class="cls-3" d="M983.82,849a2.69,2.69,0,0,0,2.95-2.39c0-.1,0-.19,0-.28" transform="translate(-18.7 -35.86)"/><path class="cls-3" d="M337.12,973.94a23.3,23.3,0,0,0-23.18,19.92" transform="translate(-18.7 -35.86)"/><path class="cls-3" d="M1008.59,316.44a17.38,17.38,0,0,0,10.46-6.73" transform="translate(-18.7 -35.86)"/><path class="cls-3" d="M192.82,986.12a3.63,3.63,0,0,0-.39-5.11h0" transform="translate(-18.7 -35.86)"/><path class="cls-3" d="M698.29,1061a4.6,4.6,0,0,0-3.59,3.34" transform="translate(-18.7 -35.86)"/><path class="cls-3" d="M48.7,1367.47a6.83,6.83,0,0,0,4.79,6.52" transform="translate(-18.7 -35.86)"/><path class="cls-3" d="M84.84,974.82a1.92,1.92,0,0,0-2.23,1.54,1.84,1.84,0,0,0,0,.33" transform="translate(-18.7 -35.86)"/><path class="cls-3" d="M424.37,125.52a2,2,0,0,0,2-2,1.71,1.71,0,0,0,0-.45" transform="translate(-18.7 -35.86)"/><path class="cls-3" d="M194.73,671a4.88,4.88,0,0,0-6-3.49h0" transform="translate(-18.7 -35.86)"/><path class="cls-3" d="M140,1099a3.47,3.47,0,0,0,1.24,4.75,2.87,2.87,0,0,0,.67.3" transform="translate(-18.7 -35.86)"/><path class="cls-3" d="M284.08,116.76a24.64,24.64,0,0,0-18.25,23.75" transform="translate(-18.7 -35.86)"/><path class="cls-3" d="M886.6,352.68a2.56,2.56,0,0,0-2.37-3.58" transform="translate(-18.7 -35.86)"/><path class="cls-3" d="M803.32,900.92A13,13,0,0,0,794,888.45" transform="translate(-18.7 -35.86)"/><path class="cls-3" d="M291.17,974.28a3.95,3.95,0,0,0-6.73-2.79" transform="translate(-18.7 -35.86)"/><path class="cls-3" d="M83.06,1297.67a4.37,4.37,0,0,0-4.6,4.12v.22" transform="translate(-18.7 -35.86)"/><path class="cls-3" d="M134.49,1263.73a5.52,5.52,0,0,0,4,5.33" transform="translate(-18.7 -35.86)"/><path class="cls-3" d="M287.39,1269.14a3.76,3.76,0,0,0,3.76-3.78v-.21" transform="translate(-18.7 -35.86)"/><path class="cls-3" d="M234.31,1264.54a4.76,4.76,0,0,0,4.45,4.75" transform="translate(-18.7 -35.86)"/><path class="cls-3" d="M943.65,738.75a5.17,5.17,0,0,0,3,4.22" transform="translate(-18.7 -35.86)"/><path class="cls-3" d="M695.58,992.71a3.11,3.11,0,0,0-1.65,2.79" transform="translate(-18.7 -35.86)"/><path class="cls-3" d="M771.27,995.24a2.21,2.21,0,0,0-2.19-2.22,2.34,2.34,0,0,0-.38,0" transform="translate(-18.7 -35.86)"/><path class="cls-3" d="M888.64,740.51a2.58,2.58,0,0,0,2,2.53" transform="translate(-18.7 -35.86)"/><path class="cls-3" d="M873.49,943.77a3,3,0,0,0,2.6,3.35,2.43,2.43,0,0,0,.38,0" transform="translate(-18.7 -35.86)"/><path class="cls-3" d="M210.67,642.91a6.62,6.62,0,0,0-7.08-2" transform="translate(-18.7 -35.86)"/><path class="cls-3" d="M652.91,597.86a2.64,2.64,0,0,0,2.61,2.39" transform="translate(-18.7 -35.86)"/><path class="cls-3" d="M694.42,1046.92a3.34,3.34,0,0,0,3.23,3.3" transform="translate(-18.7 -35.86)"/><path class="cls-3" d="M692.76,960.34a5.54,5.54,0,0,0,5.43,4.36" transform="translate(-18.7 -35.86)"/><path class="cls-3" d="M426.16,170.28a6.38,6.38,0,0,0-3.37-5.62" transform="translate(-18.7 -35.86)"/><path class="cls-3" d="M649.76,1254.72a19.81,19.81,0,0,0,19.73-18.29" transform="translate(-18.7 -35.86)"/><path class="cls-3" d="M629.82,600.33a3.21,3.21,0,0,0,2.8-2.33" transform="translate(-18.7 -35.86)"/><path class="cls-3" d="M931.06,743a2.27,2.27,0,0,0,1.63-2.17" transform="translate(-18.7 -35.86)"/><path class="cls-3" d="M379.53,114.36a4.76,4.76,0,0,0-2.06,3.92" transform="translate(-18.7 -35.86)"/><path class="cls-3" d="M691.22,585.7a6.94,6.94,0,0,0-4.84-4.59" transform="translate(-18.7 -35.86)"/><path class="cls-3" d="M858,886.53a6.1,6.1,0,0,0,1.69,4.17" transform="translate(-18.7 -35.86)"/><path class="cls-3" d="M304.09,1211a5.49,5.49,0,0,0-.41-10.23" transform="translate(-18.7 -35.86)"/><path class="cls-3" d="M798.16,1373.42a6.23,6.23,0,0,0,6.13-6.33c0-.1,0-.2,0-.31" transform="translate(-18.7 -35.86)"/><path class="cls-3" d="M182.11,770.56a3.91,3.91,0,0,0-3.87-3.93H178" transform="translate(-18.7 -35.86)"/><path class="cls-3" d="M394.94,1265.67a5.79,5.79,0,1,0-11.57.06v.12" transform="translate(-18.7 -35.86)"/><path class="cls-3" d="M224.05,1118.72a4.31,4.31,0,0,0-4.16-4.46h-.16" transform="translate(-18.7 -35.86)"/><path class="cls-3" d="M840,514.21a5.81,5.81,0,0,0-.12,11.61" transform="translate(-18.7 -35.86)"/><path class="cls-3" d="M750.76,756a3.32,3.32,0,0,0,3.08,3.37" transform="translate(-18.7 -35.86)"/><path class="cls-3" d="M694.28,1265.17a4.87,4.87,0,0,0,2.25,4.11" transform="translate(-18.7 -35.86)"/><path class="cls-3" d="M984.69,742.94a2.44,2.44,0,0,0,2.44-2.45,1.85,1.85,0,0,0,0-.23" transform="translate(-18.7 -35.86)"/><path class="cls-3" d="M680,1269.49a3.23,3.23,0,0,0,3.8-2.54,3.36,3.36,0,0,0,.06-.63" transform="translate(-18.7 -35.86)"/><path class="cls-3" d="M679.82,1201.5a5.11,5.11,0,1,0-.24,10.21h.11" transform="translate(-18.7 -35.86)"/><path class="cls-3" d="M679.61,1050.32a5.5,5.5,0,1,0-.22,11,5.43,5.43,0,0,0,.9,0" transform="translate(-18.7 -35.86)"/><path class="cls-3" d="M768.34,1050.13a2.67,2.67,0,0,0,2.66-2.56" transform="translate(-18.7 -35.86)"/><path class="cls-3" d="M264.63,721.28a5.47,5.47,0,0,0,4.42,5.38" transform="translate(-18.7 -35.86)"/><path class="cls-3" d="M165.45,673.55a4.13,4.13,0,0,0-2.52,3.78" transform="translate(-18.7 -35.86)"/><path class="cls-3" d="M932.63,891.59a1.41,1.41,0,0,0-1.38-1.41" transform="translate(-18.7 -35.86)"/><path class="cls-3" d="M191,742.9a4,4,0,0,0,3.89-4" transform="translate(-18.7 -35.86)"/><path class="cls-3" d="M770.15,964.45a6.05,6.05,0,0,0,4.73-6" transform="translate(-18.7 -35.86)"/><path class="cls-3" d="M742.54,67.76a11.23,11.23,0,0,0,.86,15.85l.24.21" transform="translate(-18.7 -35.86)"/><path class="cls-3" d="M774.42,915.24A5.38,5.38,0,0,0,769,910" transform="translate(-18.7 -35.86)"/><path class="cls-3" d="M596.71,716.21a4.81,4.81,0,0,0-4.88-4.75,5.56,5.56,0,0,0-.81.08" transform="translate(-18.7 -35.86)"/><path class="cls-3" d="M705.9,896.75a7,7,0,0,0-3.87-8.3" transform="translate(-18.7 -35.86)"/><path class="cls-3" d="M742.54,141a9.94,9.94,0,0,0-1.37,14" transform="translate(-18.7 -35.86)"/><path class="cls-3" d="M987.27,435.38a2.41,2.41,0,0,0-1.81-2.89,2.6,2.6,0,0,0-.56-.06" transform="translate(-18.7 -35.86)"/><path class="cls-3" d="M662.67,888.71a4.37,4.37,0,0,0-4.34,4.4,4.24,4.24,0,0,0,.53,2.06" transform="translate(-18.7 -35.86)"/><path class="cls-3" d="M872.53,272.24A27.23,27.23,0,0,0,844.62,242" transform="translate(-18.7 -35.86)"/><path class="cls-3" d="M771,632a1.68,1.68,0,0,0-1.57-1.79h-.11" transform="translate(-18.7 -35.86)"/><path class="cls-3" d="M666.81,1342.25a10.23,10.23,0,0,0,9.86,9.24" transform="translate(-18.7 -35.86)"/><path class="cls-3" d="M931.51,859.57a1.39,1.39,0,0,0-1.49,1.26v.11" transform="translate(-18.7 -35.86)"/><path class="cls-3" d="M734,1004.74a5.25,5.25,0,0,0,10.49-.09" transform="translate(-18.7 -35.86)"/><path class="cls-3" d="M1015.85,239.62A196.14,196.14,0,0,0,877.78,104.29" transform="translate(-18.7 -35.86)"/><path class="cls-3" d="M557.48,630.39a2.15,2.15,0,0,0-1,1.79" transform="translate(-18.7 -35.86)"/><path class="cls-3" d="M764.62,146.66a12.5,12.5,0,0,0,15.49-8.54,13,13,0,0,0,.49-3.1" transform="translate(-18.7 -35.86)"/><path class="cls-3" d="M630.71,1351.71a8.81,8.81,0,0,0,9-8.65s0-.1,0-.16" transform="translate(-18.7 -35.86)"/><path class="cls-3" d="M711.46,1003.06a5.88,5.88,0,1,0,11.73.76c0-.13,0-.26,0-.4" transform="translate(-18.7 -35.86)"/><path class="cls-3" d="M893.31,277.12a51.74,51.74,0,0,0-48.22-55q-2.46-.17-4.92-.09" transform="translate(-18.7 -35.86)"/><path class="cls-3" d="M931.09,916.37a1.4,1.4,0,0,0,1.47-1.34.13.13,0,0,0,0-.06" transform="translate(-18.7 -35.86)"/><path class="cls-3" d="M524.4,643.74a3.2,3.2,0,0,0,3.47-2.91,2.53,2.53,0,0,0,0-.28" transform="translate(-18.7 -35.86)"/><path class="cls-3" d="M639.7,1307.73a10.2,10.2,0,0,0-10.2-10.19" transform="translate(-18.7 -35.86)"/><path class="cls-3" d="M383.42,403.74a3.9,3.9,0,0,0,2.63-4.84,4.17,4.17,0,0,0-.36-.84" transform="translate(-18.7 -35.86)"/><path class="cls-3" d="M585.22,411.13a6.28,6.28,0,0,0,12.56,0v-.24" transform="translate(-18.7 -35.86)"/><path class="cls-3" d="M140.4,1114.38a4.79,4.79,0,0,0-5.1,4.47,2.81,2.81,0,0,0,0,.29" transform="translate(-18.7 -35.86)"/><path class="cls-3" d="M181.56,852.51a216.41,216.41,0,0,0-22,67" transform="translate(-18.7 -35.86)"/><path class="cls-3" d="M221.88,1297.44a9.2,9.2,0,0,0-8.45,9.1" transform="translate(-18.7 -35.86)"/><path class="cls-3" d="M70.14,676.5a27.4,27.4,0,0,0-20.36,25.35" transform="translate(-18.7 -35.86)"/><path class="cls-3" d="M921.86,335.78a286.6,286.6,0,0,0-14.76,60" transform="translate(-18.7 -35.86)"/><path class="cls-3" d="M213.18,1342.85a9.78,9.78,0,0,0,9.71,8.62" transform="translate(-18.7 -35.86)"/><path class="cls-3" d="M776.72,76.71c1.5.71,3,1.38,4.57,2" transform="translate(-18.7 -35.86)"/><path class="cls-3" d="M534.52,964.88a5.46,5.46,0,0,0,10.91.17" transform="translate(-18.7 -35.86)"/><path class="cls-3" d="M800.47,627.35A18.73,18.73,0,0,0,792,611.7" transform="translate(-18.7 -35.86)"/><path class="cls-3" d="M177,1352.14a8.9,8.9,0,0,0,9.11-8.7v-.24" transform="translate(-18.7 -35.86)"/><path class="cls-3" d="M770.13,1351.78a5.92,5.92,0,0,0,4.7-5.81" transform="translate(-18.7 -35.86)"/><path class="cls-3" d="M78.34,1346.31a4.71,4.71,0,0,0,4.38,5h.22" transform="translate(-18.7 -35.86)"/><path class="cls-3" d="M1018.47,253.62a32.2,32.2,0,0,0-2.62-14" transform="translate(-18.7 -35.86)"/><path class="cls-3" d="M208.13,988.25a4,4,0,0,0-4.39,1.84" transform="translate(-18.7 -35.86)"/><path class="cls-3" d="M301.82,1267.42a2.44,2.44,0,0,0,2.46,2.42" transform="translate(-18.7 -35.86)"/><path class="cls-3" d="M753.91,141a30,30,0,0,0,10.71,5.64" transform="translate(-18.7 -35.86)"/><path class="cls-3" d="M752.55,888.94a3.33,3.33,0,0,0-3.28,3.36,2.28,2.28,0,0,0,0,.45" transform="translate(-18.7 -35.86)"/><path class="cls-3" d="M768.36,1269.4a3.07,3.07,0,0,0,3.08-3.07v-.2" transform="translate(-18.7 -35.86)"/><path class="cls-3" d="M663.93,962.13a29.86,29.86,0,0,0,19,28" transform="translate(-18.7 -35.86)"/><path class="cls-3" d="M877.78,104.29Q830.71,90.79,783,79.75" transform="translate(-18.7 -35.86)"/><path class="cls-3" d="M82,1100.43a2.85,2.85,0,0,0,2.4,3.26,2.71,2.71,0,0,0,.41,0" transform="translate(-18.7 -35.86)"/><path class="cls-3" d="M747.94,66a5.53,5.53,0,0,0-5.4,1.76" transform="translate(-18.7 -35.86)"/><path class="cls-3" d="M957,889.17a3.08,3.08,0,0,0-3.35,2.79,2.62,2.62,0,0,0,0,.28" transform="translate(-18.7 -35.86)"/><path class="cls-3" d="M652.78,583.58a2.16,2.16,0,0,0-1.92-2.13" transform="translate(-18.7 -35.86)"/><path class="cls-3" d="M342.93,632.86a5,5,0,0,0,1.3,5.48" transform="translate(-18.7 -35.86)"/><path class="cls-3" d="M97.68,1373.83a5.7,5.7,0,0,0,5.63-5" transform="translate(-18.7 -35.86)"/><path class="cls-3" d="M410.4,382.66a44.83,44.83,0,0,0,50.09,19.41" transform="translate(-18.7 -35.86)"/><path class="cls-3" d="M700.56,1373.63a5.68,5.68,0,0,0,5.65-5.71,6,6,0,0,0-.05-.73" transform="translate(-18.7 -35.86)"/><path class="cls-3" d="M877.73,872.9a3.59,3.59,0,0,0-3.74,3.44,1.09,1.09,0,0,0,0,.18" transform="translate(-18.7 -35.86)"/><path class="cls-3" d="M799.08,215.13a9.26,9.26,0,0,0,4.41,8" transform="translate(-18.7 -35.86)"/><path class="cls-3" d="M902.25,947.12a3.77,3.77,0,0,0,4-3.58v-.18" transform="translate(-18.7 -35.86)"/><path class="cls-3" d="M921.34,376.31a11.84,11.84,0,0,0-6.57,21.86" transform="translate(-18.7 -35.86)"/><path class="cls-3" d="M377.57,177.93a4.51,4.51,0,0,0,4.12,4.84h.4" transform="translate(-18.7 -35.86)"/><path class="cls-3" d="M943,329.84a6.74,6.74,0,0,0-6.63-6.85h0" transform="translate(-18.7 -35.86)"/><path class="cls-3" d="M138.79,738.62a28.3,28.3,0,0,0,23.79,28.14" transform="translate(-18.7 -35.86)"/><path class="cls-3" d="M994.35,302.9a6.39,6.39,0,0,0,6.36-6.42,6.2,6.2,0,0,0-.3-1.91" transform="translate(-18.7 -35.86)"/><path class="cls-3" d="M666.84,920.75a4.19,4.19,0,0,0,2.55-6" transform="translate(-18.7 -35.86)"/><path class="cls-3" d="M878.4,528.65a2.54,2.54,0,0,0-2.12-2.91l-.4,0" transform="translate(-18.7 -35.86)"/><path class="cls-3" d="M159.57,919.49a69.1,69.1,0,0,0,11.36,39.16" transform="translate(-18.7 -35.86)"/><path class="cls-3" d="M774.72,1304a4.86,4.86,0,0,0-3.86-5.7,4.91,4.91,0,0,0-.94-.09" transform="translate(-18.7 -35.86)"/><path class="cls-3" d="M873.25,320.45a8.12,8.12,0,0,0,6.61,7.87" transform="translate(-18.7 -35.86)"/><path class="cls-3" d="M220.15,1104a4,4,0,0,0,3.93-3.45" transform="translate(-18.7 -35.86)"/><path class="cls-3" d="M782.29,234.88a8.65,8.65,0,0,0,7.24,8.59" transform="translate(-18.7 -35.86)"/><path class="cls-3" d="M750.12,1365.65a6.78,6.78,0,0,0,4.61,8.41l.22.06" transform="translate(-18.7 -35.86)"/></g></svg>