<?xml version="1.0" encoding="utf-8"?>
<!-- Generator: Adobe Illustrator 26.0.1, SVG Export Plug-In . SVG Version: 6.00 Build 0)  -->
<svg version="1.1" id="Layer_1" xmlns="http://www.w3.org/2000/svg" xmlns:xlink="http://www.w3.org/1999/xlink" x="0px" y="0px"
	 viewBox="0 0 497 594.9" style="enable-background:new 0 0 497 594.9;" xml:space="preserve">
<style type="text/css">
	.st0{fill-rule:evenodd;clip-rule:evenodd;fill:#646464;stroke:#646464;stroke-miterlimit:10;}
</style>
<path class="st0" d="M265.3,31.8v-8.4l226.5-0.7v109.8h-24.5v17.4l3.5,0.7c-0.2,1.3-0.7,2.5-1.4,3.5c-0.6,0.8-1.3,1.5-2.1,2.1
	c-2.5,0.9-5.4,0.1-7-2.1l-0.7-28.7h21.7c1.7,0,3.1-1.2,3.5-2.8l-0.7-86c-1.4-2.8-4-4.8-7-5.6H365.3c-1.3,0.8-2.4,2-2.8,3.5
	c-0.5,1.7-0.2,3.4,0.7,4.9c8.6,20,17.2,40.1,25.9,60.1c0.2,20.1,0.5,40.1,0.7,60.1h-6.3l-12.6-14h7c2.4-1.8,3.7-4.7,3.5-7.7v-36.3
	l-28-67.8l-4.2-2.8h-65.7c-0.2,2.6-0.5,5.1-0.7,7.7l-11.9,30.8l-7-4.2l10.5-25.2c0.2-2.8,0.5-5.6,0.7-8.4h-9.8V31.8z"/>
<path class="st0" d="M468,145v-4.9l4.2-6.3h19.6c0.2,93.2,0.5,186.4,0.7,279.7c-0.2,1-0.7,2-1.4,2.8c-0.6,0.6-1.3,1.1-2.1,1.4
	l-20.3-0.7v-7c1-0.2,2-0.7,2.8-1.4c0.9-0.7,1.6-1.7,2.1-2.8v5.6h13.3c-0.2-10.7-0.5-21.4-0.7-32.2h-13.3v6.3
	c-1.1-2.1-2.8-3.8-4.9-4.9v-10.5h4.9v3.5h9.1v-92.3h-8.4v9.8H468v-9.8h-18.2v27.3h-28.7v-9.1h15.4v-18.2l-122.4-0.7v18.9h14v9.8
	h-26.6c-0.2-9.8-0.5-19.6-0.7-29.4l-21.7-0.7v-14.7l22.4,3.5v-30l-18.2,4.9v-43.3l18.2,5.6v-29.4l-21.7,3.5v-14h76.9
	c-0.2-10.5-0.5-21-0.7-31.5h22.4v6.3c-0.3,2.4-2.4,4.2-4.9,4.2h-5.6c0.2,7,0.5,14,0.7,21h53.8l1.4,1.4l1.4-1.4H482V145H468z"/>
<path class="st0" d="M314.2,175.1h167.1c-0.2,31.9-0.5,63.9-0.7,95.8H314.2V175.1z"/>
<path class="st0" d="M324,380.7c0.9,4,1.9,7.9,2.8,11.9h-12.6v18.9h52.4l2.1,1.4l2.1-1.4h54.5v-18.9h-12.6l2.1-11.9h22.4v209h-21.7
	l-4.2-11.9h14c-0.2-6.3-0.5-12.6-0.7-18.9h-52.4l-2.1-1.4l-2.1,1.4h-53.8v18.9h12.6c-1.2,4-2.3,7.9-3.5,11.9h-22.4v-30h-21.7v-15.4
	l21.7,3.5v-28.7c-2.8,0.5-5.6,1.2-8.4,2.1c-3.1,1-6.1,2.1-9.1,3.5c0.2-2.3,0.5-4.7,0.7-7c2.2-3.6,4.5-7.1,7-10.5
	c1.4-1.9,2.8-3.7,4.2-5.6l5.6-2.1v-28l-7.7-2.8c-1.8-1.7-3.4-3.6-4.9-5.6c-2.7-3.6-4.8-7.6-6.3-11.9c0.2-1.9,0.5-3.7,0.7-5.6
	c2.9,1.7,5.9,3.1,9.1,4.2c2.7,0.9,5.5,1.7,8.4,2.1v-30l-21,3.5v-14h21v-30.7L324,380.7L324,380.7z"/>
<path class="st0" d="M314.2,422.6h111.9v125.1L314.2,547V422.6z"/>
<path class="st0" d="M36,22.7H8.7c-0.8,0-1.5,0.3-2.1,0.7c-0.7,0.5-1.2,1.3-1.4,2.1c0.2,63.9,0.5,127.7,0.7,191.6
	c-0.1,0.8,0.2,1.5,0.7,2.1c0.4,0.4,0.9,0.6,1.4,0.7l30.8,0.7c0.2,18.2,0.5,36.4,0.7,54.5h39.2v4.2H113v-15.4l-21,3.5V238l18.9,6.3
	l-0.7-45.4l-18.9,6.3v-29.4l22.4,4.2v-14.7H79.3v12.6L36,177.2v-9.8h-5.6v9.8H17.1v-93h13.3v8.4H36V72.3c-1.9-2.1-3.7-4.2-5.6-6.3
	v9.1h-14V32.5h14v6.3l5.6-3.5V22.7z"/>
<path class="st0" d="M17.1,187.7h61.5v77.6h-28c-0.2-18.7-0.5-37.3-0.7-55.9H17.1V187.7z"/>
<path class="st0" d="M37.4,263.9v-14H8c-1.7,0-3.1,1.2-3.5,2.8l0.7,337.7h21.7l2.8-7.7v-5.6H16.4v-18.2l64.3,0.7v17.5H67.4v4.9
	l2.1,8.4h22.4v-30.7h21v-16.1l-21.7,4.9v-30.1c6.4,0.8,12.6,3,18.2,6.3V517c-2.9-6.1-6.9-11.6-11.9-16.1l-5.6-1.4
	c-0.2-9.3-0.5-18.7-0.7-28l4.2-0.7c5.6-5.5,10.3-11.9,14-18.9v-7c-5.3,3.9-11.6,6.1-18.2,6.3c-0.2-9.6-0.5-19.1-0.7-28.7l22.4,2.8
	v-14.6H82.1c-0.2-7.7-0.5-15.4-0.7-23.1h10.5c-0.2-2.3-0.5-4.7-0.7-7H73.7v30.1H36v-9.8h-6.3v9.8H17.1c-0.2-32.6-0.5-65.2-0.7-97.9
	h13.3v8.4h7v-21.6l-7-6.3v9.1H16.4v-41.9h13.3v9.1L37.4,263.9z"/>
<path class="st0" d="M16.4,421.9l63.6-0.7c0.2,42.2,0.5,84.4,0.7,126.5H17.1C16.9,505.8,16.6,463.9,16.4,421.9z"/>
<path class="st0" d="M92.6,519.8c6.4,2.4,14.4,5.5,18.9,7c3.3,1.1,6.4,2.7,9.1,4.9c3.6,3.1,5.8,6.7,6.3,8.4c0.3,1.4,0.8,2.9,1.4,4.2
	c0.9,1.6,2.1,3.1,3.5,4.2H152v-55.9l3.5-3.5l3.5,2.1V543c0,1.3,0.5,2.6,1.4,3.5c0.8,0.8,1.7,1.2,2.8,1.4l66.4,0.7
	c0.8-0.3,1.5-0.8,2.1-1.4c0.9-1,1.4-2.2,1.4-3.5c0.2-17.2,0.5-34.5,0.7-51.7l2.1-2.1l4.2,3.5c-0.2,16.5-0.5,33.1-0.7,49.6
	c0.2,1.3,0.7,2.5,1.4,3.5c0.6,0.8,1.3,1.5,2.1,2.1h18.2c1.9-7.6,5.6-13.9,11.2-18.2c3.1-2.3,6.7-4,10.5-4.9c5-1.4,11.2-3.3,16.8-4.9
	v7.7c-1.7,2.1-3.8,3.8-6.3,4.9c1.2,0.3,2.4,0.8,3.5,1.4c1,0.6,2,1.3,2.8,2.1v9.8l-16.8-2.8c-1.9-0.7-4-0.4-5.6,0.7
	c-2.1,1.6-3,4.5-2.1,7c0.2,1.2,0.5,2.3,0.7,3.5c0.3,2-1,3.8-2.9,4.2c-0.2,0-0.4,0-0.5,0h-46.1c-1.4-1-3.4-0.6-4.4,0.9
	c-0.4,0.6-0.6,1.2-0.5,1.9V582c0,3.7-2.2,7-5.6,8.4h-4.2c-1.9-0.9-2.7-3.1-1.8-4.9c0.1-0.2,0.2-0.5,0.4-0.7c2.7,0.1,5-2,5.1-4.8
	c0-0.5,0-1-0.2-1.5v-15.4c-0.1-0.7-0.3-1.4-0.7-2.1c-0.8-1.3-2-2.3-3.5-2.8h-53.1c-2.4,0.5-4.4,2.4-4.9,4.9v24.5l-2.1,2.8h-10.5
	c-2.1-1.3-2.8-4.2-1.4-6.3c0.4-0.6,0.8-1.1,1.4-1.4h5.6v-20.3c0.2-0.7,0.2-1.4,0-2.1c-0.5-1.2-1.6-2-2.8-2.1l-22.4,0.7
	c-2.1,0.3-4-1.2-4.3-3.3c-0.1-0.5,0-1.1,0.1-1.6v-6.3c-0.1-0.7-0.3-1.4-0.7-2.1c-1.2-2-3.3-3.3-5.6-3.5L92.7,547v-10.5
	c0.8-0.9,1.7-1.6,2.8-2.1c0.9-0.4,1.8-0.6,2.8-0.7c-2.8-0.2-5-2.2-5.6-4.9L92.6,519.8z"/>
<path class="st0" d="M162.5,432.4c0.8-1.3,1.7-2.5,2.8-3.5c0.9-0.8,1.8-1.5,2.8-2.1H224c1.6,0.6,3,1.6,4.2,2.8
	c0.8,0.8,1.5,1.8,2.1,2.8v104.9c-0.9,2.1-2.7,3.6-4.9,4.2h-57.3c-1-0.2-2-0.7-2.8-1.4c-1.2-1.1-2-2.6-2.1-4.2
	C163,501.4,162.8,466.9,162.5,432.4z"/>
<path class="st0" d="M221.9,409.3h48.2c2.5,0.2,4.7,1.9,5.6,4.2c-0.2,2.3-0.5,4.7-0.7,7c0.5,3.1,2.6,5.2,4.9,5.6
	c1.2,0.2,2.4-0.1,3.5-0.7l15.4-2.1v9.8c-0.5,1.1-1.2,2.1-2.1,2.8c-0.8,0.7-1.8,1.1-2.8,1.4c1,0.4,1.9,0.9,2.8,1.4
	c0.7,0.4,1.4,0.9,2.1,1.4v10.5c-5.7-1.9-13.1-4.5-16.8-5.6c-3.5-1-6.9-2.7-9.8-4.9c-2.2-1.7-4.1-3.9-5.6-6.3c-1-2-1.4-6.6-4.2-9.8
	c-0.4-0.5-0.9-1-1.4-1.4h-18.2c-0.7-0.2-1.4-0.2-2.1,0c-1.2,0.5-1.9,1.5-2.1,2.8c0.5,17,0.9,34,1.4,51l-4.2,4.2l-2.1-2.1
	c-0.2-17.2-0.5-34.5-0.7-51.7c0.3-0.7,0.3-1.4,0-2.1c-0.6-1.4-2-2.2-3.5-2.1h-67.1c-0.8,0-1.5,0.2-2.1,0.7c-0.9,0.7-1.4,1.7-1.4,2.8
	v51l-2.8,3.5l-4.2-3.5v-51c0-0.8-0.3-1.5-0.7-2.1c-0.5-0.7-1.2-1.2-2.1-1.4h-17.5c-1.2,4-3.1,7.8-5.6,11.2c-2.3,3.1-5.1,5.7-8.4,7.7
	c-2.6,1.5-6,2.1-7.7,2.8c-3.6,1.4-6,3.1-9.8,4.2c-2.7,0.8-5.5,1.3-8.4,1.4v-9.8c0.9-0.6,1.8-1.1,2.8-1.4c1.3-0.5,2.8-0.7,4.2-0.7
	c-2.7-1.4-5.1-3.3-7-5.6V424l16.1,2.1c2.7,1.1,5.9,0.3,7.7-2.1c1.1-1.7,1.4-3.7,0.7-5.6c-1.1-3.1,0-6.6,2.8-8.4h27.3v-18.8
	c0.2-0.7,0.2-1.4,0-2.1c-0.3-1-1.1-1.8-2.1-2.1h-4.9c-1.7-1.5-1.9-4.2-0.4-5.9c0.1-0.1,0.2-0.2,0.4-0.4H152
	c0.2,9.8,0.5,19.6,0.7,29.4h59.4c1,0.3,2.1,0,2.8-0.7c0.4-0.4,0.6-0.9,0.7-1.4v-16.8c0.3-2.3-0.8-4.5-2.8-5.6h-3.5
	c-0.8-1.2-1.1-2.8-0.7-4.2c0.2-0.5,0.4-1,0.7-1.4h5.6c3.3,0.7,5.9,3.1,7,6.3L221.9,409.3z"/>
<path class="st0" d="M188.4,405.8c3.1,2.6,7.1,3.8,11.2,3.5c3.1-0.2,6-1.5,8.4-3.5c1.9-1.7,2.7-4,4.2-7c2.2-4.5,3.9-6.8,2.8-9.1
	c-0.7-1.4-2-2.4-3.5-2.8l-4.2-2.1v-11.2c-2.8-21.4-17-39.6-37.1-47.5c-1.9-0.3-3.5-1.6-4.2-3.5c-0.7-2.5,0.5-5.1,2.8-6.3l8.4-2.1
	c1.1-0.1,2-1,2.1-2.1c-0.1-1.3-1.2-2.2-2.5-2.1c-0.1,0-0.2,0-0.3,0c-3.3,0.5-6.3-1.7-7-4.9v-10.5c-44.1-8.8-86.9,19.9-95.6,64
	c-1.2,5.9-1.7,11.9-1.5,17.8c-0.2,1.3,0.7,2.6,2.1,2.8c0.2,0,0.5,0,0.7,0h17.5v9.8H87l-2.1,2.8c2,5.3,5.1,10,9.1,14
	c13.7,1.9,27.6,1.9,41.2,0c3.3-3.4,6-7.5,7.7-11.9c1-2.5-0.3-5.3-2.8-6.3h-3.5v-7.7h24.5L188.4,405.8z"/>
<path class="st0" d="M137.3,317.7c0-2.8,1.3-5.4,3.5-7c3-2,6.8-2,9.8,0c4.1,2.4,5.4,7.6,3,11.7c-0.7,1.2-1.8,2.3-3,3
	c-3.1,1.7-6.9,1.4-9.8-0.7C138.7,323,137.4,320.5,137.3,317.7z"/>
<path class="st0" d="M97.5,371.6c15,0.9,29.7,1.4,44.8,1.4c15.5,0,30.7-0.5,46.1-1.4c-4.6-13.6-15.6-24-29.4-28
	c-3.1-1.2-6.4-1.9-9.8-2.1c-3.8-0.2-7,1-11.2,0c-6-1.4-7.2-5.1-12.6-6.3c-5.2-1.2-10.9,0.7-16.8,4.9
	C102.1,349.3,98.2,360.2,97.5,371.6L97.5,371.6z"/>
<path class="st0" d="M103.7,382.8h22.4c0.8,0.5,1.5,1.3,2.1,2.1c0.3,0.4,0.5,0.9,0.7,1.4c0.9,3,0.9,6.1,0,9.1
	c-4.1,3.2-8.9,5.3-14,6.3c-5.2-0.9-10.2-2.8-14.7-5.6c-0.6-2-0.8-4.2-0.7-6.3c0.1-1.4,0.3-2.8,0.7-4.2c0.4-0.5,0.9-1,1.4-1.4
	C102.3,383.6,103,383.1,103.7,382.8z"/>
<path class="st0" d="M475,386.2v-4.9c3.6,0.8,6.7,3.1,8.4,6.3c1.9,4.9,1.9,10.4,0,15.4c-1.3,3.7-4.5,6.4-8.4,7v-5.6h-4.2
	c-1.3-0.2-2.6,0.7-2.8,2.1c0,0.2,0,0.5,0,0.7v7c-1,1.1-2.2,2-3.5,2.8c-1.1,0.6-2.3,1.1-3.5,1.4c-2.5,0.5-5.1,0.7-7.7,0.7
	c-2.3,0-4.7-0.3-7-0.7c-1.2-0.6-2.4-1.3-3.5-2.1c-1.5-1-2.9-2.2-4.2-3.5c-0.5-5.8-0.7-11.6-0.7-17.5c0-5.4,0.2-10.7,0.7-16.1
	c5.4-7.6,15.8-9.7,23.8-4.9c0.7,0.4,1.5,0.8,2.3,1.1c0.9,0.4,1.7,0.7,2.6,1v7c-0.2,1.1,0.4,2.3,1.4,2.8c0.5,0.2,0.9,0.2,1.4,0
	L475,386.2z"/>
<path class="st0" d="M469.4,391.9c-0.8,1-1.3,2.2-1.4,3.5c-0.1,1.5,0.4,3,1.4,4.2h9.1c1.4-0.9,2.2-2.5,2.1-4.2
	c-0.1-1.4-0.9-2.7-2.1-3.5H469.4z"/>
<path class="st0" d="M461,385.5c-3.9-3.8-10.1-3.8-14,0c-1,6.7-1,13.6,0,20.3c4.2,2.8,9.8,2.8,14,0c0.5-3.7,0.8-7.4,0.7-11.2
	C461.7,391.6,461.5,388.6,461,385.5z"/>
<path class="st0" d="M259.7,268.1c1.1,0,2.1-0.5,2.8-1.4c0.4-0.6,0.7-1.3,0.7-2.1v-4.9c2.7-4.4,6.2-8.3,10.5-11.2
	c2.6-1.8,5.4-3.2,8.4-4.2c6.2-2.2,12.5-4.1,18.9-5.6v9.8c-0.6,0.8-1.3,1.5-2.1,2.1c-1.2,1-2.7,1.7-4.2,2.1c2.6,0.5,4.8,2,6.2,4.2
	v10.5l-18.2-3.5c-1.7-0.5-3.4-0.3-4.9,0.7c-1,0.7-1.7,1.7-2.1,2.8v7c0.1,1.3-0.4,2.6-1.4,3.5c-0.4,0.3-0.9,0.6-1.4,0.7h-23.7
	c-2,0-3.6,1.7-3.5,3.7c0,0.2,0,0.4,0,0.5v15.4c-0.3,1,0,2.1,0.7,2.8c0.4,0.4,0.9,0.6,1.4,0.7h4.9c1.9,2.5,1.9,5.9,0,8.4h-9.1
	c-2.4-0.5-4.4-2.5-4.9-4.9v-21.7c0.2-0.7,0.2-1.4,0-2.1c-0.5-1.6-2.4-2.8-4.9-2.8H182c-2.5,0-4.6,1.8-4.9,4.2v16.1
	c-0.5,1.2-0.2,2.6,0.7,3.5c0.4,0.4,0.9,0.6,1.4,0.7h2.8c1,0.9,1.5,2.2,1.4,3.5c-0.1,1.1-0.6,2.1-1.4,2.8c-4.9,1.3-8.9-0.1-10.5-2.8
	c-0.6-1.1-0.8-2.3-0.7-3.5v-21c0-0.8-0.3-1.5-0.7-2.1c-0.5-0.7-1.3-1.2-2.1-1.4h-48.2c-0.8,0-1.5-0.2-2.1-0.7
	c-0.9-0.7-1.4-1.7-1.4-2.8v-7c-0.1-1.3-0.6-2.5-1.4-3.5c-1.2-1.4-3-2.2-4.9-2.1L93.3,266v-9.1c1.4-2.1,3.8-3.4,6.3-3.5
	c-1.2-0.3-2.4-0.8-3.5-1.4c-1-0.6-2-1.3-2.8-2.1v-10.5l16.1,5.6c3.2,0.2,6.3,1.2,9.1,2.8c5.7,3.5,9.6,9.4,10.5,16.1
	c-0.3,2,1,3.8,2.9,4.1c0.2,0,0.4,0,0.6,0.1h16.8c1.4,0.2,2.6-0.7,2.8-2.1c0-0.2,0-0.5,0-0.7v-53.1l4.2-2.8l2.8,2.1l0.7,53.1
	c-0.1,0.8,0.2,1.5,0.7,2.1c0.4,0.4,0.9,0.6,1.4,0.7l68.5,0.7c0.8-0.2,1.6-0.7,2.1-1.4c0.4-0.6,0.7-1.3,0.7-2.1
	c-0.2-17.2-0.5-34.5-0.7-51.7l3.5-4.2l3.5,2.8c0.2,17.2,0.5,34.5,0.7,51.7c0.7,1.6,1.4,3.3,2.1,4.9H259.7z"/>
<path class="st0" d="M180,181.4h31.5c2.3,1.2,4.1,3.2,4.9,5.6v68.5c0.1,1.5-0.4,3-1.4,4.2c-0.9,1.1-2.1,1.8-3.5,2.1h-30.1
	c-1.6-0.2-3.1-1-4.2-2.1c-1.1-1.1-1.9-2.6-2.1-4.2V187C175.9,184.6,177.7,182.6,180,181.4z"/>
<path class="st0" d="M273,165.3c1.3-0.2,2.6,0.7,2.8,2.1c0,0.2,0,0.5,0,0.7v6.3c0.1,1.6,0.9,3.1,2.1,4.2c1.5,1.3,3.6,1.8,5.6,1.4
	l17.5-2.8v9.1c-0.8,0.8-1.8,1.5-2.8,2.1c-1.1,0.6-2.3,1.1-3.5,1.4c1.2,0.6,2.4,1.3,3.5,2.1c1,0.7,1.9,1.4,2.8,2.1v9.8
	c-2.1-0.4-4.2-0.8-6.3-1.4c-3.3-0.9-6.6-2.1-9.8-3.5c-3.5-0.8-6.8-2.2-9.8-4.2c-4.9-3.3-8.8-7.9-11.2-13.3c0.1-2.4-1-4.7-2.8-6.3
	H231c-2,0-3.6,1.7-3.6,3.6c0,0.2,0,0.4,0.1,0.6v51l-4.2,4.2l-2.8-3.5v-51.7c-0.1-0.7-0.3-1.5-0.7-2.1c-0.6-1-1.6-1.8-2.8-2.1h-41.9
	c-1.9,0.3-3.5,1.7-4.2,3.5V231l-2.1,2.8l-4.2-4.2c-0.2-16.8-0.5-33.6-0.7-50.3c0.1-0.5,0.1-0.9,0-1.4c-0.3-1-1.1-1.8-2.1-2.1h-29.4
	c-0.7,0.4-1.5,0.9-2.1,1.4c-0.5,0.4-1,0.9-1.4,1.4c-0.4,3.5-1.6,6.9-3.5,9.8c-3.6,5.2-9.1,8.8-15.4,9.8l-18.2,5.6V194
	c0.8-0.9,1.7-1.6,2.8-2.1c1.1-0.5,2.3-0.7,3.5-0.7c-1.5-0.4-2.9-1.1-4.2-2.1c-0.8-0.6-1.5-1.3-2.1-2.1v-10.5l21,4.2
	c0.8-0.3,1.5-0.8,2.1-1.4c0.9-1,1.4-2.2,1.4-3.5v-8.4c0.1-0.5,0.3-1,0.7-1.4c0.4-0.4,0.9-0.6,1.4-0.7H273z"/>
<path class="st0" d="M271.6,10.8c4.8,1.4,7.6,6.4,6.3,11.2h-14v9.8l2.1,2.8h3.5c1.3,0.5,2.3,1.5,2.8,2.8c0.7,2,0.1,4.2-1.4,5.6
	c-7.9,2.4-15.5,5.9-22.4,10.5c-12.6,8.4-22.7,20-29.4,33.6c-2.5,2.2-5.1,3.6-7,2.8c-3.7-1.5-3-10.7-2.1-15.4
	c0.5-2.9,1.5-5.7,2.8-8.4c1.9-3,4-5.8,6.3-8.4c1.5-1.7,3.2-3.4,4.9-4.9c1.1-1.4,1.6-3.1,1.4-4.9c-0.1-1.3-0.6-2.5-1.4-3.5
	c-6-2.9-10.7-7.9-13.3-14c-3.2-6-3.5-13.3,0-18.9c2-3.2,4.9-5.6,8.4-7c7.5,0.2,14.9,0.6,22.4,1.4C251.6,7,261.7,8.6,271.6,10.8z"/>
<path class="st0" d="M250.6,24.8c0.9,3.9,0.9,8,0,11.9c-0.5,1.9-2.3,3.1-4.2,2.8c-1-0.3-1.8-1.1-2.1-2.1c-1.9-4.5-1.9-9.5,0-14
	c0.5-0.7,1.2-1.2,2.1-1.4C248.3,21.8,250,23,250.6,24.8z"/>
<path class="st0" d="M229.6,34.6c-0.7,2.7-3.5,4.2-6.1,3.5c-0.6-0.2-1.1-0.4-1.6-0.7c-1.5-1.3-2.9-2.7-4.2-4.2
	c-2.2-2.6-4.1-5.4-5.6-8.4c-0.2-1.9-0.2-3.7,0-5.6c0.1-1.4,0.4-2.8,0.7-4.2c0.5-0.7,1.2-1.2,2.1-1.4c0.5-0.1,0.9-0.1,1.4,0
	c1.3,1.3,2.7,2.4,4.2,3.5c2.4,1.7,5,3.1,7.7,4.2c0.7,2.5,1.2,5.1,1.4,7.7C229.8,30.9,229.8,32.7,229.6,34.6z"/>
<path class="st0" d="M59,21.3c0.6,13.8,0.9,27.4,0.7,41.2c-0.1,8-0.3,15.8-0.7,23.8l-22.4-0.7V65.3c-0.9-0.3-1.8-0.5-2.8-0.7
	c-1.6-0.3-2.5-0.4-3.5,0c-1.3,0.6-1.9,2-2.8,2.8c-0.8,0.7-1.8,1.2-2.8,1.4c-2.7-1-4.9-3-6.3-5.6c-1.9-6.9-1.9-14.1,0-21
	c1.3-1.3,2.7-2.4,4.2-3.5c0.7-0.5,1.4-1,2.1-1.4c1-1,2.5-1,3.5,0l0,0v2.8c0.9,0.4,1.8,0.6,2.8,0.7c0.5,0,0.9,0,1.4,0
	c0.5-0.2,1-0.4,1.4-0.7c1.1-0.7,2.1-1.7,2.8-2.8v-16H59z"/>
<path class="st0" d="M31.7,49.3c1.5,1.1,2.3,3,2.1,4.9c-0.2,1.4-1,2.7-2.1,3.5c-2.5,1.9-5.9,1.9-8.4,0c-1.9-2.5-1.9-5.9,0-8.4
	C25.8,47.4,29.3,47.4,31.7,49.3z"/>
</svg>
