<?xml version="1.0" encoding="utf-8"?>
<!-- Generator: Adobe Illustrator 26.0.1, SVG Export Plug-In . SVG Version: 6.00 Build 0)  -->
<svg version="1.1" id="Layer_1" xmlns="http://www.w3.org/2000/svg" xmlns:xlink="http://www.w3.org/1999/xlink" x="0px" y="0px"
	 viewBox="0 0 1030.6 1368.3" style="enable-background:new 0 0 1030.6 1368.3;" xml:space="preserve">
<style type="text/css">
	.st0{clip-path:url(#SVGID_00000139285302890760565820000011009591517425416873_);}
	.st1{fill:none;stroke:#646464;stroke-width:60;stroke-linecap:round;stroke-linejoin:round;}
</style>
<g>
	<defs>
		<rect id="SVGID_1_" x="-18.7" y="-35.9" width="1068" height="1440"/>
	</defs>
	<clipPath id="SVGID_00000057126332542938808240000016096534510783592328_">
		<use xlink:href="#SVGID_1_"  style="overflow:visible;"/>
	</clipPath>
	<g style="clip-path:url(#SVGID_00000057126332542938808240000016096534510783592328_);">
		<line class="st1" x1="433.8" y1="569.9" x2="433.3" y2="413.9"/>
		<line class="st1" x1="487.5" y1="412.6" x2="487.7" y2="569.5"/>
		<line class="st1" x1="828.8" y1="404" x2="497.2" y2="403.3"/>
		<line class="st1" x1="837.2" y1="473" x2="837.6" y2="414.4"/>
		<line class="st1" x1="853.8" y1="472.7" x2="837.2" y2="473"/>
		<line class="st1" x1="854" y1="410.5" x2="853.8" y2="472.7"/>
		<line class="st1" x1="433.3" y1="413.9" x2="450.5" y2="414"/>
		<line class="st1" x1="364.7" y1="367.9" x2="280.5" y2="368.1"/>
		<line class="st1" x1="378.5" y1="173.4" x2="378.6" y2="254.7"/>
		<line class="st1" x1="360.4" y1="170.7" x2="376" y2="170.7"/>
		<line class="st1" x1="335.8" y1="98.6" x2="335.5" y2="141.9"/>
		<line class="st1" x1="417.1" y1="396.1" x2="416.8" y2="600"/>
		<line class="st1" x1="402.4" y1="395.1" x2="324.2" y2="597"/>
		<line class="st1" x1="453.4" y1="618.8" x2="504.7" y2="618.6"/>
		<line class="st1" x1="454.2" y1="631.9" x2="451.3" y2="624.5"/>
		<line class="st1" x1="505.5" y1="693.9" x2="460.1" y2="694.3"/>
		<line class="st1" x1="507.9" y1="622" x2="507.9" y2="691.8"/>
		<line class="st1" x1="938.3" y1="853.3" x2="966.1" y2="853.1"/>
		<line class="st1" x1="966.2" y1="880.8" x2="938.1" y2="880.6"/>
		<line class="st1" x1="912.4" y1="880.5" x2="911.2" y2="880.6"/>
		<line class="st1" x1="911.1" y1="854.3" x2="912.5" y2="854.3"/>
		<line class="st1" x1="911.3" y1="825.1" x2="911.1" y2="854.3"/>
		<line class="st1" x1="965.1" y1="813.2" x2="870.1" y2="813.2"/>
		<line class="st1" x1="872" y1="707.2" x2="912.4" y2="707.1"/>
		<line class="st1" x1="913.9" y1="491.5" x2="914" y2="705"/>
		<line class="st1" x1="968.4" y1="704.4" x2="968.9" y2="493.5"/>
		<line class="st1" x1="924.6" y1="493.4" x2="925" y2="702.9"/>
		<line class="st1" x1="968.4" y1="475.1" x2="968.6" y2="399.5"/>
		<line class="st1" x1="914.3" y1="400.2" x2="913.9" y2="475.6"/>
		<line class="st1" x1="428.2" y1="602.5" x2="428.1" y2="400.5"/>
		<line class="st1" x1="505.7" y1="607.9" x2="438.4" y2="608.2"/>
		<line class="st1" x1="509.2" y1="597.4" x2="509.2" y2="604.7"/>
		<line class="st1" x1="632.2" y1="545.6" x2="620.5" y2="545.5"/>
		<line class="st1" x1="634.2" y1="562" x2="634.1" y2="547.7"/>
		<line class="st1" x1="653.4" y1="564.5" x2="636.8" y2="564.4"/>
		<line class="st1" x1="762.7" y1="543.1" x2="762.6" y2="568.2"/>
		<line class="st1" x1="821.2" y1="490" x2="857.2" y2="489.9"/>
		<line class="st1" x1="859.5" y1="378" x2="859.4" y2="475.6"/>
		<line class="st1" x1="518.6" y1="375.4" x2="566.5" y2="375.3"/>
		<line class="st1" x1="486.8" y1="384.5" x2="518.6" y2="375.4"/>
		<line class="st1" x1="432.7" y1="396.3" x2="443.7" y2="395.8"/>
		<line class="st1" x1="1000.5" y1="910.8" x2="1000.6" y2="313"/>
		<line class="st1" x1="843.5" y1="939.7" x2="968.4" y2="939.4"/>
		<line class="st1" x1="839" y1="895.9" x2="838.6" y2="934.5"/>
		<line class="st1" x1="854.8" y1="907.9" x2="854.8" y2="892.6"/>
		<line class="st1" x1="883.5" y1="911.3" x2="857.8" y2="911.3"/>
		<line class="st1" x1="887.6" y1="841.1" x2="887.5" y2="907.5"/>
		<line class="st1" x1="841" y1="854.8" x2="855.4" y2="854.8"/>
		<line class="st1" x1="838.6" y1="727.3" x2="839.3" y2="850.7"/>
		<line class="st1" x1="711.7" y1="679.6" x2="711.1" y2="695.8"/>
		<line class="st1" x1="749.7" y1="680.8" x2="717.4" y2="675.9"/>
		<line class="st1" x1="538.8" y1="594.5" x2="750.6" y2="594.3"/>
		<line class="st1" x1="378.6" y1="254.7" x2="361.9" y2="299"/>
		<line class="st1" x1="545.5" y1="680.2" x2="538.5" y2="680.7"/>
		<line class="st1" x1="572.3" y1="675.7" x2="545.5" y2="680.2"/>
		<line class="st1" x1="578.2" y1="696.2" x2="578" y2="680.3"/>
		<line class="st1" x1="559.9" y1="699.2" x2="575.4" y2="699.2"/>
		<line class="st1" x1="912.8" y1="905.9" x2="965.6" y2="905.9"/>
		<line class="st1" x1="557" y1="721.3" x2="556.9" y2="702.2"/>
		<line class="st1" x1="424.7" y1="671.2" x2="433.5" y2="717.3"/>
		<line class="st1" x1="278.5" y1="114.9" x2="278.4" y2="365.3"/>
		<line class="st1" x1="424.5" y1="636.9" x2="424.7" y2="671.2"/>
		<line class="st1" x1="362" y1="631.6" x2="420.9" y2="631.4"/>
		<line class="st1" x1="856" y1="478.5" x2="821.3" y2="478.4"/>
		<line class="st1" x1="277.9" y1="632.2" x2="338.4" y2="631.5"/>
		<line class="st1" x1="250.3" y1="690.8" x2="268.7" y2="690.8"/>
		<line class="st1" x1="407.7" y1="87.3" x2="408" y2="49"/>
		<line class="st1" x1="870.4" y1="723" x2="965.4" y2="722.8"/>
		<line class="st1" x1="859.7" y1="492.8" x2="859.9" y2="697.3"/>
		<line class="st1" x1="383.8" y1="71.1" x2="387.9" y2="71.1"/>
		<line class="st1" x1="872.6" y1="489.8" x2="912.2" y2="489.9"/>
		<line class="st1" x1="360.8" y1="78.5" x2="383.8" y2="71.1"/>
		<line class="st1" x1="677.3" y1="564.5" x2="672.5" y2="549.8"/>
		<line class="st1" x1="392.2" y1="128.6" x2="392.2" y2="141.4"/>
		<line class="st1" x1="235.5" y1="1315.6" x2="204.2" y2="1315.6"/>
		<line class="st1" x1="404.1" y1="128.8" x2="392.2" y2="128.6"/>
		<line class="st1" x1="927.7" y1="397" x2="966.2" y2="396.6"/>
		<line class="st1" x1="515.9" y1="345.5" x2="441.8" y2="366.2"/>
		<line class="st1" x1="515.9" y1="345.5" x2="854.9" y2="346.2"/>
		<line class="st1" x1="611.1" y1="564.5" x2="539.6" y2="564.8"/>
		<line class="st1" x1="854.5" y1="295.7" x2="850.3" y2="313.5"/>
		<line class="st1" x1="460.1" y1="694.3" x2="454" y2="670.3"/>
		<line class="st1" x1="951.4" y1="292.8" x2="992" y2="292.9"/>
		<line class="st1" x1="952.3" y1="313.2" x2="966.5" y2="313.2"/>
		<line class="st1" x1="537.8" y1="679.8" x2="537.8" y2="596.3"/>
		<line class="st1" x1="1000.5" y1="301.4" x2="1000.6" y2="313"/>
		<line class="st1" x1="295.2" y1="958" x2="295" y2="1046.6"/>
		<line class="st1" x1="850.3" y1="313.5" x2="865.5" y2="313.2"/>
		<line class="st1" x1="911.7" y1="478.3" x2="872.7" y2="478.1"/>
		<line class="st1" x1="650.8" y1="1200.6" x2="651.5" y2="960.6"/>
		<line class="st1" x1="927.9" y1="707.1" x2="966" y2="707.1"/>
		<line class="st1" x1="878.4" y1="272.5" x2="890.4" y2="272.9"/>
		<line class="st1" x1="315.3" y1="1219" x2="631" y2="1218.8"/>
		<line class="st1" x1="494.1" y1="387.1" x2="829.8" y2="387.2"/>
		<line class="st1" x1="913.9" y1="855.7" x2="913.9" y2="879.1"/>
		<line class="st1" x1="438.1" y1="723.4" x2="554.6" y2="723.3"/>
		<line class="st1" x1="295.2" y1="1111.4" x2="294.8" y2="1200.1"/>
		<line class="st1" x1="516" y1="914.8" x2="515.8" y2="929"/>
		<line class="st1" x1="965.8" y1="367.7" x2="895.4" y2="367.8"/>
		<line class="st1" x1="311.3" y1="1111.1" x2="295.2" y2="1111.4"/>
		<line class="st1" x1="781.7" y1="689.1" x2="781.8" y2="591.5"/>
		<line class="st1" x1="629.3" y1="1202.2" x2="316.4" y2="1202.9"/>
		<line class="st1" x1="281.2" y1="378.8" x2="381.1" y2="378.5"/>
		<line class="st1" x1="784" y1="375.1" x2="856.7" y2="375.2"/>
		<line class="st1" x1="66.3" y1="670.4" x2="114.6" y2="657.1"/>
		<line class="st1" x1="612" y1="1315.8" x2="580.2" y2="1315.6"/>
		<line class="st1" x1="66.9" y1="928.8" x2="149.7" y2="928.2"/>
		<line class="st1" x1="278" y1="382" x2="277.9" y2="600"/>
		<line class="st1" x1="392.2" y1="89.4" x2="405.7" y2="89.7"/>
		<line class="st1" x1="364.7" y1="913.6" x2="364.8" y2="927.8"/>
		<line class="st1" x1="63.2" y1="676.2" x2="62.8" y2="923.9"/>
		<line class="st1" x1="103.2" y1="1078.8" x2="65.6" y2="1078.6"/>
		<line class="st1" x1="748.4" y1="150.1" x2="754.3" y2="154.9"/>
		<line class="st1" x1="119.8" y1="1233.2" x2="201.7" y2="1233.4"/>
		<line class="st1" x1="870.3" y1="491.9" x2="869.9" y2="704.6"/>
		<line class="st1" x1="205.4" y1="1082.9" x2="205.2" y2="1228.6"/>
		<line class="st1" x1="62.8" y1="1081.3" x2="63.1" y2="1229.3"/>
		<line class="st1" x1="106.2" y1="1082.9" x2="106" y2="1228.8"/>
		<line class="st1" x1="376.2" y1="915" x2="376.2" y2="927.5"/>
		<line class="st1" x1="121.7" y1="1078.5" x2="201" y2="1078.4"/>
		<line class="st1" x1="754.3" y1="154.9" x2="762.2" y2="160.6"/>
		<line class="st1" x1="116.6" y1="1083.3" x2="115.8" y2="1227.9"/>
		<line class="st1" x1="645.3" y1="918.8" x2="645.2" y2="926.3"/>
		<line class="st1" x1="166.2" y1="938.8" x2="173.7" y2="945.1"/>
		<line class="st1" x1="66.1" y1="939" x2="166.2" y2="938.8"/>
		<line class="st1" x1="63.9" y1="940.8" x2="63.3" y2="1064.6"/>
		<line class="st1" x1="358.9" y1="142.1" x2="358.8" y2="82.4"/>
		<line class="st1" x1="199.1" y1="955.6" x2="203.1" y2="956.4"/>
		<line class="st1" x1="450.5" y1="414" x2="450" y2="570.5"/>
		<line class="st1" x1="618.1" y1="547.3" x2="613.9" y2="562.1"/>
		<line class="st1" x1="311" y1="1197.4" x2="311.3" y2="1111.1"/>
		<line class="st1" x1="739.2" y1="140.8" x2="744.6" y2="146.6"/>
		<line class="st1" x1="189.4" y1="952.4" x2="192.1" y2="953.5"/>
		<line class="st1" x1="667.7" y1="545.2" x2="657.7" y2="545.2"/>
		<line class="st1" x1="185" y1="954.2" x2="121.3" y2="1063.1"/>
		<line class="st1" x1="215.8" y1="960.2" x2="215.6" y2="1228.7"/>
		<line class="st1" x1="640.2" y1="859.3" x2="650.7" y2="878.9"/>
		<line class="st1" x1="679.6" y1="1025.2" x2="749.7" y2="1024.8"/>
		<line class="st1" x1="752.7" y1="1230.3" x2="753" y2="1028.4"/>
		<line class="st1" x1="676" y1="1028.5" x2="675.6" y2="1229.3"/>
		<line class="st1" x1="750" y1="957.2" x2="725.8" y2="957.2"/>
		<line class="st1" x1="285.6" y1="949.1" x2="283.1" y2="949.1"/>
		<line class="st1" x1="752.3" y1="1011.7" x2="752.6" y2="959.4"/>
		<line class="st1" x1="664.8" y1="1014.6" x2="660.9" y2="1014.5"/>
		<line class="st1" x1="715.3" y1="968.9" x2="715.3" y2="957"/>
		<line class="st1" x1="675.2" y1="959.6" x2="675.7" y2="1011.1"/>
		<line class="st1" x1="195.5" y1="954.5" x2="199.1" y2="955.6"/>
		<line class="st1" x1="283" y1="921.9" x2="293.4" y2="914.1"/>
		<line class="st1" x1="342.9" y1="636.5" x2="343.1" y2="653.1"/>
		<line class="st1" x1="282.5" y1="960" x2="285.7" y2="960.1"/>
		<line class="st1" x1="679" y1="1014.4" x2="749.6" y2="1014.3"/>
		<line class="st1" x1="924.4" y1="399.7" x2="924.4" y2="475.2"/>
		<line class="st1" x1="192.1" y1="953.5" x2="195.5" y2="954.5"/>
		<line class="st1" x1="293.4" y1="914.1" x2="364.7" y2="913.6"/>
		<line class="st1" x1="285" y1="1164.9" x2="282.5" y2="1165"/>
		<line class="st1" x1="65.8" y1="1233.4" x2="102.7" y2="1233.6"/>
		<line class="st1" x1="784.8" y1="187.2" x2="821.5" y2="186.1"/>
		<line class="st1" x1="282.9" y1="1175.5" x2="285.4" y2="1175.2"/>
		<line class="st1" x1="205.4" y1="1064.7" x2="205.5" y2="959.3"/>
		<line class="st1" x1="283.1" y1="1231.6" x2="282.9" y2="1175.5"/>
		<line class="st1" x1="968.3" y1="725.9" x2="968.1" y2="810.5"/>
		<line class="st1" x1="735.1" y1="723.5" x2="832.8" y2="723.1"/>
		<line class="st1" x1="391.1" y1="304.7" x2="407.4" y2="260.5"/>
		<line class="st1" x1="734.5" y1="874.3" x2="750.3" y2="874.1"/>
		<line class="st1" x1="596.2" y1="1230.2" x2="596.1" y2="1233.7"/>
		<line class="st1" x1="607.5" y1="1233.6" x2="607.5" y2="1230.4"/>
		<line class="st1" x1="661.3" y1="1233.6" x2="607.5" y2="1233.6"/>
		<line class="st1" x1="280.1" y1="111.4" x2="331" y2="96.5"/>
		<line class="st1" x1="393" y1="390.9" x2="311.4" y2="601.3"/>
		<line class="st1" x1="665" y1="1175.9" x2="665.1" y2="1230.5"/>
		<line class="st1" x1="661" y1="1175.8" x2="665" y2="1175.9"/>
		<line class="st1" x1="947.5" y1="296.1" x2="952.3" y2="313.2"/>
		<line class="st1" x1="968.7" y1="850" x2="968.6" y2="825.8"/>
		<line class="st1" x1="665.1" y1="1165.7" x2="661.1" y2="1165.6"/>
		<line class="st1" x1="665.1" y1="1025.4" x2="665.1" y2="1165.7"/>
		<line class="st1" x1="854.8" y1="892.6" x2="842.2" y2="892.8"/>
		<line class="st1" x1="311.4" y1="1046.3" x2="311.8" y2="959.5"/>
		<line class="st1" x1="661.6" y1="1025.4" x2="665.1" y2="1025.4"/>
		<line class="st1" x1="664.2" y1="954.2" x2="664.8" y2="1014.6"/>
		<line class="st1" x1="526.5" y1="914.7" x2="641.5" y2="914.4"/>
		<line class="st1" x1="687.5" y1="1331.3" x2="684.5" y2="1316.4"/>
		<line class="st1" x1="629.7" y1="939.8" x2="318.4" y2="938.1"/>
		<line class="st1" x1="526.7" y1="929.2" x2="526.5" y2="914.7"/>
		<line class="st1" x1="192" y1="607" x2="191.8" y2="646.8"/>
		<line class="st1" x1="935" y1="877.4" x2="935" y2="856.4"/>
		<line class="st1" x1="364.5" y1="1233.4" x2="285.6" y2="1234"/>
		<line class="st1" x1="181.8" y1="606.1" x2="184.9" y2="605.1"/>
		<line class="st1" x1="280.5" y1="602.6" x2="309.6" y2="602.5"/>
		<line class="st1" x1="634.3" y1="959.6" x2="634.1" y2="1197.9"/>
		<line class="st1" x1="176" y1="649.5" x2="189.8" y2="649.5"/>
		<line class="st1" x1="146.8" y1="637.7" x2="170.1" y2="631.6"/>
		<line class="st1" x1="247.1" y1="104.7" x2="245.9" y2="685.4"/>
		<line class="st1" x1="144.1" y1="702.2" x2="144.2" y2="641.5"/>
		<line class="st1" x1="926.9" y1="313.6" x2="909.5" y2="340.7"/>
		<line class="st1" x1="272.5" y1="1229.3" x2="272.5" y2="938.4"/>
		<line class="st1" x1="713.9" y1="699.5" x2="729" y2="699.4"/>
		<line class="st1" x1="356.4" y1="653.1" x2="356.5" y2="636.4"/>
		<line class="st1" x1="928" y1="302" x2="926.9" y2="313.6"/>
		<line class="st1" x1="171.7" y1="874" x2="192.9" y2="819.4"/>
		<line class="st1" x1="401" y1="44.4" x2="265.4" y2="80.9"/>
		<line class="st1" x1="970.9" y1="318.4" x2="970.9" y2="362.6"/>
		<line class="st1" x1="123.2" y1="1068.2" x2="201.4" y2="1068.2"/>
		<line class="st1" x1="376.2" y1="915" x2="516" y2="914.8"/>
		<line class="st1" x1="673.5" y1="908.1" x2="687.2" y2="860.9"/>
		<line class="st1" x1="751.5" y1="928.6" x2="679.5" y2="928.8"/>
		<line class="st1" x1="966.4" y1="823.7" x2="912.8" y2="823.7"/>
		<line class="st1" x1="732.4" y1="702.3" x2="732.1" y2="720.2"/>
		<line class="st1" x1="730.6" y1="856.9" x2="734.5" y2="874.3"/>
		<line class="st1" x1="454" y1="670.3" x2="454.2" y2="631.9"/>
		<line class="st1" x1="924.3" y1="294" x2="928" y2="302"/>
		<line class="st1" x1="282.5" y1="1165" x2="282.5" y2="960"/>
		<line class="st1" x1="927.9" y1="478.6" x2="966.4" y2="478.1"/>
		<line class="st1" x1="443.7" y1="395.8" x2="457.6" y2="391.6"/>
		<line class="st1" x1="181.8" y1="606.1" x2="51.4" y2="640.6"/>
		<line class="st1" x1="785.5" y1="1272.8" x2="784.6" y2="865.1"/>
		<line class="st1" x1="756" y1="1268.2" x2="756.1" y2="1310.1"/>
		<line class="st1" x1="692.6" y1="956.9" x2="676.9" y2="956.8"/>
		<line class="st1" x1="174.1" y1="950.3" x2="106.3" y2="1068.2"/>
		<line class="st1" x1="596.1" y1="1233.7" x2="376.3" y2="1233.7"/>
		<line class="st1" x1="684.5" y1="1316.4" x2="658" y2="1315.6"/>
		<line class="st1" x1="376.3" y1="1233.7" x2="376.2" y2="1229.8"/>
		<line class="st1" x1="188.5" y1="689.8" x2="176.2" y2="689.9"/>
		<line class="st1" x1="621" y1="1271.9" x2="621" y2="1307"/>
		<line class="st1" x1="867.9" y1="316.8" x2="861.3" y2="341.9"/>
		<line class="st1" x1="80.6" y1="1315.8" x2="64.2" y2="1315.4"/>
		<line class="st1" x1="203.2" y1="1261.6" x2="610.8" y2="1261.7"/>
		<line class="st1" x1="989.6" y1="291.6" x2="989.9" y2="280.6"/>
		<line class="st1" x1="158.3" y1="1316.3" x2="131.6" y2="1316"/>
		<line class="st1" x1="194.5" y1="1307" x2="194.7" y2="1270.7"/>
		<line class="st1" x1="220.1" y1="1233.4" x2="268.7" y2="1233.3"/>
		<line class="st1" x1="176.2" y1="689.9" x2="176.2" y2="703.1"/>
		<line class="st1" x1="874.6" y1="241.3" x2="878.2" y2="245.1"/>
		<line class="st1" x1="731.4" y1="132.2" x2="735" y2="136.6"/>
		<line class="st1" x1="325.5" y1="602.5" x2="414.7" y2="602.1"/>
		<line class="st1" x1="31.1" y1="666" x2="30.5" y2="671.6"/>
		<line class="st1" x1="279.8" y1="888" x2="241.5" y2="917"/>
		<line class="st1" x1="655.7" y1="547.3" x2="655.4" y2="561.7"/>
		<line class="st1" x1="133.1" y1="1337.7" x2="229.8" y2="1337.7"/>
		<line class="st1" x1="131.6" y1="1316" x2="128.4" y2="1329.5"/>
		<line class="st1" x1="405.7" y1="393.1" x2="417.1" y2="396.1"/>
		<line class="st1" x1="755.7" y1="879.4" x2="756.2" y2="922.6"/>
		<line class="st1" x1="162.9" y1="816.7" x2="163.4" y2="734.7"/>
		<line class="st1" x1="752.3" y1="596.1" x2="752.3" y2="678.4"/>
		<line class="st1" x1="692.8" y1="967.2" x2="692.6" y2="956.9"/>
		<line class="st1" x1="878.2" y1="245.1" x2="874" y2="248.4"/>
		<line class="st1" x1="657" y1="1262.7" x2="751.2" y2="1262.4"/>
		<line class="st1" x1="167.2" y1="1270.5" x2="167.4" y2="1307.3"/>
		<line class="st1" x1="64.3" y1="1261.8" x2="158.2" y2="1261.8"/>
		<line class="st1" x1="176" y1="635.1" x2="176" y2="649.5"/>
		<line class="st1" x1="59.6" y1="1310.4" x2="59.8" y2="1266.2"/>
		<line class="st1" x1="838.7" y1="694.2" x2="786.4" y2="694.2"/>
		<line class="st1" x1="106.3" y1="1068.2" x2="66.1" y2="1067.9"/>
		<line class="st1" x1="580.2" y1="1315.6" x2="585.9" y2="1338.3"/>
		<line class="st1" x1="457.6" y1="391.6" x2="486.8" y2="384.5"/>
		<line class="st1" x1="120.4" y1="659.3" x2="120.1" y2="702.8"/>
		<line class="st1" x1="785.2" y1="68.4" x2="800.4" y2="72.7"/>
		<line class="st1" x1="744.6" y1="146.6" x2="748.4" y2="150.1"/>
		<line class="st1" x1="724.9" y1="48" x2="736.2" y2="57.8"/>
		<line class="st1" x1="84.6" y1="1333" x2="80.6" y2="1315.8"/>
		<line class="st1" x1="725.8" y1="957.2" x2="725.8" y2="968.8"/>
		<line class="st1" x1="283.1" y1="949.1" x2="283" y2="921.9"/>
		<line class="st1" x1="775.3" y1="852.6" x2="733.8" y2="853.1"/>
		<line class="st1" x1="867.5" y1="725.8" x2="867.5" y2="810"/>
		<line class="st1" x1="648.1" y1="1306.4" x2="647.6" y2="1271.9"/>
		<line class="st1" x1="34.8" y1="1338.1" x2="79" y2="1338"/>
		<line class="st1" x1="683.3" y1="852.6" x2="644" y2="852.8"/>
		<line class="st1" x1="770.8" y1="207.6" x2="825.9" y2="206.1"/>
		<line class="st1" x1="735.5" y1="1315.9" x2="731.4" y2="1329.8"/>
		<line class="st1" x1="729.2" y1="30.1" x2="758" y2="40.8"/>
		<line class="st1" x1="735" y1="136.6" x2="739.2" y2="140.8"/>
		<line class="st1" x1="315.6" y1="955.4" x2="629.7" y2="954.5"/>
		<line class="st1" x1="911.2" y1="880.6" x2="911.2" y2="904.5"/>
		<line class="st1" x1="736.2" y1="57.8" x2="748.7" y2="67.6"/>
		<line class="st1" x1="909.5" y1="340.7" x2="902.6" y2="340.5"/>
		<line class="st1" x1="229.8" y1="1337.7" x2="235.5" y2="1315.6"/>
		<line class="st1" x1="585.9" y1="1338.3" x2="681.8" y2="1337.8"/>
		<line class="st1" x1="928.2" y1="489.6" x2="965.1" y2="489.7"/>
		<line class="st1" x1="172.3" y1="707" x2="148.2" y2="707"/>
		<line class="st1" x1="764.3" y1="43.9" x2="764.3" y2="52.1"/>
		<line class="st1" x1="954" y1="286.4" x2="964.5" y2="286.5"/>
		<line class="st1" x1="918.3" y1="362.6" x2="951" y2="313.8"/>
		<line class="st1" x1="859" y1="837" x2="883" y2="836.8"/>
		<line class="st1" x1="895.6" y1="267.4" x2="975.7" y2="267"/>
		<line class="st1" x1="951" y1="313.8" x2="945.1" y2="294"/>
		<line class="st1" x1="291.4" y1="885.1" x2="279.8" y2="888"/>
		<line class="st1" x1="853.8" y1="236.4" x2="854.5" y2="284.6"/>
		<line class="st1" x1="30.5" y1="671.6" x2="30" y2="1331.6"/>
		<line class="st1" x1="471.4" y1="570.1" x2="471" y2="413"/>
		<line class="st1" x1="364.7" y1="1230" x2="364.5" y2="1233.4"/>
		<line class="st1" x1="392.2" y1="75.8" x2="392.2" y2="89.4"/>
		<line class="st1" x1="727.8" y1="127.6" x2="731.4" y2="132.2"/>
		<line class="st1" x1="947" y1="287.8" x2="954" y2="286.4"/>
		<line class="st1" x1="861.2" y1="292.5" x2="897.9" y2="292.2"/>
		<line class="st1" x1="750.9" y1="564.5" x2="677.3" y2="564.5"/>
		<line class="st1" x1="579.1" y1="375" x2="770.8" y2="375"/>
		<line class="st1" x1="677.8" y1="1233.4" x2="749.7" y2="1233.5"/>
		<line class="st1" x1="648.1" y1="884.9" x2="291.4" y2="885.1"/>
		<line class="st1" x1="855.4" y1="854.8" x2="855.3" y2="840.7"/>
		<line class="st1" x1="715.3" y1="957" x2="704.5" y2="957"/>
		<line class="st1" x1="897.9" y1="292.2" x2="903.5" y2="286.9"/>
		<line class="st1" x1="964.5" y1="286.5" x2="966.9" y2="291.5"/>
		<line class="st1" x1="966.9" y1="291.5" x2="989.6" y2="291.6"/>
		<line class="st1" x1="381.1" y1="378.5" x2="391.9" y2="386.2"/>
		<line class="st1" x1="945.1" y1="294" x2="947" y2="287.8"/>
		<line class="st1" x1="870.1" y1="475.7" x2="870.5" y2="392.9"/>
		<line class="st1" x1="856.7" y1="293.3" x2="899.4" y2="292.8"/>
		<line class="st1" x1="704.5" y1="957" x2="704.5" y2="967.6"/>
		<line class="st1" x1="773.3" y1="575.8" x2="773.8" y2="542.8"/>
		<line class="st1" x1="736.2" y1="1338.3" x2="779.5" y2="1337.6"/>
		<line class="st1" x1="192.9" y1="819.4" x2="192.4" y2="693.7"/>
		<line class="st1" x1="273.4" y1="686.5" x2="273.1" y2="636.9"/>
		<line class="st1" x1="159.3" y1="730.8" x2="143.9" y2="730.9"/>
		<line class="st1" x1="896.1" y1="362.3" x2="918.3" y2="362.6"/>
		<line class="st1" x1="538.5" y1="680.7" x2="537.8" y2="679.8"/>
		<line class="st1" x1="762.6" y1="42.8" x2="762.2" y2="160.6"/>
		<line class="st1" x1="968.4" y1="902.9" x2="968.2" y2="882.6"/>
		<line class="st1" x1="407.4" y1="260.5" x2="407.5" y2="134.4"/>
		<line class="st1" x1="781" y1="75.3" x2="780.4" y2="179.3"/>
		<line class="st1" x1="764.3" y1="43.9" x2="763.6" y2="199"/>
		<line class="st1" x1="674" y1="924.5" x2="673.5" y2="908.1"/>
		<line class="st1" x1="751.4" y1="1315.9" x2="735.5" y2="1315.9"/>
		<line class="st1" x1="387.9" y1="146.7" x2="363.4" y2="146.9"/>
		<line class="st1" x1="1000.3" y1="273.9" x2="999.8" y2="217.8"/>
		<line class="st1" x1="724.6" y1="123.1" x2="727.8" y2="127.6"/>
		<line class="st1" x1="874" y1="248.4" x2="874.3" y2="267.2"/>
		<line class="st1" x1="890.4" y1="272.9" x2="895.6" y2="267.4"/>
		<line class="st1" x1="981.9" y1="219.8" x2="981.7" y2="258.7"/>
		<line class="st1" x1="785.6" y1="1330.9" x2="785.5" y2="1272.8"/>
		<line class="st1" x1="903.5" y1="286.9" x2="917.7" y2="287.1"/>
		<line class="st1" x1="800.4" y1="72.7" x2="854.2" y2="87"/>
		<line class="st1" x1="438.4" y1="608.2" x2="428.2" y2="602.5"/>
		<line class="st1" x1="722.5" y1="119.2" x2="724.6" y2="123.1"/>
		<path class="st1" d="M433.8,569.9c0.1,14.9,12.3,26.9,27.2,26.8c14.9-0.1,26.9-12.3,26.8-27.2"/>
		<path class="st1" d="M837.6,414.4c0-5.2-3.8-9.6-8.9-10.4"/>
		<path class="st1" d="M854,410.5c-0.5-13-11.2-23.3-24.2-23.3"/>
		<path class="st1" d="M494.1,387.1C481,388.6,471,399.8,471,413"/>
		<path class="st1" d="M361.9,299c-7.8,20.8-6,43.9,5.1,63.2"/>
		<path class="st1" d="M335.5,141.9c-0.1,14.5,10.6,26.8,24.9,28.8"/>
		<path class="st1" d="M335.8,98.6c-0.9-1.7-2.9-2.6-4.8-2.1"/>
		<path class="st1" d="M280.1,111.4c-1,0.9-1.6,2.1-1.6,3.5"/>
		<path class="st1" d="M309.6,602.5c0.8,0,1.5-0.4,1.8-1.1"/>
		<path class="st1" d="M277.9,600c0,1.4,1.1,2.5,2.5,2.5"/>
		<path class="st1" d="M378.5,173.4c0.1-1.4-1-2.6-2.4-2.6H376"/>
		<path class="st1" d="M393.1,390.9c0.8-1.6,0.3-3.6-1.1-4.7"/>
		<path class="st1" d="M281.2,378.8c-1.7,0-3.2,1.3-3.2,3.1c0,0,0,0,0,0v0.1"/>
		<path class="st1" d="M405.7,393.1c-1.4-0.1-2.8,0.7-3.3,2"/>
		<path class="st1" d="M414.7,602.1c1.1,0,2.1-0.9,2.1-2.1"/>
		<path class="st1" d="M453.4,618.8c-2.1,1-3,3.5-2.2,5.7"/>
		<path class="st1" d="M505.5,693.9c1.2,0.2,2.2-0.6,2.4-1.7c0,0,0,0,0,0c0-0.1,0-0.2,0-0.3"/>
		<path class="st1" d="M968.6,825.8c0-1.2-0.9-2.1-2.1-2.1c0,0,0,0,0,0h0"/>
		<path class="st1" d="M450,570.5c0.2,5.9,5.1,10.6,11,10.4c5.7-0.2,10.2-4.7,10.4-10.4c0-0.2,0-0.4,0-0.5"/>
		<path class="st1" d="M966.1,853.1c1.5,0,2.6-1.2,2.6-2.7c0,0,0,0,0,0c0-0.1,0-0.3,0-0.4"/>
		<path class="st1" d="M935,877.4c0,1.7,1.3,3.2,3,3.2h0.1"/>
		<path class="st1" d="M968.3,882.6c0-1-0.8-1.9-1.9-1.9h-0.2"/>
		<path class="st1" d="M911.2,904.5c0,0.8,0.6,1.4,1.4,1.4c0,0,0,0,0,0h0.1"/>
		<path class="st1" d="M867.5,810c0,1.5,1.1,2.9,2.6,3.2"/>
		<path class="st1" d="M968.3,725.9c0.1-1.6-1.2-3-2.8-3.1h-0.2"/>
		<path class="st1" d="M870.4,723c-1.5-0.1-2.8,1.1-2.9,2.7v0.1"/>
		<path class="st1" d="M913.9,491.5c0-0.9-0.7-1.7-1.7-1.7"/>
		<path class="st1" d="M968.9,493.5c0-2.1-1.7-3.8-3.7-3.8c0,0,0,0,0,0h-0.1"/>
		<path class="st1" d="M928.2,489.6c-2,0.1-3.6,1.7-3.5,3.7"/>
		<path class="st1" d="M507.9,622c0.1-1.8-1.2-3.3-3-3.4c0,0,0,0,0,0h-0.2"/>
		<path class="st1" d="M927.6,397c-1.5-0.3-2.9,0.7-3.2,2.2c0,0.2,0,0.3,0,0.5"/>
		<path class="st1" d="M965.6,905.9c1.5,0,2.7-1.2,2.7-2.7c0-0.1,0-0.2,0-0.3"/>
		<path class="st1" d="M981.9,219.8C967.4,155.2,918.3,104,854.3,87"/>
		<path class="st1" d="M219.7,956.7c17.4-1.3,33.7-8.8,46.1-21.1"/>
		<path class="st1" d="M966.4,478.1c1.2,0,2.2-1,2.2-2.2c0,0,0,0,0,0c0-0.3-0.1-0.6-0.2-0.8"/>
		<path class="st1" d="M924.4,475.2c0,1.9,1.5,3.4,3.4,3.4c0,0,0,0,0,0h0.1"/>
		<path class="st1" d="M874.3,267.2c0,2.5,1.7,4.6,4.1,5.2"/>
		<path class="st1" d="M874.4,391.2c-1-0.9-2.4-0.8-3.3,0.2c-0.4,0.4-0.6,1-0.6,1.5"/>
		<path class="st1" d="M870.1,475.7c0.1,1.4,1.2,2.4,2.6,2.5"/>
		<path class="st1" d="M911.7,478.3c1.3-0.3,2.2-1.4,2.2-2.7"/>
		<path class="st1" d="M911,397.4c-4.4-0.8-8.8-1-13.2-0.6"/>
		<path class="st1" d="M657,1262.7c-5-0.2-9.2,3.8-9.4,8.8c0,0.2,0,0.3,0,0.4"/>
		<path class="st1" d="M874.4,391.2c7,4.2,15.2,6.2,23.5,5.5"/>
		<path class="st1" d="M432.7,396.3c-2.3-0.2-4.3,1.4-4.6,3.7c0,0,0,0,0,0c0,0.1,0,0.3,0,0.4"/>
		<path class="st1" d="M620.5,545.5c-1.1,0-2.1,0.7-2.4,1.8"/>
		<path class="st1" d="M607.5,1230.5c0-3.1-2.6-5.7-5.7-5.6c-3,0-5.5,2.4-5.6,5.4"/>
		<path class="st1" d="M653.4,564.5c1.2-0.4,2-1.6,2-2.8"/>
		<path class="st1" d="M128.4,1329.5c-0.8,3.5,1.2,7.1,4.7,8.2"/>
		<path class="st1" d="M311.4,1046.3c-5.5,0-11,0-16.5,0.2"/>
		<path class="st1" d="M762.6,568.1c-3.2-2.8-7.4-4.2-11.7-3.7"/>
		<path class="st1" d="M914.3,400.1c-0.5-1.5-1.7-2.5-3.3-2.8"/>
		<path class="st1" d="M856.5,702.2c2.1-0.7,3.5-2.7,3.5-4.9"/>
		<path class="st1" d="M629.3,1202.2c2.4,0.3,4.5-1.4,4.8-3.8c0-0.2,0-0.3,0-0.5"/>
		<path class="st1" d="M171.7,874c-4.4,23.9,11.4,46.8,35.3,51.2c12.2,2.2,24.7-0.8,34.5-8.2"/>
		<path class="st1" d="M856,478.5c1.6,0.3,3.1-0.8,3.3-2.3c0,0,0,0,0,0c0-0.2,0-0.3,0-0.5"/>
		<path class="st1" d="M645.3,918.9c0.3-2.1-1.1-4.1-3.2-4.4c-0.2,0-0.4,0-0.6,0"/>
		<path class="st1" d="M268.7,690.8c2.4,0,4.5-1.8,4.7-4.3"/>
		<path class="st1" d="M859.5,378c0-1.5-1.2-2.7-2.7-2.8l0,0"/>
		<path class="st1" d="M192.4,693.7c0-2.1-1.7-3.8-3.9-3.8"/>
		<path class="st1" d="M770.8,375c0.1,3.6,3.1,6.5,6.8,6.4c3.4-0.1,6.2-2.8,6.4-6.3"/>
		<path class="st1" d="M539.6,564.8c-16.9,0.1-30.5,13.8-30.5,30.7c0,0,0,0,0,0c0,0.6,0,1.2,0.1,1.8"/>
		<path class="st1" d="M205.5,959.3c0-1.5-1-2.7-2.4-3"/>
		<path class="st1" d="M838.6,934.5c0,2.8,2.1,5.1,4.9,5.2"/>
		<path class="st1" d="M842.2,892.8c-1.7,0-3.1,1.4-3.2,3.1"/>
		<path class="st1" d="M773.8,542.8c-0.2-3.1-2.8-5.4-5.9-5.2c-2.9,0.2-5.2,2.6-5.2,5.5"/>
		<path class="st1" d="M887.6,841.1c-0.1-2.4-2.1-4.3-4.6-4.3"/>
		<path class="st1" d="M838.6,727.3c-0.8-2.5-3.1-4.3-5.8-4.3"/>
		<path class="st1" d="M732.4,702.3c-0.2-1.7-1.6-2.9-3.3-2.9"/>
		<path class="st1" d="M711.1,695.8c-0.1,1.8,1.1,3.3,2.8,3.8"/>
		<path class="st1" d="M657.7,545.2c-1.1,0-2,0.9-2,2l0,0"/>
		<path class="st1" d="M364.8,927.8c0,3.1,2.6,5.6,5.7,5.6c3.1,0,5.6-2.6,5.6-5.7l0,0c0-0.1,0-0.1,0-0.2"/>
		<path class="st1" d="M717.4,675.9c-2.6-0.4-5,1.2-5.7,3.8"/>
		<path class="st1" d="M749.7,680.8c1.3,0.1,2.5-0.9,2.6-2.2c0,0,0,0,0,0c0-0.1,0-0.1,0-0.2"/>
		<path class="st1" d="M285.7,960.1c3-0.8,4.8-4,3.9-7c-0.5-1.9-2.1-3.4-4-4"/>
		<path class="st1" d="M575.4,699.1c1.6,0,2.8-1.3,2.8-2.8v-0.1"/>
		<path class="st1" d="M559.9,699.2c-1.6,0-3,1.2-3.1,2.9v0.1"/>
		<path class="st1" d="M433.5,717.3c0.5,2.6,2.2,4.9,4.6,6.1"/>
		<path class="st1" d="M735.2,105.1c-3.3-2.7-8.1-2.7-11.4,0"/>
		<path class="st1" d="M424.5,636.9c0.8-2-0.1-4.4-2.2-5.2c-0.5-0.2-1-0.3-1.5-0.3"/>
		<path class="st1" d="M853.7,700.9c-4.5-3.3-9.6-5.6-15-6.8"/>
		<path class="st1" d="M362,631.6c-2.7-0.3-5.1,1.6-5.5,4.3c0,0,0,0,0,0c0,0.2,0,0.4,0,0.6"/>
		<path class="st1" d="M343.1,653.1c0.1,3.7,3.2,6.6,6.9,6.4c3.5-0.1,6.3-2.9,6.4-6.4"/>
		<path class="st1" d="M342.9,636.5c0.3-2.5-1.5-4.7-3.9-4.9c-0.2,0-0.4,0-0.5,0"/>
		<path class="st1" d="M277.9,632.1c-2.6,0-4.8,2.1-4.8,4.7l0,0"/>
		<path class="st1" d="M408,49c0-2.7-2.2-5-4.9-5c-0.7,0-1.4,0.1-2.1,0.4"/>
		<path class="st1" d="M854.9,346.2c2.9,0.3,5.6-1.5,6.4-4.4"/>
		<path class="st1" d="M856.7,293.3c-1.2,0-2.2,1-2.2,2.3v0.1"/>
		<path class="st1" d="M387.9,146.7c2.6-0.2,4.5-2.5,4.3-5.2c0,0,0-0.1,0-0.1"/>
		<path class="st1" d="M781.7,689.1c-0.2,2.6,1.8,4.8,4.4,5h0.3"/>
		<path class="st1" d="M167.3,1270.5c-0.2-4.9-4.1-8.7-9-8.7"/>
		<path class="st1" d="M903.2,299.9c1.4-2,1-4.8-1.1-6.3c-0.8-0.6-1.7-0.8-2.7-0.8"/>
		<path class="st1" d="M392.2,75.8c0.2-2.4-1.5-4.5-3.8-4.7h-0.5"/>
		<path class="st1" d="M144.2,702.1c-0.4,2.2,1.1,4.3,3.4,4.7c0.2,0,0.5,0,0.7,0"/>
		<path class="st1" d="M888.4,359.9c-0.5,3.8,2.2,7.4,6,7.9c0,0,0,0,0,0c0.3,0,0.6,0.1,0.9,0.1"/>
		<path class="st1" d="M970.9,318.3c0.4-2.4-1.2-4.7-3.6-5.1c0,0,0,0,0,0c-0.3,0-0.5-0.1-0.8-0.1"/>
		<path class="st1" d="M951.4,292.8c-1.4-0.6-3.1,0-3.7,1.4c-0.3,0.6-0.3,1.3-0.2,1.9"/>
		<path class="st1" d="M219.7,956.7c-1.9-0.2-3.7,1.2-3.8,3.2v0c0,0.1,0,0.2,0,0.3"/>
		<path class="st1" d="M1000.5,301.4c0-4.7-3.8-8.5-8.4-8.5c0,0,0,0,0,0l0,0"/>
		<path class="st1" d="M294.8,1200.1c-0.1,10.4,8.3,18.9,18.7,18.9c0,0,0,0,0,0c0.6,0,1.2,0,1.8-0.1"/>
		<path class="st1" d="M311,1197.4c-0.1,3,2.3,5.4,5.3,5.5c0,0,0,0,0,0h0.1"/>
		<path class="st1" d="M872.6,489.8c-1.2-0.1-2.2,0.7-2.3,1.9c0,0,0,0,0,0c0,0.1,0,0.1,0,0.2"/>
		<path class="st1" d="M189.8,649.5c1.2-0.3,2.1-1.4,2.1-2.7"/>
		<path class="st1" d="M634.3,959.6c0.2-2.5-1.6-4.7-4.1-5c-0.2,0-0.3,0-0.5,0"/>
		<path class="st1" d="M62.8,923.9c0,2.4,1.8,4.5,4.1,4.9"/>
		<path class="st1" d="M315.6,955.4c-2.1,0.1-3.8,1.9-3.8,4.1"/>
		<path class="st1" d="M391.1,304.7c-7.8,13-7.5,29.3,0.6,42.1"/>
		<path class="st1" d="M120.4,659.3c-1.2-1.9-3.6-2.8-5.8-2.2"/>
		<path class="st1" d="M965.8,367.7c2.8,0,5.1-2.3,5.1-5.1l0,0l0,0"/>
		<path class="st1" d="M66.3,670.4c-1.8,1.5-2.9,3.6-3.1,5.8"/>
		<path class="st1" d="M149.7,928.2c1.8,0,3.3-1.5,3.3-3.4c0,0,0,0,0,0c0-0.8-0.3-1.5-0.8-2.1"/>
		<path class="st1" d="M753,1028.5c0.2-1.8-1.1-3.4-2.9-3.6c0,0,0,0,0,0c-0.1,0-0.3,0-0.4,0"/>
		<path class="st1" d="M102.6,1233.6c2-0.8,3.4-2.7,3.4-4.8"/>
		<path class="st1" d="M968.4,939.4c16.4,0,30.2-12.3,32.1-28.6"/>
		<path class="st1" d="M554.6,723.3c1.2,0,2.2-0.8,2.4-2"/>
		<path class="st1" d="M497.2,403.3c-5.2,0-9.5,4.1-9.7,9.3"/>
		<path class="st1" d="M63.1,1229.3c0,1.8,1.1,3.4,2.7,4.1"/>
		<path class="st1" d="M651.5,960.6c0-11.5-9.3-20.9-20.8-20.9c0,0,0,0,0,0h-1"/>
		<path class="st1" d="M278.4,365.3c0,1.3,0.8,2.4,2,2.8"/>
		<path class="st1" d="M761.9,99.1c0.1-3.9-0.2-7.9-1-11.7"/>
		<path class="st1" d="M785.2,68.4c-2.6,1.3-4.2,4-4.2,6.8"/>
		<path class="st1" d="M106.2,1082.9c0.5-1.7-0.4-3.4-2.1-3.9c0,0,0,0,0,0c-0.3-0.1-0.6-0.1-0.9-0.1"/>
		<path class="st1" d="M853.7,700.9c0.6,1,1.7,1.5,2.8,1.3"/>
		<path class="st1" d="M65.6,1078.6c-1.5,0-2.7,1.2-2.8,2.6"/>
		<path class="st1" d="M201.7,1233.4c2.1-0.6,3.6-2.6,3.6-4.8"/>
		<path class="st1" d="M760.9,87.4c-1.6-7.9-5.9-14.9-12.2-19.9"/>
		<path class="st1" d="M965.1,813.1c1.5,0.2,2.8-0.9,3-2.4c0-0.1,0-0.2,0-0.3"/>
		<path class="st1" d="M318.4,938.1c-11.6-0.1-21.5,8.4-23.2,19.9"/>
		<path class="st1" d="M989.9,280.6c4.2-0.9,7.9-3.3,10.5-6.7"/>
		<path class="st1" d="M174.1,950.3c1.3-1.5,1.1-3.8-0.4-5.1l0,0"/>
		<path class="st1" d="M679.6,1025.1c-1.7,0.3-3.1,1.6-3.6,3.3"/>
		<path class="st1" d="M30,1331.6c0,3,1.9,5.6,4.8,6.5"/>
		<path class="st1" d="M66.1,939c-1-0.2-2,0.5-2.2,1.5c0,0.1,0,0.2,0,0.3"/>
		<path class="st1" d="M405.7,89.7c1.1,0,2-0.9,2-2c0-0.1,0-0.3,0-0.4"/>
		<path class="st1" d="M176,635.1c-0.7-2.6-3.3-4.2-5.9-3.5c0,0,0,0-0.1,0l0,0"/>
		<path class="st1" d="M121.3,1063.1c-1,1.7-0.4,3.8,1.2,4.7c0,0,0,0,0,0c0.2,0.1,0.4,0.2,0.7,0.3"/>
		<path class="st1" d="M265.4,80.9c-10.7,2.9-18.2,12.6-18.2,23.8"/>
		<path class="st1" d="M867.9,316.8c0.6-1.3,0-2.8-1.3-3.4c-0.3-0.1-0.7-0.2-1-0.2"/>
		<path class="st1" d="M784.6,865.1c0-5.8-3.8-10.8-9.3-12.5"/>
		<path class="st1" d="M272.5,938.4c0-2.2-1.8-3.9-4-3.9c-1,0-2,0.4-2.8,1.1"/>
		<path class="st1" d="M64.4,1261.8c-2.4-0.1-4.5,1.7-4.6,4.1v0.2"/>
		<path class="st1" d="M115.8,1227.9c0,2.5,1.6,4.6,4,5.3"/>
		<path class="st1" d="M268.7,1233.3c2.1,0,3.8-1.7,3.8-3.8c0,0,0,0,0,0v-0.2"/>
		<path class="st1" d="M215.6,1228.7c0,2.5,1.9,4.6,4.4,4.8"/>
		<path class="st1" d="M925,702.9c0.2,1.8,1.3,3.5,3,4.2"/>
		<path class="st1" d="M676.9,956.9c-1,0.5-1.7,1.6-1.7,2.8"/>
		<path class="st1" d="M752.6,959.4c0-1.2-1-2.2-2.2-2.2c-0.1,0-0.3,0-0.4,0"/>
		<path class="st1" d="M869.9,704.7c0,1.2,0.8,2.3,2,2.5"/>
		<path class="st1" d="M854.8,907.9c-0.2,1.6,1,3.1,2.6,3.3c0.1,0,0.3,0,0.4,0"/>
		<path class="st1" d="M192,607c-1.7-2-4.5-2.8-7.1-2"/>
		<path class="st1" d="M634.2,562c0.1,1.3,1.3,2.4,2.6,2.4"/>
		<path class="st1" d="M675.7,1011.1c0,1.8,1.4,3.2,3.2,3.3"/>
		<path class="st1" d="M674.1,924.5c0.6,2.6,2.8,4.4,5.4,4.4"/>
		<path class="st1" d="M407.5,134.4c0-2.4-1.3-4.5-3.4-5.6"/>
		<path class="st1" d="M631.1,1218.9c10.3,0,18.9-8,19.7-18.3"/>
		<path class="st1" d="M611.1,564.5c1.3-0.1,2.4-1,2.8-2.3"/>
		<path class="st1" d="M912.4,707.1c1-0.3,1.6-1.2,1.6-2.2"/>
		<path class="st1" d="M360.8,78.5c-1.3,0.9-2.1,2.4-2.1,3.9"/>
		<path class="st1" d="M672.5,549.8c-0.7-2.3-2.5-4-4.8-4.6"/>
		<path class="st1" d="M839.3,850.7c0,1.6,0.6,3,1.7,4.2"/>
		<path class="st1" d="M285.4,1175.1c2.8-1.2,4.1-4.4,2.8-7.2c-0.6-1.4-1.8-2.5-3.3-3"/>
		<path class="st1" d="M779.5,1337.6c3.4-0.1,6.2-2.9,6.1-6.3c0,0,0,0,0,0c0-0.1,0-0.2,0-0.3"/>
		<path class="st1" d="M163.4,734.7c0-2.2-1.7-3.9-3.9-3.9h-0.2"/>
		<path class="st1" d="M376.2,1229.8c0.1-3.2-2.4-5.9-5.6-6c-3.2-0.1-5.9,2.4-6,5.6c0,0.2,0,0.3,0,0.5v0.1"/>
		<path class="st1" d="M205.4,1082.9c0.1-2.4-1.8-4.4-4.2-4.5c0,0,0,0,0,0H201"/>
		<path class="st1" d="M821.3,478.4c-3.2,0.1-5.7,2.8-5.6,6c0.1,3,2.5,5.5,5.5,5.6"/>
		<path class="st1" d="M732.1,720.1c0,1.8,1.3,3.2,3.1,3.4"/>
		<path class="st1" d="M675.6,1229.3c0,1.7,0.8,3.2,2.2,4.1"/>
		<path class="st1" d="M966,707.1c1.3,0,2.4-1.1,2.4-2.4c0,0,0,0,0,0c0-0.1,0-0.2,0-0.2"/>
		<path class="st1" d="M661.3,1233.6c1.7,0.3,3.5-0.8,3.8-2.5c0,0,0,0,0,0c0-0.2,0.1-0.4,0.1-0.6"/>
		<path class="st1" d="M661.1,1165.6c-2.8-0.2-5.2,2-5.4,4.8c-0.2,2.8,2,5.2,4.8,5.4c0.1,0,0.3,0,0.4,0h0.1"/>
		<path class="st1" d="M660.9,1014.5c-3-0.1-5.5,2.4-5.6,5.4s2.4,5.5,5.4,5.6c0.3,0,0.6,0,0.9,0"/>
		<path class="st1" d="M749.6,1014.3c1.4,0,2.6-1.1,2.7-2.6"/>
		<path class="st1" d="M245.9,685.4c0,2.6,1.8,4.9,4.4,5.4"/>
		<path class="st1" d="M146.8,637.7c-1.5,0.6-2.5,2.1-2.5,3.8"/>
		<path class="st1" d="M913.9,855.7c0-0.8-0.6-1.4-1.4-1.4"/>
		<path class="st1" d="M172.3,707c2.2-0.1,3.9-1.8,3.9-4"/>
		<path class="st1" d="M751.5,928.6c2.8-0.6,4.8-3.1,4.7-6"/>
		<path class="st1" d="M723.8,31.9c-4.1,4.6-3.8,11.7,0.9,15.8l0.2,0.2"/>
		<path class="st1" d="M755.7,879.4c-0.1-2.9-2.5-5.3-5.4-5.2"/>
		<path class="st1" d="M578,680.4c0-2.7-2.2-4.8-4.9-4.8c0,0,0,0,0,0c-0.3,0-0.5,0-0.8,0.1"/>
		<path class="st1" d="M687.2,860.9c0.9-3.3-0.7-6.9-3.9-8.3"/>
		<path class="st1" d="M723.8,105.1c-4.2,3.5-4.9,9.7-1.4,14c0,0,0,0,0,0"/>
		<path class="st1" d="M968.6,399.5c0.3-1.3-0.5-2.6-1.8-2.9c0,0,0,0,0,0c-0.2,0-0.4-0.1-0.6-0.1"/>
		<path class="st1" d="M644,852.9c-2.4,0-4.4,2-4.3,4.4c0,0,0,0,0,0c0,0.7,0.2,1.4,0.5,2.1"/>
		<path class="st1" d="M853.8,236.4c1.7-14.9-9.1-28.4-24-30.1c-1.3-0.1-2.6-0.2-3.9-0.2"/>
		<path class="st1" d="M752.3,596.1c0.1-0.9-0.6-1.7-1.6-1.8c0,0,0,0,0,0h-0.1"/>
		<path class="st1" d="M648.1,1306.4c0.5,5.1,4.7,9.1,9.9,9.2"/>
		<path class="st1" d="M912.8,823.7c-0.8-0.1-1.4,0.5-1.5,1.3v0.1"/>
		<path class="st1" d="M715.3,968.9c0.1,2.9,2.6,5.1,5.5,5c2.7-0.1,4.9-2.3,5-5.1"/>
		<path class="st1" d="M997.1,203.8c-19.1-66.2-71.5-117.6-138.1-135.3"/>
		<path class="st1" d="M538.8,594.5c-0.6,0.4-1,1.1-1,1.8"/>
		<path class="st1" d="M745.9,110.8c6.6,1.9,13.6-1.9,15.5-8.5c0,0,0,0,0,0c0.3-1,0.5-2.1,0.5-3.1"/>
		<path class="st1" d="M612,1315.8c4.9,0.1,8.9-3.8,9-8.6c0,0,0,0,0,0c0,0,0-0.1,0-0.2"/>
		<path class="st1" d="M692.8,967.2c-0.3,3.2,2.1,6.1,5.3,6.4c3.2,0.3,6.1-2.1,6.4-5.3c0-0.1,0-0.2,0-0.4c0-0.1,0-0.3,0-0.4"/>
		<path class="st1" d="M874.6,241.3c1.9-28.5-19.7-53.1-48.2-55c-1.6-0.1-3.3-0.1-4.9-0.1"/>
		<path class="st1" d="M912.4,880.5c0.8,0,1.4-0.6,1.5-1.3c0,0,0,0,0,0c0,0,0,0,0-0.1"/>
		<path class="st1" d="M505.7,607.9c1.8,0.2,3.3-1.1,3.5-2.9c0,0,0,0,0,0c0-0.1,0-0.2,0-0.3"/>
		<path class="st1" d="M621,1271.9c0-5.6-4.6-10.2-10.2-10.2"/>
		<path class="st1" d="M364.7,367.9c2.1-0.6,3.2-2.8,2.6-4.8c-0.1-0.3-0.2-0.6-0.4-0.8"/>
		<path class="st1" d="M566.5,375.3c0,3.5,2.8,6.3,6.3,6.3c3.5,0,6.3-2.8,6.3-6.3V375"/>
		<path class="st1" d="M121.7,1078.5c-2.6-0.2-4.9,1.8-5.1,4.5c0,0,0,0,0,0c0,0.1,0,0.2,0,0.3"/>
		<path class="st1" d="M162.9,816.7c-10.9,21-18.4,43.6-22,67"/>
		<path class="st1" d="M203.2,1261.6c-4.7,0.4-8.4,4.3-8.4,9.1"/>
		<path class="st1" d="M51.4,640.6C39.8,643.7,31.6,654,31.1,666"/>
		<path class="st1" d="M903.2,299.9c-7.1,19.4-12,39.5-14.8,60"/>
		<path class="st1" d="M194.5,1307c0.6,4.9,4.8,8.6,9.7,8.6"/>
		<path class="st1" d="M758,40.8c1.5,0.7,3,1.4,4.6,2"/>
		<path class="st1" d="M515.8,929c0.1,3,2.6,5.4,5.6,5.3c2.8-0.1,5.2-2.3,5.3-5.2"/>
		<path class="st1" d="M781.8,591.5c0-6.3-3.2-12.2-8.5-15.6"/>
		<path class="st1" d="M158.3,1316.3c4.9,0.1,9-3.8,9.1-8.7c0,0,0,0,0,0v-0.2"/>
		<path class="st1" d="M751.4,1315.9c2.7-0.6,4.7-3,4.7-5.8"/>
		<path class="st1" d="M59.6,1310.5c-0.2,2.6,1.8,4.8,4.4,5h0.2"/>
		<path class="st1" d="M999.8,217.8c0.2-4.8-0.7-9.6-2.6-14"/>
		<path class="st1" d="M189.4,952.4c-1.7-0.4-3.5,0.3-4.4,1.8"/>
		<path class="st1" d="M283.1,1231.6c0,1.3,1.1,2.4,2.5,2.4c0,0,0,0,0,0"/>
		<path class="st1" d="M735.2,105.1c3.1,2.6,6.8,4.5,10.7,5.6"/>
		<path class="st1" d="M733.8,853.1c-1.8,0-3.3,1.5-3.3,3.4c0,0.1,0,0.3,0,0.5"/>
		<path class="st1" d="M749.7,1233.5c1.7,0,3.1-1.4,3.1-3.1c0,0,0,0,0,0v-0.2"/>
		<path class="st1" d="M645.2,926.3c-0.1,12.4,7.5,23.5,19,28"/>
		<path class="st1" d="M859.1,68.4c-31.4-9-63-17.2-94.8-24.5"/>
		<path class="st1" d="M63.3,1064.6c-0.2,1.6,0.8,3,2.4,3.3c0,0,0,0,0,0c0.1,0,0.3,0,0.4,0"/>
		<path class="st1" d="M729.2,30.1c-2-0.5-4.1,0.2-5.4,1.8"/>
		<path class="st1" d="M938.3,853.3c-1.7-0.2-3.2,1.1-3.3,2.8c0,0,0,0,0,0c0,0.1,0,0.2,0,0.3"/>
		<path class="st1" d="M634.1,547.7c0-1.1-0.8-2-1.9-2.1"/>
		<path class="st1" d="M324.2,597c-0.7,1.9-0.2,4.1,1.3,5.5"/>
		<path class="st1" d="M79,1338c2.9,0,5.3-2.2,5.6-5"/>
		<path class="st1" d="M391.7,346.8c10.5,16.9,30.9,24.8,50.1,19.4"/>
		<path class="st1" d="M681.9,1337.8c3.1,0,5.7-2.6,5.7-5.7v0c0-0.2,0-0.5,0-0.7"/>
		<path class="st1" d="M859,837c-2-0.1-3.7,1.5-3.7,3.4c0,0,0,0,0,0c0,0.1,0,0.1,0,0.2"/>
		<path class="st1" d="M780.4,179.3c0,3.3,1.6,6.3,4.4,8"/>
		<path class="st1" d="M883.5,911.3c2.1,0.1,3.9-1.5,4-3.5c0,0,0,0,0-0.1v-0.2"/>
		<path class="st1" d="M902.6,340.5c-6.5-0.1-12,5-12.1,11.6c-0.1,4.2,2,8.1,5.5,10.3"/>
		<path class="st1" d="M358.9,142.1c-0.2,2.5,1.6,4.6,4.1,4.8h0.4"/>
		<path class="st1" d="M924.3,294c0.1-3.7-2.9-6.8-6.6-6.8c0,0,0,0,0,0l0,0"/>
		<path class="st1" d="M120.1,702.8c-0.1,14,10,25.9,23.8,28.1"/>
		<path class="st1" d="M975.6,267c3.5,0,6.4-2.9,6.4-6.4c0,0,0,0,0,0c0-0.6-0.1-1.3-0.3-1.9"/>
		<path class="st1" d="M648.1,884.9c2.2-0.6,3.5-3,2.9-5.2c-0.1-0.3-0.2-0.6-0.3-0.8"/>
		<path class="st1" d="M859.7,492.8c0.2-1.4-0.7-2.7-2.1-2.9c0,0,0,0,0,0h-0.4"/>
		<path class="st1" d="M140.9,883.6c-0.2,13.9,3.7,27.5,11.4,39.2"/>
		<path class="st1" d="M756,1268.1c0.5-2.6-1.2-5.2-3.8-5.7c0,0,0,0,0,0c-0.3-0.1-0.6-0.1-0.9-0.1"/>
		<path class="st1" d="M854.5,284.6c0.1,3.9,2.8,7.2,6.6,7.9"/>
		<path class="st1" d="M201.4,1068.1c2,0,3.7-1.5,3.9-3.4"/>
		<path class="st1" d="M763.6,199c0,4.3,3,7.9,7.2,8.6"/>
		<path class="st1" d="M731.4,1329.8c-1,3.6,1,7.4,4.6,8.4c0,0,0,0,0,0l0.2,0.1"/>
	</g>
</g>
</svg>
