<svg id="Layer_1" data-name="Layer 1" xmlns="http://www.w3.org/2000/svg" viewBox="0 0 465.11 461.08"><defs><style>.cls-1{fill:none;stroke:#231f20;stroke-linecap:round;stroke-linejoin:round;stroke-width:16px;}</style></defs><rect class="cls-1" x="389.19" y="103.82" width="40.6" height="349.27"/><rect class="cls-1" x="39.19" y="103.82" width="40.6" height="349.27"/><polygon class="cls-1" points="36.89 98.7 432.97 98.7 457.11 61.03 457.11 8 8 8 8 57.01 36.89 98.7"/><line class="cls-1" x1="14.95" y1="61.03" x2="452.98" y2="61.03"/><line class="cls-1" x1="40.18" y1="13.49" x2="40.18" y2="57.37"/><line class="cls-1" x1="423.41" y1="13.49" x2="423.41" y2="57.37"/><line class="cls-1" x1="59.48" y1="33.52" x2="86.91" y2="33.52"/><line class="cls-1" x1="88.28" y1="127.59" x2="385.79" y2="127.59"/><line class="cls-1" x1="87" y1="156.48" x2="385.5" y2="156.48"/><line class="cls-1" x1="88.28" y1="185.38" x2="385.79" y2="185.38"/><line class="cls-1" x1="88.28" y1="214.27" x2="382.32" y2="214.27"/><line class="cls-1" x1="87" y1="243.16" x2="381.04" y2="243.16"/><line class="cls-1" x1="88.28" y1="271.32" x2="385.5" y2="271.32"/><line class="cls-1" x1="85.53" y1="299.48" x2="384.04" y2="299.48"/><line class="cls-1" x1="85.53" y1="327.64" x2="384.04" y2="327.64"/><line class="cls-1" x1="85.53" y1="355.8" x2="384.04" y2="355.8"/><line class="cls-1" x1="85.53" y1="383.96" x2="384.04" y2="383.96"/><line class="cls-1" x1="85.53" y1="412.12" x2="379.57" y2="412.12"/></svg>